<?xml version="1.0" encoding="UTF-8" standalone="no"?>
<!DOCTYPE svg PUBLIC "-//W3C//DTD SVG 1.1//EN"
 "http://www.w3.org/Graphics/SVG/1.1/DTD/svg11.dtd">
<!-- Generated by graphviz version 2.36.0 (20140111.2315)
 -->
<!-- Title: include/canvas_primitives.h Pages: 1 -->
<svg width="275pt" height="252pt"
 viewBox="0.00 0.00 275.00 252.00" xmlns="http://www.w3.org/2000/svg" xmlns:xlink="http://www.w3.org/1999/xlink">
<g id="graph0" class="graph" transform="scale(1 1) rotate(0) translate(4 248)">
<title>include/canvas_primitives.h</title>
<!-- Node1 -->
<g id="node1" class="node"><title>Node1</title>
<polygon fill="#bfbfbf" stroke="black" points="-0.5,-224.5 -0.5,-243.5 136.5,-243.5 136.5,-224.5 -0.5,-224.5"/>
<text text-anchor="middle" x="68" y="-231.5" font-family="Helvetica,sans-Serif" font-size="10.00">include/canvas_primitives.h</text>
</g>
<!-- Node2 -->
<g id="node2" class="node"><title>Node2</title>
<g id="a_node2"><a xlink:href="model_8h.html" target="_top" xlink:title="include/model.h">
<polygon fill="none" stroke="black" points="25.5,-168.5 25.5,-187.5 110.5,-187.5 110.5,-168.5 25.5,-168.5"/>
<text text-anchor="middle" x="68" y="-175.5" font-family="Helvetica,sans-Serif" font-size="10.00">include/model.h</text>
</a>
</g>
</g>
<!-- Node1&#45;&gt;Node2 -->
<g id="edge1" class="edge"><title>Node1&#45;&gt;Node2</title>
<path fill="none" stroke="midnightblue" d="M68,-213.805C68,-204.91 68,-194.78 68,-187.751"/>
<polygon fill="midnightblue" stroke="midnightblue" points="64.5001,-214.083 68,-224.083 71.5001,-214.083 64.5001,-214.083"/>
</g>
<!-- Node5 -->
<g id="node5" class="node"><title>Node5</title>
<g id="a_node5"><a xlink:href="main_8cpp.html" target="_top" xlink:title="src/main.cpp">
<polygon fill="none" stroke="black" points="22.5,-0.5 22.5,-19.5 95.5,-19.5 95.5,-0.5 22.5,-0.5"/>
<text text-anchor="middle" x="59" y="-7.5" font-family="Helvetica,sans-Serif" font-size="10.00">src/main.cpp</text>
</a>
</g>
</g>
<!-- Node1&#45;&gt;Node5 -->
<g id="edge12" class="edge"><title>Node1&#45;&gt;Node5</title>
<path fill="none" stroke="midnightblue" d="M44.2404,-218.69C33.6917,-210.996 22.266,-200.509 16,-188 4.82481,-165.69 12.8895,-156.936 12,-132 10.7922,-98.1387 4.09647,-86.8989 18,-56 24.6788,-41.1573 38.1591,-27.8877 47.841,-19.6699"/>
<polygon fill="midnightblue" stroke="midnightblue" points="42.5238,-221.755 52.7624,-224.479 46.4575,-215.965 42.5238,-221.755"/>
</g>
<!-- Node9 -->
<g id="node9" class="node"><title>Node9</title>
<g id="a_node9"><a xlink:href="canvas__primitives_8cpp.html" target="_top" xlink:title="src/canvas_primitives.cpp">
<polygon fill="none" stroke="black" points="128.5,-168.5 128.5,-187.5 259.5,-187.5 259.5,-168.5 128.5,-168.5"/>
<text text-anchor="middle" x="194" y="-175.5" font-family="Helvetica,sans-Serif" font-size="10.00">src/canvas_primitives.cpp</text>
</a>
</g>
</g>
<!-- Node1&#45;&gt;Node9 -->
<g id="edge11" class="edge"><title>Node1&#45;&gt;Node9</title>
<path fill="none" stroke="midnightblue" d="M97.1597,-220.503C120.781,-210.38 153.428,-196.388 174.128,-187.516"/>
<polygon fill="midnightblue" stroke="midnightblue" points="95.7778,-217.287 87.9651,-224.444 98.5353,-223.721 95.7778,-217.287"/>
</g>
<!-- Node3 -->
<g id="node3" class="node"><title>Node3</title>
<g id="a_node3"><a xlink:href="controller_8h.html" target="_top" xlink:title="include/controller.h">
<polygon fill="none" stroke="black" points="170,-56.5 170,-75.5 268,-75.5 268,-56.5 170,-56.5"/>
<text text-anchor="middle" x="219" y="-63.5" font-family="Helvetica,sans-Serif" font-size="10.00">include/controller.h</text>
</a>
</g>
</g>
<!-- Node2&#45;&gt;Node3 -->
<g id="edge2" class="edge"><title>Node2&#45;&gt;Node3</title>
<path fill="none" stroke="midnightblue" d="M120.841,-167.004C157.251,-158.977 201.131,-146.648 213,-132 226.127,-115.799 223.484,-89.3076 220.958,-75.688"/>
<polygon fill="midnightblue" stroke="midnightblue" points="119.848,-163.638 110.802,-169.153 121.313,-170.483 119.848,-163.638"/>
</g>
<!-- Node2&#45;&gt;Node5 -->
<g id="edge9" class="edge"><title>Node2&#45;&gt;Node5</title>
<path fill="none" stroke="midnightblue" d="M45.3648,-162.257C35.6195,-154.541 25.2681,-144.16 20,-132 2.3644,-91.293 36.4645,-39.9158 51.931,-19.7186"/>
<polygon fill="midnightblue" stroke="midnightblue" points="43.499,-165.229 53.6299,-168.33 47.644,-159.588 43.499,-165.229"/>
</g>
<!-- Node6 -->
<g id="node6" class="node"><title>Node6</title>
<g id="a_node6"><a xlink:href="view_8h.html" target="_top" xlink:title="include/view.h">
<polygon fill="none" stroke="black" points="125.5,-112.5 125.5,-131.5 204.5,-131.5 204.5,-112.5 125.5,-112.5"/>
<text text-anchor="middle" x="165" y="-119.5" font-family="Helvetica,sans-Serif" font-size="10.00">include/view.h</text>
</a>
</g>
</g>
<!-- Node2&#45;&gt;Node6 -->
<g id="edge5" class="edge"><title>Node2&#45;&gt;Node6</title>
<path fill="none" stroke="midnightblue" d="M92.3352,-163.453C110.243,-153.483 134.054,-140.228 149.454,-131.655"/>
<polygon fill="midnightblue" stroke="midnightblue" points="90.6196,-160.402 83.5847,-168.324 94.0245,-166.518 90.6196,-160.402"/>
</g>
<!-- Node8 -->
<g id="node8" class="node"><title>Node8</title>
<g id="a_node8"><a xlink:href="model_8cpp.html" target="_top" xlink:title="src/model.cpp">
<polygon fill="none" stroke="black" points="29,-112.5 29,-131.5 107,-131.5 107,-112.5 29,-112.5"/>
<text text-anchor="middle" x="68" y="-119.5" font-family="Helvetica,sans-Serif" font-size="10.00">src/model.cpp</text>
</a>
</g>
</g>
<!-- Node2&#45;&gt;Node8 -->
<g id="edge10" class="edge"><title>Node2&#45;&gt;Node8</title>
<path fill="none" stroke="midnightblue" d="M68,-157.805C68,-148.91 68,-138.78 68,-131.751"/>
<polygon fill="midnightblue" stroke="midnightblue" points="64.5001,-158.083 68,-168.083 71.5001,-158.083 64.5001,-158.083"/>
</g>
<!-- Node4 -->
<g id="node4" class="node"><title>Node4</title>
<g id="a_node4"><a xlink:href="controller_8cpp.html" target="_top" xlink:title="src/controller.cpp">
<polygon fill="none" stroke="black" points="173,-0.5 173,-19.5 265,-19.5 265,-0.5 173,-0.5"/>
<text text-anchor="middle" x="219" y="-7.5" font-family="Helvetica,sans-Serif" font-size="10.00">src/controller.cpp</text>
</a>
</g>
</g>
<!-- Node3&#45;&gt;Node4 -->
<g id="edge3" class="edge"><title>Node3&#45;&gt;Node4</title>
<path fill="none" stroke="midnightblue" d="M219,-45.8045C219,-36.9102 219,-26.7798 219,-19.7511"/>
<polygon fill="midnightblue" stroke="midnightblue" points="215.5,-46.083 219,-56.083 222.5,-46.083 215.5,-46.083"/>
</g>
<!-- Node3&#45;&gt;Node5 -->
<g id="edge4" class="edge"><title>Node3&#45;&gt;Node5</title>
<path fill="none" stroke="midnightblue" d="M183.954,-53.172C153.826,-43.0039 111.104,-28.5852 84.2339,-19.5164"/>
<polygon fill="midnightblue" stroke="midnightblue" points="183.053,-56.5619 193.648,-56.4435 185.292,-49.9295 183.053,-56.5619"/>
</g>
<!-- Node6&#45;&gt;Node3 -->
<g id="edge6" class="edge"><title>Node6&#45;&gt;Node3</title>
<path fill="none" stroke="midnightblue" d="M180.998,-105.002C190.567,-95.4329 202.361,-83.6389 210.249,-75.7511"/>
<polygon fill="midnightblue" stroke="midnightblue" points="178.513,-102.537 173.917,-112.083 183.463,-107.487 178.513,-102.537"/>
</g>
<!-- Node6&#45;&gt;Node5 -->
<g id="edge7" class="edge"><title>Node6&#45;&gt;Node5</title>
<path fill="none" stroke="midnightblue" d="M156.002,-103.271C148.418,-89.4116 136.639,-70.1833 123,-56 108.501,-40.9224 88.2863,-27.7006 74.4791,-19.558"/>
<polygon fill="midnightblue" stroke="midnightblue" points="152.986,-105.055 160.749,-112.265 159.176,-101.787 152.986,-105.055"/>
</g>
<!-- Node7 -->
<g id="node7" class="node"><title>Node7</title>
<g id="a_node7"><a xlink:href="view_8cpp.html" target="_top" xlink:title="src/view.cpp">
<polygon fill="none" stroke="black" points="42,-56.5 42,-75.5 114,-75.5 114,-56.5 42,-56.5"/>
<text text-anchor="middle" x="78" y="-63.5" font-family="Helvetica,sans-Serif" font-size="10.00">src/view.cpp</text>
</a>
</g>
</g>
<!-- Node6&#45;&gt;Node7 -->
<g id="edge8" class="edge"><title>Node6&#45;&gt;Node7</title>
<path fill="none" stroke="midnightblue" d="M142.284,-106.901C126.331,-96.9986 105.503,-84.0705 91.9434,-75.6545"/>
<polygon fill="midnightblue" stroke="midnightblue" points="140.68,-110.024 151.022,-112.324 144.371,-104.077 140.68,-110.024"/>
</g>
</g>
</svg>
