<?xml version="1.0" encoding="UTF-8" standalone="no"?>
<!DOCTYPE svg PUBLIC "-//W3C//DTD SVG 1.1//EN"
 "http://www.w3.org/Graphics/SVG/1.1/DTD/svg11.dtd">
<!-- Generated by graphviz version 2.36.0 (20140111.2315)
 -->
<!-- Title: editor::figures::Circle Pages: 1 -->
<svg width="162pt" height="216pt"
 viewBox="0.00 0.00 162.00 216.00" xmlns="http://www.w3.org/2000/svg" xmlns:xlink="http://www.w3.org/1999/xlink">
<g id="graph0" class="graph" transform="scale(1 1) rotate(0) translate(4 212)">
<title>editor::figures::Circle</title>
<!-- Node1 -->
<g id="node1" class="node"><title>Node1</title>
<polygon fill="#bfbfbf" stroke="black" points="23.5,-1 23.5,-69 130.5,-69 130.5,-1 23.5,-1"/>
<text text-anchor="middle" x="77" y="-57" font-family="Helvetica,sans-Serif" font-size="10.00">editor::figures::Circle</text>
<polyline fill="none" stroke="black" points="23.5,-50 130.5,-50 "/>
<text text-anchor="middle" x="77" y="-38" font-family="Helvetica,sans-Serif" font-size="10.00"> </text>
<polyline fill="none" stroke="black" points="23.5,-31 130.5,-31 "/>
<text text-anchor="start" x="31.5" y="-19" font-family="Helvetica,sans-Serif" font-size="10.00">+ Circle()</text>
<text text-anchor="start" x="31.5" y="-8" font-family="Helvetica,sans-Serif" font-size="10.00">+ render()</text>
</g>
<!-- Node2 -->
<g id="node2" class="node"><title>Node2</title>
<g id="a_node2"><a xlink:href="classeditor_1_1figures_1_1_canvas_primitive.html" target="_top" xlink:title="{editor::figures::CanvasPrimitive\n||+ CanvasPrimitive()\l+ CanvasPrimitive()\l+ CanvasPrimitive()\l+ move_to_z_index()\l+ render()\l}">
<polygon fill="none" stroke="black" points="0,-106.5 0,-207.5 154,-207.5 154,-106.5 0,-106.5"/>
<text text-anchor="middle" x="77" y="-195.5" font-family="Helvetica,sans-Serif" font-size="10.00">editor::figures::CanvasPrimitive</text>
<polyline fill="none" stroke="black" points="0,-188.5 154,-188.5 "/>
<text text-anchor="middle" x="77" y="-176.5" font-family="Helvetica,sans-Serif" font-size="10.00"> </text>
<polyline fill="none" stroke="black" points="0,-169.5 154,-169.5 "/>
<text text-anchor="start" x="8" y="-157.5" font-family="Helvetica,sans-Serif" font-size="10.00">+ CanvasPrimitive()</text>
<text text-anchor="start" x="8" y="-146.5" font-family="Helvetica,sans-Serif" font-size="10.00">+ CanvasPrimitive()</text>
<text text-anchor="start" x="8" y="-135.5" font-family="Helvetica,sans-Serif" font-size="10.00">+ CanvasPrimitive()</text>
<text text-anchor="start" x="8" y="-124.5" font-family="Helvetica,sans-Serif" font-size="10.00">+ move_to_z_index()</text>
<text text-anchor="start" x="8" y="-113.5" font-family="Helvetica,sans-Serif" font-size="10.00">+ render()</text>
</a>
</g>
</g>
<!-- Node2&#45;&gt;Node1 -->
<g id="edge1" class="edge"><title>Node2&#45;&gt;Node1</title>
<path fill="none" stroke="midnightblue" d="M77,-96.4271C77,-87.1013 77,-77.7617 77,-69.3096"/>
<polygon fill="none" stroke="midnightblue" points="73.5001,-96.4986 77,-106.499 80.5001,-96.4986 73.5001,-96.4986"/>
</g>
</g>
</svg>
