<?xml version="1.0" encoding="UTF-8" standalone="no"?>
<!DOCTYPE svg PUBLIC "-//W3C//DTD SVG 1.1//EN"
 "http://www.w3.org/Graphics/SVG/1.1/DTD/svg11.dtd">
<!-- Generated by graphviz version 2.36.0 (20140111.2315)
 -->
<!-- Title: editor::figures::CanvasPrimitive Pages: 1 -->
<!--zoomable 248 -->
<svg id="main" version="1.1" xmlns="http://www.w3.org/2000/svg" xmlns:xlink="http://www.w3.org/1999/xlink" xml:space="preserve" onload="init(evt)">
<style type="text/css"><![CDATA[
.edge:hover path { stroke: red; }
.edge:hover polygon { stroke: red; fill: red; }
]]></style>
<script type="text/javascript"><![CDATA[
var edges = document.getElementsByTagName('g');
if (edges && edges.length) {
  for (var i=0;i<edges.length;i++) {
    if (edges[i].id.substr(0,4)=='edge') {
      edges[i].setAttribute('class','edge');
    }
  }
}
]]></script>
        <defs>
                <circle id="rim" cx="0" cy="0" r="7"/>
                <circle id="rim2" cx="0" cy="0" r="3.5"/>
                <g id="zoomPlus">
                        <use xlink:href="#rim" fill="#404040">
                                <set attributeName="fill" to="#808080" begin="zoomplus.mouseover" end="zoomplus.mouseout"/>
                        </use>
                        <path d="M-4,0h8M0,-4v8" fill="none" stroke="white" stroke-width="1.5" pointer-events="none"/>
                </g>
                <g id="zoomMin">
                        <use xlink:href="#rim" fill="#404040">
                                <set attributeName="fill" to="#808080" begin="zoomminus.mouseover" end="zoomminus.mouseout"/>
                        </use>
                        <path d="M-4,0h8" fill="none" stroke="white" stroke-width="1.5" pointer-events="none"/>
                </g>
                <g id="dirArrow">
                        <path fill="none" stroke="white" stroke-width="1.5" d="M0,-3.0v7 M-2.5,-0.5L0,-3.0L2.5,-0.5"/>
                </g>
               <g id="resetDef">
                       <use xlink:href="#rim2" fill="#404040">
                               <set attributeName="fill" to="#808080" begin="reset.mouseover" end="reset.mouseout"/>
                       </use>
               </g>
        </defs>

<script type="text/javascript">
var viewWidth = 513;
var viewHeight = 248;
var sectionId = 'dynsection-0';
</script>
<script xlink:href="svgpan.js"/>
<svg id="graph" class="graph">
<g id="viewport">
<title>editor::figures::CanvasPrimitive</title>
<!-- Node1 -->
<g id="node1" class="node"><title>Node1</title>
<polygon fill="#bfbfbf" stroke="black" points="161,-138.5 161,-239.5 315,-239.5 315,-138.5 161,-138.5"/>
<text text-anchor="middle" x="238" y="-227.5" font-family="Helvetica,sans-Serif" font-size="10.00">editor::figures::CanvasPrimitive</text>
<polyline fill="none" stroke="black" points="161,-220.5 315,-220.5 "/>
<text text-anchor="middle" x="238" y="-208.5" font-family="Helvetica,sans-Serif" font-size="10.00"> </text>
<polyline fill="none" stroke="black" points="161,-201.5 315,-201.5 "/>
<text text-anchor="start" x="169" y="-189.5" font-family="Helvetica,sans-Serif" font-size="10.00">+ CanvasPrimitive()</text>
<text text-anchor="start" x="169" y="-178.5" font-family="Helvetica,sans-Serif" font-size="10.00">+ CanvasPrimitive()</text>
<text text-anchor="start" x="169" y="-167.5" font-family="Helvetica,sans-Serif" font-size="10.00">+ CanvasPrimitive()</text>
<text text-anchor="start" x="169" y="-156.5" font-family="Helvetica,sans-Serif" font-size="10.00">+ move_to_z_index()</text>
<text text-anchor="start" x="169" y="-145.5" font-family="Helvetica,sans-Serif" font-size="10.00">+ render()</text>
</g>
<!-- Node2 -->
<g id="node2" class="node"><title>Node2</title>
<g id="a_node2"><a xlink:href="classeditor_1_1figures_1_1_circle.html" target="_top" xlink:title="{editor::figures::Circle\n||+ Circle()\l+ render()\l}">
<polygon fill="none" stroke="black" points="-0.5,-17 -0.5,-85 106.5,-85 106.5,-17 -0.5,-17"/>
<text text-anchor="middle" x="53" y="-73" font-family="Helvetica,sans-Serif" font-size="10.00">editor::figures::Circle</text>
<polyline fill="none" stroke="black" points="-0.5,-66 106.5,-66 "/>
<text text-anchor="middle" x="53" y="-54" font-family="Helvetica,sans-Serif" font-size="10.00"> </text>
<polyline fill="none" stroke="black" points="-0.5,-47 106.5,-47 "/>
<text text-anchor="start" x="7.5" y="-35" font-family="Helvetica,sans-Serif" font-size="10.00">+ Circle()</text>
<text text-anchor="start" x="7.5" y="-24" font-family="Helvetica,sans-Serif" font-size="10.00">+ render()</text>
</a>
</g>
</g>
<!-- Node1&#45;&gt;Node2 -->
<g id="edge1" class="edge"><title>Node1&#45;&gt;Node2</title>
<path fill="none" stroke="midnightblue" d="M157.982,-132.571C143.893,-122.534 129.441,-112.059 116,-102 108.845,-96.6456 101.33,-90.8434 94.0821,-85.1519"/>
<polygon fill="none" stroke="midnightblue" points="156.046,-135.488 166.226,-138.424 160.098,-129.781 156.046,-135.488"/>
</g>
<!-- Node3 -->
<g id="node3" class="node"><title>Node3</title>
<g id="a_node3"><a xlink:href="classeditor_1_1figures_1_1_line.html" target="_top" xlink:title="{editor::figures::Line\n||+ Line()\l+ render()\l}">
<polygon fill="none" stroke="black" points="125,-17 125,-85 225,-85 225,-17 125,-17"/>
<text text-anchor="middle" x="175" y="-73" font-family="Helvetica,sans-Serif" font-size="10.00">editor::figures::Line</text>
<polyline fill="none" stroke="black" points="125,-66 225,-66 "/>
<text text-anchor="middle" x="175" y="-54" font-family="Helvetica,sans-Serif" font-size="10.00"> </text>
<polyline fill="none" stroke="black" points="125,-47 225,-47 "/>
<text text-anchor="start" x="133" y="-35" font-family="Helvetica,sans-Serif" font-size="10.00">+ Line()</text>
<text text-anchor="start" x="133" y="-24" font-family="Helvetica,sans-Serif" font-size="10.00">+ render()</text>
</a>
</g>
</g>
<!-- Node1&#45;&gt;Node3 -->
<g id="edge2" class="edge"><title>Node1&#45;&gt;Node3</title>
<path fill="none" stroke="midnightblue" d="M210.638,-128.934C203.72,-113.999 196.531,-98.4793 190.437,-85.3237"/>
<polygon fill="none" stroke="midnightblue" points="207.52,-130.528 214.899,-138.131 213.871,-127.586 207.52,-130.528"/>
</g>
<!-- Node4 -->
<g id="node4" class="node"><title>Node4</title>
<g id="a_node4"><a xlink:href="classeditor_1_1figures_1_1_polygon.html" target="_top" xlink:title="{editor::figures::Polygon\n||+ Polygon()\l+ Polygon()\l+ Polygon()\l+ add_point()\l+ render()\l}">
<polygon fill="none" stroke="black" points="243.5,-0.5 243.5,-101.5 360.5,-101.5 360.5,-0.5 243.5,-0.5"/>
<text text-anchor="middle" x="302" y="-89.5" font-family="Helvetica,sans-Serif" font-size="10.00">editor::figures::Polygon</text>
<polyline fill="none" stroke="black" points="243.5,-82.5 360.5,-82.5 "/>
<text text-anchor="middle" x="302" y="-70.5" font-family="Helvetica,sans-Serif" font-size="10.00"> </text>
<polyline fill="none" stroke="black" points="243.5,-63.5 360.5,-63.5 "/>
<text text-anchor="start" x="251.5" y="-51.5" font-family="Helvetica,sans-Serif" font-size="10.00">+ Polygon()</text>
<text text-anchor="start" x="251.5" y="-40.5" font-family="Helvetica,sans-Serif" font-size="10.00">+ Polygon()</text>
<text text-anchor="start" x="251.5" y="-29.5" font-family="Helvetica,sans-Serif" font-size="10.00">+ Polygon()</text>
<text text-anchor="start" x="251.5" y="-18.5" font-family="Helvetica,sans-Serif" font-size="10.00">+ add_point()</text>
<text text-anchor="start" x="251.5" y="-7.5" font-family="Helvetica,sans-Serif" font-size="10.00">+ render()</text>
</a>
</g>
</g>
<!-- Node1&#45;&gt;Node4 -->
<g id="edge3" class="edge"><title>Node1&#45;&gt;Node4</title>
<path fill="none" stroke="midnightblue" d="M265.834,-128.854C270.07,-119.852 274.405,-110.64 278.535,-101.863"/>
<polygon fill="none" stroke="midnightblue" points="262.559,-127.592 261.468,-138.131 268.893,-130.573 262.559,-127.592"/>
</g>
<!-- Node5 -->
<g id="node5" class="node"><title>Node5</title>
<g id="a_node5"><a xlink:href="classeditor_1_1figures_1_1_rectangle.html" target="_top" xlink:title="{editor::figures::Rectangle\n||+ Rectangle()\l+ render()\l}">
<polygon fill="none" stroke="black" points="379,-17 379,-85 505,-85 505,-17 379,-17"/>
<text text-anchor="middle" x="442" y="-73" font-family="Helvetica,sans-Serif" font-size="10.00">editor::figures::Rectangle</text>
<polyline fill="none" stroke="black" points="379,-66 505,-66 "/>
<text text-anchor="middle" x="442" y="-54" font-family="Helvetica,sans-Serif" font-size="10.00"> </text>
<polyline fill="none" stroke="black" points="379,-47 505,-47 "/>
<text text-anchor="start" x="387" y="-35" font-family="Helvetica,sans-Serif" font-size="10.00">+ Rectangle()</text>
<text text-anchor="start" x="387" y="-24" font-family="Helvetica,sans-Serif" font-size="10.00">+ render()</text>
</a>
</g>
</g>
<!-- Node1&#45;&gt;Node5 -->
<g id="edge4" class="edge"><title>Node1&#45;&gt;Node5</title>
<path fill="none" stroke="midnightblue" d="M322.559,-132.836C338.043,-122.636 354.034,-112.036 369,-102 377.038,-96.6098 385.54,-90.8445 393.792,-85.2152"/>
<polygon fill="none" stroke="midnightblue" points="320.449,-130.035 314.019,-138.456 324.297,-135.883 320.449,-130.035"/>
</g>
</g>
</svg>
        <g id="navigator" transform="translate(0 0)" fill="#404254">
                <rect fill="#f2f5e9" fill-opacity="0.5" stroke="#606060" stroke-width=".5" x="0" y="0" width="60" height="60"/>
                <use id="zoomplus" xlink:href="#zoomPlus" x="17" y="9" onmousedown="handleZoom(evt,'in')"/>
                <use id="zoomminus" xlink:href="#zoomMin" x="42" y="9" onmousedown="handleZoom(evt,'out')"/>
                <use id="reset" xlink:href="#resetDef" x="30" y="36" onmousedown="handleReset()"/>
                <g id="arrowUp" xlink:href="#dirArrow" transform="translate(30 24)" onmousedown="handlePan(0,-1)">
                  <use xlink:href="#rim" fill="#404040">
                        <set attributeName="fill" to="#808080" begin="arrowUp.mouseover" end="arrowUp.mouseout"/>
                  </use>
                  <path fill="none" stroke="white" stroke-width="1.5" d="M0,-3.0v7 M-2.5,-0.5L0,-3.0L2.5,-0.5"/>
                </g>
                <g id="arrowRight" xlink:href="#dirArrow" transform="rotate(90) translate(36 -43)" onmousedown="handlePan(1,0)">
                  <use xlink:href="#rim" fill="#404040">
                        <set attributeName="fill" to="#808080" begin="arrowRight.mouseover" end="arrowRight.mouseout"/>
                  </use>
                  <path fill="none" stroke="white" stroke-width="1.5" d="M0,-3.0v7 M-2.5,-0.5L0,-3.0L2.5,-0.5"/>
                </g>
                <g id="arrowDown" xlink:href="#dirArrow" transform="rotate(180) translate(-30 -48)" onmousedown="handlePan(0,1)">
                  <use xlink:href="#rim" fill="#404040">
                        <set attributeName="fill" to="#808080" begin="arrowDown.mouseover" end="arrowDown.mouseout"/>
                  </use>
                  <path fill="none" stroke="white" stroke-width="1.5" d="M0,-3.0v7 M-2.5,-0.5L0,-3.0L2.5,-0.5"/>
                </g>
                <g id="arrowLeft" xlink:href="#dirArrow" transform="rotate(270) translate(-36 17)" onmousedown="handlePan(-1,0)">
                  <use xlink:href="#rim" fill="#404040">
                        <set attributeName="fill" to="#808080" begin="arrowLeft.mouseover" end="arrowLeft.mouseout"/>
                  </use>
                  <path fill="none" stroke="white" stroke-width="1.5" d="M0,-3.0v7 M-2.5,-0.5L0,-3.0L2.5,-0.5"/>
                </g>
        </g>
        <svg viewBox="0 0 15 15" width="100%" height="30px" preserveAspectRatio="xMaxYMin meet">
         <g id="arrow_out" transform="scale(0.3 0.3)">
          <a xlink:href="classeditor_1_1figures_1_1_canvas_primitive__inherit__graph_org.svg" target="_base">
           <rect id="button" ry="5" rx="5" y="6" x="6" height="38" width="38"
                fill="#f2f5e9" fill-opacity="0.5" stroke="#606060" stroke-width="1.0"/>
           <path id="arrow"
             d="M 11.500037,31.436501 C 11.940474,20.09759 22.043105,11.32322 32.158766,21.979434 L 37.068811,17.246167 C 37.068811,17.246167 37.088388,32 37.088388,32 L 22.160133,31.978069 C 22.160133,31.978069 26.997745,27.140456 26.997745,27.140456 C 18.528582,18.264221 13.291696,25.230495 11.500037,31.436501 z"
             style="fill:#404040;"/>
          </a>
         </g>
        </svg>
</svg>
