<?xml version="1.0" encoding="UTF-8" standalone="no"?>
<!DOCTYPE svg PUBLIC "-//W3C//DTD SVG 1.1//EN"
 "http://www.w3.org/Graphics/SVG/1.1/DTD/svg11.dtd">
<!-- Generated by graphviz version 2.36.0 (20140111.2315)
 -->
<!-- Title: editor::figures::CanvasPrimitive Pages: 1 -->
<svg width="530pt" height="248pt"
 viewBox="0.00 0.00 530.00 248.00" xmlns="http://www.w3.org/2000/svg" xmlns:xlink="http://www.w3.org/1999/xlink">
<g id="graph0" class="graph" transform="scale(1 1) rotate(0) translate(4 244)">
<title>editor::figures::CanvasPrimitive</title>
<!-- Node1 -->
<g id="node1" class="node"><title>Node1</title>
<polygon fill="#bfbfbf" stroke="black" points="175,-138.5 175,-239.5 329,-239.5 329,-138.5 175,-138.5"/>
<text text-anchor="middle" x="252" y="-227.5" font-family="Helvetica,sans-Serif" font-size="10.00">editor::figures::CanvasPrimitive</text>
<polyline fill="none" stroke="black" points="175,-220.5 329,-220.5 "/>
<text text-anchor="middle" x="252" y="-208.5" font-family="Helvetica,sans-Serif" font-size="10.00"> </text>
<polyline fill="none" stroke="black" points="175,-201.5 329,-201.5 "/>
<text text-anchor="start" x="183" y="-189.5" font-family="Helvetica,sans-Serif" font-size="10.00">+ CanvasPrimitive()</text>
<text text-anchor="start" x="183" y="-178.5" font-family="Helvetica,sans-Serif" font-size="10.00">+ CanvasPrimitive()</text>
<text text-anchor="start" x="183" y="-167.5" font-family="Helvetica,sans-Serif" font-size="10.00">+ CanvasPrimitive()</text>
<text text-anchor="start" x="183" y="-156.5" font-family="Helvetica,sans-Serif" font-size="10.00">+ move_to_z_index()</text>
<text text-anchor="start" x="183" y="-145.5" font-family="Helvetica,sans-Serif" font-size="10.00">+ get_representation()</text>
</g>
<!-- Node2 -->
<g id="node2" class="node"><title>Node2</title>
<g id="a_node2"><a xlink:href="classeditor_1_1figures_1_1_circle.html" target="_top" xlink:title="{editor::figures::Circle\n||+ Circle()\l+ get_representation()\l}">
<polygon fill="none" stroke="black" points="0,-17 0,-85 112,-85 112,-17 0,-17"/>
<text text-anchor="middle" x="56" y="-73" font-family="Helvetica,sans-Serif" font-size="10.00">editor::figures::Circle</text>
<polyline fill="none" stroke="black" points="0,-66 112,-66 "/>
<text text-anchor="middle" x="56" y="-54" font-family="Helvetica,sans-Serif" font-size="10.00"> </text>
<polyline fill="none" stroke="black" points="0,-47 112,-47 "/>
<text text-anchor="start" x="8" y="-35" font-family="Helvetica,sans-Serif" font-size="10.00">+ Circle()</text>
<text text-anchor="start" x="8" y="-24" font-family="Helvetica,sans-Serif" font-size="10.00">+ get_representation()</text>
</a>
</g>
</g>
<!-- Node1&#45;&gt;Node2 -->
<g id="edge1" class="edge"><title>Node1&#45;&gt;Node2</title>
<path fill="none" stroke="midnightblue" d="M166.385,-133.118C151.134,-122.967 135.497,-112.312 121,-102 113.459,-96.6357 105.557,-90.7721 97.9637,-85.0085"/>
<polygon fill="none" stroke="midnightblue" points="164.538,-136.093 174.808,-138.699 168.405,-130.258 164.538,-136.093"/>
</g>
<!-- Node3 -->
<g id="node3" class="node"><title>Node3</title>
<g id="a_node3"><a xlink:href="classeditor_1_1figures_1_1_line.html" target="_top" xlink:title="{editor::figures::Line\n||+ Line()\l+ get_representation()\l}">
<polygon fill="none" stroke="black" points="130,-17 130,-85 242,-85 242,-17 130,-17"/>
<text text-anchor="middle" x="186" y="-73" font-family="Helvetica,sans-Serif" font-size="10.00">editor::figures::Line</text>
<polyline fill="none" stroke="black" points="130,-66 242,-66 "/>
<text text-anchor="middle" x="186" y="-54" font-family="Helvetica,sans-Serif" font-size="10.00"> </text>
<polyline fill="none" stroke="black" points="130,-47 242,-47 "/>
<text text-anchor="start" x="138" y="-35" font-family="Helvetica,sans-Serif" font-size="10.00">+ Line()</text>
<text text-anchor="start" x="138" y="-24" font-family="Helvetica,sans-Serif" font-size="10.00">+ get_representation()</text>
</a>
</g>
</g>
<!-- Node1&#45;&gt;Node3 -->
<g id="edge2" class="edge"><title>Node1&#45;&gt;Node3</title>
<path fill="none" stroke="midnightblue" d="M223.336,-128.934C216.088,-113.999 208.556,-98.4793 202.172,-85.3237"/>
<polygon fill="none" stroke="midnightblue" points="220.284,-130.662 227.799,-138.131 226.582,-127.606 220.284,-130.662"/>
</g>
<!-- Node4 -->
<g id="node4" class="node"><title>Node4</title>
<g id="a_node4"><a xlink:href="classeditor_1_1figures_1_1_polygon.html" target="_top" xlink:title="{editor::figures::Polygon\n||+ Polygon()\l+ Polygon()\l+ Polygon()\l+ add_point()\l+ get_representation()\l}">
<polygon fill="none" stroke="black" points="260.5,-0.5 260.5,-101.5 377.5,-101.5 377.5,-0.5 260.5,-0.5"/>
<text text-anchor="middle" x="319" y="-89.5" font-family="Helvetica,sans-Serif" font-size="10.00">editor::figures::Polygon</text>
<polyline fill="none" stroke="black" points="260.5,-82.5 377.5,-82.5 "/>
<text text-anchor="middle" x="319" y="-70.5" font-family="Helvetica,sans-Serif" font-size="10.00"> </text>
<polyline fill="none" stroke="black" points="260.5,-63.5 377.5,-63.5 "/>
<text text-anchor="start" x="268.5" y="-51.5" font-family="Helvetica,sans-Serif" font-size="10.00">+ Polygon()</text>
<text text-anchor="start" x="268.5" y="-40.5" font-family="Helvetica,sans-Serif" font-size="10.00">+ Polygon()</text>
<text text-anchor="start" x="268.5" y="-29.5" font-family="Helvetica,sans-Serif" font-size="10.00">+ Polygon()</text>
<text text-anchor="start" x="268.5" y="-18.5" font-family="Helvetica,sans-Serif" font-size="10.00">+ add_point()</text>
<text text-anchor="start" x="268.5" y="-7.5" font-family="Helvetica,sans-Serif" font-size="10.00">+ get_representation()</text>
</a>
</g>
</g>
<!-- Node1&#45;&gt;Node4 -->
<g id="edge3" class="edge"><title>Node1&#45;&gt;Node4</title>
<path fill="none" stroke="midnightblue" d="M280.998,-129.138C285.477,-120.046 290.066,-110.733 294.435,-101.863"/>
<polygon fill="none" stroke="midnightblue" points="277.848,-127.614 276.568,-138.131 284.127,-130.707 277.848,-127.614"/>
</g>
<!-- Node5 -->
<g id="node5" class="node"><title>Node5</title>
<g id="a_node5"><a xlink:href="classeditor_1_1figures_1_1_rectangle.html" target="_top" xlink:title="{editor::figures::Rectangle\n||+ Rectangle()\l+ get_representation()\l}">
<polygon fill="none" stroke="black" points="396,-17 396,-85 522,-85 522,-17 396,-17"/>
<text text-anchor="middle" x="459" y="-73" font-family="Helvetica,sans-Serif" font-size="10.00">editor::figures::Rectangle</text>
<polyline fill="none" stroke="black" points="396,-66 522,-66 "/>
<text text-anchor="middle" x="459" y="-54" font-family="Helvetica,sans-Serif" font-size="10.00"> </text>
<polyline fill="none" stroke="black" points="396,-47 522,-47 "/>
<text text-anchor="start" x="404" y="-35" font-family="Helvetica,sans-Serif" font-size="10.00">+ Rectangle()</text>
<text text-anchor="start" x="404" y="-24" font-family="Helvetica,sans-Serif" font-size="10.00">+ get_representation()</text>
</a>
</g>
</g>
<!-- Node1&#45;&gt;Node5 -->
<g id="edge4" class="edge"><title>Node1&#45;&gt;Node5</title>
<path fill="none" stroke="midnightblue" d="M337.973,-133.362C353.992,-123.03 370.547,-112.248 386,-102 394.193,-96.5666 402.853,-90.7248 411.233,-85.0186"/>
<polygon fill="none" stroke="midnightblue" points="335.653,-130.694 329.14,-139.05 339.443,-136.579 335.653,-130.694"/>
</g>
</g>
</svg>
