<?xml version="1.0" encoding="UTF-8" standalone="no"?>
<!DOCTYPE svg PUBLIC "-//W3C//DTD SVG 1.1//EN"
 "http://www.w3.org/Graphics/SVG/1.1/DTD/svg11.dtd">
<!-- Generated by graphviz version 2.36.0 (20140111.2315)
 -->
<!-- Title: editor::figures::Polygon Pages: 1 -->
<svg width="162pt" height="248pt"
 viewBox="0.00 0.00 162.00 248.00" xmlns="http://www.w3.org/2000/svg" xmlns:xlink="http://www.w3.org/1999/xlink">
<g id="graph0" class="graph" transform="scale(1 1) rotate(0) translate(4 244)">
<title>editor::figures::Polygon</title>
<!-- Node1 -->
<g id="node1" class="node"><title>Node1</title>
<polygon fill="#bfbfbf" stroke="black" points="18.5,-0.5 18.5,-101.5 135.5,-101.5 135.5,-0.5 18.5,-0.5"/>
<text text-anchor="middle" x="77" y="-89.5" font-family="Helvetica,sans-Serif" font-size="10.00">editor::figures::Polygon</text>
<polyline fill="none" stroke="black" points="18.5,-82.5 135.5,-82.5 "/>
<text text-anchor="middle" x="77" y="-70.5" font-family="Helvetica,sans-Serif" font-size="10.00"> </text>
<polyline fill="none" stroke="black" points="18.5,-63.5 135.5,-63.5 "/>
<text text-anchor="start" x="26.5" y="-51.5" font-family="Helvetica,sans-Serif" font-size="10.00">+ Polygon()</text>
<text text-anchor="start" x="26.5" y="-40.5" font-family="Helvetica,sans-Serif" font-size="10.00">+ Polygon()</text>
<text text-anchor="start" x="26.5" y="-29.5" font-family="Helvetica,sans-Serif" font-size="10.00">+ Polygon()</text>
<text text-anchor="start" x="26.5" y="-18.5" font-family="Helvetica,sans-Serif" font-size="10.00">+ add_point()</text>
<text text-anchor="start" x="26.5" y="-7.5" font-family="Helvetica,sans-Serif" font-size="10.00">+ get_representation()</text>
</g>
<!-- Node2 -->
<g id="node2" class="node"><title>Node2</title>
<g id="a_node2"><a xlink:href="classeditor_1_1figures_1_1_canvas_primitive.html" target="_top" xlink:title="{editor::figures::CanvasPrimitive\n||+ CanvasPrimitive()\l+ CanvasPrimitive()\l+ CanvasPrimitive()\l+ move_to_z_index()\l+ get_representation()\l}">
<polygon fill="none" stroke="black" points="0,-138.5 0,-239.5 154,-239.5 154,-138.5 0,-138.5"/>
<text text-anchor="middle" x="77" y="-227.5" font-family="Helvetica,sans-Serif" font-size="10.00">editor::figures::CanvasPrimitive</text>
<polyline fill="none" stroke="black" points="0,-220.5 154,-220.5 "/>
<text text-anchor="middle" x="77" y="-208.5" font-family="Helvetica,sans-Serif" font-size="10.00"> </text>
<polyline fill="none" stroke="black" points="0,-201.5 154,-201.5 "/>
<text text-anchor="start" x="8" y="-189.5" font-family="Helvetica,sans-Serif" font-size="10.00">+ CanvasPrimitive()</text>
<text text-anchor="start" x="8" y="-178.5" font-family="Helvetica,sans-Serif" font-size="10.00">+ CanvasPrimitive()</text>
<text text-anchor="start" x="8" y="-167.5" font-family="Helvetica,sans-Serif" font-size="10.00">+ CanvasPrimitive()</text>
<text text-anchor="start" x="8" y="-156.5" font-family="Helvetica,sans-Serif" font-size="10.00">+ move_to_z_index()</text>
<text text-anchor="start" x="8" y="-145.5" font-family="Helvetica,sans-Serif" font-size="10.00">+ get_representation()</text>
</a>
</g>
</g>
<!-- Node2&#45;&gt;Node1 -->
<g id="edge1" class="edge"><title>Node2&#45;&gt;Node1</title>
<path fill="none" stroke="midnightblue" d="M77,-128C77,-119.271 77,-110.363 77,-101.863"/>
<polygon fill="none" stroke="midnightblue" points="73.5001,-128.131 77,-138.131 80.5001,-128.131 73.5001,-128.131"/>
</g>
</g>
</svg>
