<?xml version="1.0" encoding="UTF-8" standalone="no"?>
<!DOCTYPE svg PUBLIC "-//W3C//DTD SVG 1.1//EN"
 "http://www.w3.org/Graphics/SVG/1.1/DTD/svg11.dtd">
<!-- Generated by graphviz version 2.36.0 (20140111.2315)
 -->
<!-- Title: editor::Polygon Pages: 1 -->
<svg width="126pt" height="226pt"
 viewBox="0.00 0.00 126.00 226.00" xmlns="http://www.w3.org/2000/svg" xmlns:xlink="http://www.w3.org/1999/xlink">
<g id="graph0" class="graph" transform="scale(1 1) rotate(0) translate(4 222)">
<title>editor::Polygon</title>
<!-- Node1 -->
<g id="node1" class="node"><title>Node1</title>
<polygon fill="#bfbfbf" stroke="black" points="18,-0.5 18,-57.5 100,-57.5 100,-0.5 18,-0.5"/>
<text text-anchor="middle" x="59" y="-45.5" font-family="Helvetica,sans-Serif" font-size="10.00">editor::Polygon</text>
<polyline fill="none" stroke="black" points="18,-38.5 100,-38.5 "/>
<text text-anchor="middle" x="59" y="-26.5" font-family="Helvetica,sans-Serif" font-size="10.00"> </text>
<polyline fill="none" stroke="black" points="18,-19.5 100,-19.5 "/>
<text text-anchor="middle" x="59" y="-7.5" font-family="Helvetica,sans-Serif" font-size="10.00"> </text>
</g>
<!-- Node2 -->
<g id="node2" class="node"><title>Node2</title>
<g id="a_node2"><a xlink:href="classeditor_1_1_canvas_primitive.html" target="_top" xlink:title="{editor::CanvasPrimitive\n||+ CanvasPrimitive()\l+ CanvasPrimitive()\l+ CanvasPrimitive()\l+ move_to_z_index()\l+ render()\l+ serialize()\l+ deserialize()\l}">
<polygon fill="none" stroke="black" points="-0.5,-94.5 -0.5,-217.5 118.5,-217.5 118.5,-94.5 -0.5,-94.5"/>
<text text-anchor="middle" x="59" y="-205.5" font-family="Helvetica,sans-Serif" font-size="10.00">editor::CanvasPrimitive</text>
<polyline fill="none" stroke="black" points="-0.5,-198.5 118.5,-198.5 "/>
<text text-anchor="middle" x="59" y="-186.5" font-family="Helvetica,sans-Serif" font-size="10.00"> </text>
<polyline fill="none" stroke="black" points="-0.5,-179.5 118.5,-179.5 "/>
<text text-anchor="start" x="7.5" y="-167.5" font-family="Helvetica,sans-Serif" font-size="10.00">+ CanvasPrimitive()</text>
<text text-anchor="start" x="7.5" y="-156.5" font-family="Helvetica,sans-Serif" font-size="10.00">+ CanvasPrimitive()</text>
<text text-anchor="start" x="7.5" y="-145.5" font-family="Helvetica,sans-Serif" font-size="10.00">+ CanvasPrimitive()</text>
<text text-anchor="start" x="7.5" y="-134.5" font-family="Helvetica,sans-Serif" font-size="10.00">+ move_to_z_index()</text>
<text text-anchor="start" x="7.5" y="-123.5" font-family="Helvetica,sans-Serif" font-size="10.00">+ render()</text>
<text text-anchor="start" x="7.5" y="-112.5" font-family="Helvetica,sans-Serif" font-size="10.00">+ serialize()</text>
<text text-anchor="start" x="7.5" y="-101.5" font-family="Helvetica,sans-Serif" font-size="10.00">+ deserialize()</text>
</a>
</g>
</g>
<!-- Node2&#45;&gt;Node1 -->
<g id="edge1" class="edge"><title>Node2&#45;&gt;Node1</title>
<path fill="none" stroke="#8b1a1a" d="M59,-84.1384C59,-74.7999 59,-65.715 59,-57.7379"/>
<polygon fill="none" stroke="#8b1a1a" points="55.5001,-84.3308 59,-94.3308 62.5001,-84.3309 55.5001,-84.3308"/>
</g>
</g>
</svg>
