<?xml version="1.0" encoding="UTF-8" standalone="no"?>
<!DOCTYPE svg PUBLIC "-//W3C//DTD SVG 1.1//EN"
 "http://www.w3.org/Graphics/SVG/1.1/DTD/svg11.dtd">
<!-- Generated by graphviz version 2.36.0 (20140111.2315)
 -->
<!-- Title: editor::figures::CanvasPrimitive Pages: 1 -->
<!--zoomable 248 -->
<svg id="main" version="1.1" xmlns="http://www.w3.org/2000/svg" xmlns:xlink="http://www.w3.org/1999/xlink" xml:space="preserve" onload="init(evt)">
<style type="text/css"><![CDATA[
.edge:hover path { stroke: red; }
.edge:hover polygon { stroke: red; fill: red; }
]]></style>
<script type="text/javascript"><![CDATA[
var edges = document.getElementsByTagName('g');
if (edges && edges.length) {
  for (var i=0;i<edges.length;i++) {
    if (edges[i].id.substr(0,4)=='edge') {
      edges[i].setAttribute('class','edge');
    }
  }
}
]]></script>
        <defs>
                <circle id="rim" cx="0" cy="0" r="7"/>
                <circle id="rim2" cx="0" cy="0" r="3.5"/>
                <g id="zoomPlus">
                        <use xlink:href="#rim" fill="#404040">
                                <set attributeName="fill" to="#808080" begin="zoomplus.mouseover" end="zoomplus.mouseout"/>
                        </use>
                        <path d="M-4,0h8M0,-4v8" fill="none" stroke="white" stroke-width="1.5" pointer-events="none"/>
                </g>
                <g id="zoomMin">
                        <use xlink:href="#rim" fill="#404040">
                                <set attributeName="fill" to="#808080" begin="zoomminus.mouseover" end="zoomminus.mouseout"/>
                        </use>
                        <path d="M-4,0h8" fill="none" stroke="white" stroke-width="1.5" pointer-events="none"/>
                </g>
                <g id="dirArrow">
                        <path fill="none" stroke="white" stroke-width="1.5" d="M0,-3.0v7 M-2.5,-0.5L0,-3.0L2.5,-0.5"/>
                </g>
               <g id="resetDef">
                       <use xlink:href="#rim2" fill="#404040">
                               <set attributeName="fill" to="#808080" begin="reset.mouseover" end="reset.mouseout"/>
                       </use>
               </g>
        </defs>

<script type="text/javascript">
var viewWidth = 530;
var viewHeight = 248;
var sectionId = 'dynsection-0';
</script>
<script xlink:href="svgpan.js"/>
<svg id="graph" class="graph">
<g id="viewport">
<title>editor::figures::CanvasPrimitive</title>
<!-- Node1 -->
<g id="node1" class="node"><title>Node1</title>
<polygon fill="#bfbfbf" stroke="black" points="175,-138.5 175,-239.5 329,-239.5 329,-138.5 175,-138.5"/>
<text text-anchor="middle" x="252" y="-227.5" font-family="Helvetica,sans-Serif" font-size="10.00">editor::figures::CanvasPrimitive</text>
<polyline fill="none" stroke="black" points="175,-220.5 329,-220.5 "/>
<text text-anchor="middle" x="252" y="-208.5" font-family="Helvetica,sans-Serif" font-size="10.00"> </text>
<polyline fill="none" stroke="black" points="175,-201.5 329,-201.5 "/>
<text text-anchor="start" x="183" y="-189.5" font-family="Helvetica,sans-Serif" font-size="10.00">+ CanvasPrimitive()</text>
<text text-anchor="start" x="183" y="-178.5" font-family="Helvetica,sans-Serif" font-size="10.00">+ CanvasPrimitive()</text>
<text text-anchor="start" x="183" y="-167.5" font-family="Helvetica,sans-Serif" font-size="10.00">+ CanvasPrimitive()</text>
<text text-anchor="start" x="183" y="-156.5" font-family="Helvetica,sans-Serif" font-size="10.00">+ move_to_z_index()</text>
<text text-anchor="start" x="183" y="-145.5" font-family="Helvetica,sans-Serif" font-size="10.00">+ get_representation()</text>
</g>
<!-- Node2 -->
<g id="node2" class="node"><title>Node2</title>
<g id="a_node2"><a xlink:href="classeditor_1_1figures_1_1_circle.html" target="_top" xlink:title="{editor::figures::Circle\n||+ Circle()\l+ get_representation()\l}">
<polygon fill="none" stroke="black" points="0,-17 0,-85 112,-85 112,-17 0,-17"/>
<text text-anchor="middle" x="56" y="-73" font-family="Helvetica,sans-Serif" font-size="10.00">editor::figures::Circle</text>
<polyline fill="none" stroke="black" points="0,-66 112,-66 "/>
<text text-anchor="middle" x="56" y="-54" font-family="Helvetica,sans-Serif" font-size="10.00"> </text>
<polyline fill="none" stroke="black" points="0,-47 112,-47 "/>
<text text-anchor="start" x="8" y="-35" font-family="Helvetica,sans-Serif" font-size="10.00">+ Circle()</text>
<text text-anchor="start" x="8" y="-24" font-family="Helvetica,sans-Serif" font-size="10.00">+ get_representation()</text>
</a>
</g>
</g>
<!-- Node1&#45;&gt;Node2 -->
<g id="edge1" class="edge"><title>Node1&#45;&gt;Node2</title>
<path fill="none" stroke="midnightblue" d="M166.385,-133.118C151.134,-122.967 135.497,-112.312 121,-102 113.459,-96.6357 105.557,-90.7721 97.9637,-85.0085"/>
<polygon fill="none" stroke="midnightblue" points="164.538,-136.093 174.808,-138.699 168.405,-130.258 164.538,-136.093"/>
</g>
<!-- Node3 -->
<g id="node3" class="node"><title>Node3</title>
<g id="a_node3"><a xlink:href="classeditor_1_1figures_1_1_line.html" target="_top" xlink:title="{editor::figures::Line\n||+ Line()\l+ get_representation()\l}">
<polygon fill="none" stroke="black" points="130,-17 130,-85 242,-85 242,-17 130,-17"/>
<text text-anchor="middle" x="186" y="-73" font-family="Helvetica,sans-Serif" font-size="10.00">editor::figures::Line</text>
<polyline fill="none" stroke="black" points="130,-66 242,-66 "/>
<text text-anchor="middle" x="186" y="-54" font-family="Helvetica,sans-Serif" font-size="10.00"> </text>
<polyline fill="none" stroke="black" points="130,-47 242,-47 "/>
<text text-anchor="start" x="138" y="-35" font-family="Helvetica,sans-Serif" font-size="10.00">+ Line()</text>
<text text-anchor="start" x="138" y="-24" font-family="Helvetica,sans-Serif" font-size="10.00">+ get_representation()</text>
</a>
</g>
</g>
<!-- Node1&#45;&gt;Node3 -->
<g id="edge2" class="edge"><title>Node1&#45;&gt;Node3</title>
<path fill="none" stroke="midnightblue" d="M223.336,-128.934C216.088,-113.999 208.556,-98.4793 202.172,-85.3237"/>
<polygon fill="none" stroke="midnightblue" points="220.284,-130.662 227.799,-138.131 226.582,-127.606 220.284,-130.662"/>
</g>
<!-- Node4 -->
<g id="node4" class="node"><title>Node4</title>
<g id="a_node4"><a xlink:href="classeditor_1_1figures_1_1_polygon.html" target="_top" xlink:title="{editor::figures::Polygon\n||+ Polygon()\l+ Polygon()\l+ Polygon()\l+ add_point()\l+ get_representation()\l}">
<polygon fill="none" stroke="black" points="260.5,-0.5 260.5,-101.5 377.5,-101.5 377.5,-0.5 260.5,-0.5"/>
<text text-anchor="middle" x="319" y="-89.5" font-family="Helvetica,sans-Serif" font-size="10.00">editor::figures::Polygon</text>
<polyline fill="none" stroke="black" points="260.5,-82.5 377.5,-82.5 "/>
<text text-anchor="middle" x="319" y="-70.5" font-family="Helvetica,sans-Serif" font-size="10.00"> </text>
<polyline fill="none" stroke="black" points="260.5,-63.5 377.5,-63.5 "/>
<text text-anchor="start" x="268.5" y="-51.5" font-family="Helvetica,sans-Serif" font-size="10.00">+ Polygon()</text>
<text text-anchor="start" x="268.5" y="-40.5" font-family="Helvetica,sans-Serif" font-size="10.00">+ Polygon()</text>
<text text-anchor="start" x="268.5" y="-29.5" font-family="Helvetica,sans-Serif" font-size="10.00">+ Polygon()</text>
<text text-anchor="start" x="268.5" y="-18.5" font-family="Helvetica,sans-Serif" font-size="10.00">+ add_point()</text>
<text text-anchor="start" x="268.5" y="-7.5" font-family="Helvetica,sans-Serif" font-size="10.00">+ get_representation()</text>
</a>
</g>
</g>
<!-- Node1&#45;&gt;Node4 -->
<g id="edge3" class="edge"><title>Node1&#45;&gt;Node4</title>
<path fill="none" stroke="midnightblue" d="M280.998,-129.138C285.477,-120.046 290.066,-110.733 294.435,-101.863"/>
<polygon fill="none" stroke="midnightblue" points="277.848,-127.614 276.568,-138.131 284.127,-130.707 277.848,-127.614"/>
</g>
<!-- Node5 -->
<g id="node5" class="node"><title>Node5</title>
<g id="a_node5"><a xlink:href="classeditor_1_1figures_1_1_rectangle.html" target="_top" xlink:title="{editor::figures::Rectangle\n||+ Rectangle()\l+ get_representation()\l}">
<polygon fill="none" stroke="black" points="396,-17 396,-85 522,-85 522,-17 396,-17"/>
<text text-anchor="middle" x="459" y="-73" font-family="Helvetica,sans-Serif" font-size="10.00">editor::figures::Rectangle</text>
<polyline fill="none" stroke="black" points="396,-66 522,-66 "/>
<text text-anchor="middle" x="459" y="-54" font-family="Helvetica,sans-Serif" font-size="10.00"> </text>
<polyline fill="none" stroke="black" points="396,-47 522,-47 "/>
<text text-anchor="start" x="404" y="-35" font-family="Helvetica,sans-Serif" font-size="10.00">+ Rectangle()</text>
<text text-anchor="start" x="404" y="-24" font-family="Helvetica,sans-Serif" font-size="10.00">+ get_representation()</text>
</a>
</g>
</g>
<!-- Node1&#45;&gt;Node5 -->
<g id="edge4" class="edge"><title>Node1&#45;&gt;Node5</title>
<path fill="none" stroke="midnightblue" d="M337.973,-133.362C353.992,-123.03 370.547,-112.248 386,-102 394.193,-96.5666 402.853,-90.7248 411.233,-85.0186"/>
<polygon fill="none" stroke="midnightblue" points="335.653,-130.694 329.14,-139.05 339.443,-136.579 335.653,-130.694"/>
</g>
</g>
</svg>
        <g id="navigator" transform="translate(0 0)" fill="#404254">
                <rect fill="#f2f5e9" fill-opacity="0.5" stroke="#606060" stroke-width=".5" x="0" y="0" width="60" height="60"/>
                <use id="zoomplus" xlink:href="#zoomPlus" x="17" y="9" onmousedown="handleZoom(evt,'in')"/>
                <use id="zoomminus" xlink:href="#zoomMin" x="42" y="9" onmousedown="handleZoom(evt,'out')"/>
                <use id="reset" xlink:href="#resetDef" x="30" y="36" onmousedown="handleReset()"/>
                <g id="arrowUp" xlink:href="#dirArrow" transform="translate(30 24)" onmousedown="handlePan(0,-1)">
                  <use xlink:href="#rim" fill="#404040">
                        <set attributeName="fill" to="#808080" begin="arrowUp.mouseover" end="arrowUp.mouseout"/>
                  </use>
                  <path fill="none" stroke="white" stroke-width="1.5" d="M0,-3.0v7 M-2.5,-0.5L0,-3.0L2.5,-0.5"/>
                </g>
                <g id="arrowRight" xlink:href="#dirArrow" transform="rotate(90) translate(36 -43)" onmousedown="handlePan(1,0)">
                  <use xlink:href="#rim" fill="#404040">
                        <set attributeName="fill" to="#808080" begin="arrowRight.mouseover" end="arrowRight.mouseout"/>
                  </use>
                  <path fill="none" stroke="white" stroke-width="1.5" d="M0,-3.0v7 M-2.5,-0.5L0,-3.0L2.5,-0.5"/>
                </g>
                <g id="arrowDown" xlink:href="#dirArrow" transform="rotate(180) translate(-30 -48)" onmousedown="handlePan(0,1)">
                  <use xlink:href="#rim" fill="#404040">
                        <set attributeName="fill" to="#808080" begin="arrowDown.mouseover" end="arrowDown.mouseout"/>
                  </use>
                  <path fill="none" stroke="white" stroke-width="1.5" d="M0,-3.0v7 M-2.5,-0.5L0,-3.0L2.5,-0.5"/>
                </g>
                <g id="arrowLeft" xlink:href="#dirArrow" transform="rotate(270) translate(-36 17)" onmousedown="handlePan(-1,0)">
                  <use xlink:href="#rim" fill="#404040">
                        <set attributeName="fill" to="#808080" begin="arrowLeft.mouseover" end="arrowLeft.mouseout"/>
                  </use>
                  <path fill="none" stroke="white" stroke-width="1.5" d="M0,-3.0v7 M-2.5,-0.5L0,-3.0L2.5,-0.5"/>
                </g>
        </g>
        <svg viewBox="0 0 15 15" width="100%" height="30px" preserveAspectRatio="xMaxYMin meet">
         <g id="arrow_out" transform="scale(0.3 0.3)">
          <a xlink:href="classeditor_1_1figures_1_1_canvas_primitive__inherit__graph_org.svg" target="_base">
           <rect id="button" ry="5" rx="5" y="6" x="6" height="38" width="38"
                fill="#f2f5e9" fill-opacity="0.5" stroke="#606060" stroke-width="1.0"/>
           <path id="arrow"
             d="M 11.500037,31.436501 C 11.940474,20.09759 22.043105,11.32322 32.158766,21.979434 L 37.068811,17.246167 C 37.068811,17.246167 37.088388,32 37.088388,32 L 22.160133,31.978069 C 22.160133,31.978069 26.997745,27.140456 26.997745,27.140456 C 18.528582,18.264221 13.291696,25.230495 11.500037,31.436501 z"
             style="fill:#404040;"/>
          </a>
         </g>
        </svg>
</svg>
