<?xml version="1.0" encoding="UTF-8" standalone="no"?>
<!DOCTYPE svg PUBLIC "-//W3C//DTD SVG 1.1//EN"
 "http://www.w3.org/Graphics/SVG/1.1/DTD/svg11.dtd">
<!-- Generated by graphviz version 2.36.0 (20140111.2315)
 -->
<!-- Title: editor::CanvasPrimitive Pages: 1 -->
<svg width="373pt" height="226pt"
 viewBox="0.00 0.00 373.00 226.00" xmlns="http://www.w3.org/2000/svg" xmlns:xlink="http://www.w3.org/1999/xlink">
<g id="graph0" class="graph" transform="scale(1 1) rotate(0) translate(4 222)">
<title>editor::CanvasPrimitive</title>
<!-- Node1 -->
<g id="node1" class="node"><title>Node1</title>
<polygon fill="#bfbfbf" stroke="black" points="109.5,-94.5 109.5,-217.5 228.5,-217.5 228.5,-94.5 109.5,-94.5"/>
<text text-anchor="middle" x="169" y="-205.5" font-family="Helvetica,sans-Serif" font-size="10.00">editor::CanvasPrimitive</text>
<polyline fill="none" stroke="black" points="109.5,-198.5 228.5,-198.5 "/>
<text text-anchor="middle" x="169" y="-186.5" font-family="Helvetica,sans-Serif" font-size="10.00"> </text>
<polyline fill="none" stroke="black" points="109.5,-179.5 228.5,-179.5 "/>
<text text-anchor="start" x="117.5" y="-167.5" font-family="Helvetica,sans-Serif" font-size="10.00">+ CanvasPrimitive()</text>
<text text-anchor="start" x="117.5" y="-156.5" font-family="Helvetica,sans-Serif" font-size="10.00">+ CanvasPrimitive()</text>
<text text-anchor="start" x="117.5" y="-145.5" font-family="Helvetica,sans-Serif" font-size="10.00">+ CanvasPrimitive()</text>
<text text-anchor="start" x="117.5" y="-134.5" font-family="Helvetica,sans-Serif" font-size="10.00">+ move_to_z_index()</text>
<text text-anchor="start" x="117.5" y="-123.5" font-family="Helvetica,sans-Serif" font-size="10.00">+ render()</text>
<text text-anchor="start" x="117.5" y="-112.5" font-family="Helvetica,sans-Serif" font-size="10.00">+ serialize()</text>
<text text-anchor="start" x="117.5" y="-101.5" font-family="Helvetica,sans-Serif" font-size="10.00">+ deserialize()</text>
</g>
<!-- Node2 -->
<g id="node2" class="node"><title>Node2</title>
<g id="a_node2"><a xlink:href="classeditor_1_1_circle.html" target="_top" xlink:title="{editor::Circle\n||}">
<polygon fill="none" stroke="black" points="0,-0.5 0,-57.5 72,-57.5 72,-0.5 0,-0.5"/>
<text text-anchor="middle" x="36" y="-45.5" font-family="Helvetica,sans-Serif" font-size="10.00">editor::Circle</text>
<polyline fill="none" stroke="black" points="0,-38.5 72,-38.5 "/>
<text text-anchor="middle" x="36" y="-26.5" font-family="Helvetica,sans-Serif" font-size="10.00"> </text>
<polyline fill="none" stroke="black" points="0,-19.5 72,-19.5 "/>
<text text-anchor="middle" x="36" y="-7.5" font-family="Helvetica,sans-Serif" font-size="10.00"> </text>
</a>
</g>
</g>
<!-- Node1&#45;&gt;Node2 -->
<g id="edge1" class="edge"><title>Node1&#45;&gt;Node2</title>
<path fill="none" stroke="#8b1a1a" d="M101.625,-91.6778C88.8899,-79.7085 76.1974,-67.7795 65.4165,-57.647"/>
<polygon fill="none" stroke="#8b1a1a" points="99.4304,-94.4183 109.114,-98.7164 104.224,-89.3175 99.4304,-94.4183"/>
</g>
<!-- Node3 -->
<g id="node3" class="node"><title>Node3</title>
<g id="a_node3"><a xlink:href="classeditor_1_1_line.html" target="_top" xlink:title="{editor::Line\n||}">
<polygon fill="none" stroke="black" points="90.5,-0.5 90.5,-57.5 155.5,-57.5 155.5,-0.5 90.5,-0.5"/>
<text text-anchor="middle" x="123" y="-45.5" font-family="Helvetica,sans-Serif" font-size="10.00">editor::Line</text>
<polyline fill="none" stroke="black" points="90.5,-38.5 155.5,-38.5 "/>
<text text-anchor="middle" x="123" y="-26.5" font-family="Helvetica,sans-Serif" font-size="10.00"> </text>
<polyline fill="none" stroke="black" points="90.5,-19.5 155.5,-19.5 "/>
<text text-anchor="middle" x="123" y="-7.5" font-family="Helvetica,sans-Serif" font-size="10.00"> </text>
</a>
</g>
</g>
<!-- Node1&#45;&gt;Node3 -->
<g id="edge2" class="edge"><title>Node1&#45;&gt;Node3</title>
<path fill="none" stroke="#8b1a1a" d="M143.142,-84.7348C139.629,-75.187 136.206,-65.8847 133.208,-57.7379"/>
<polygon fill="none" stroke="#8b1a1a" points="139.935,-86.1549 146.674,-94.3308 146.505,-83.7373 139.935,-86.1549"/>
</g>
<!-- Node4 -->
<g id="node4" class="node"><title>Node4</title>
<g id="a_node4"><a xlink:href="classeditor_1_1_polygon.html" target="_top" xlink:title="{editor::Polygon\n||}">
<polygon fill="none" stroke="black" points="174,-0.5 174,-57.5 256,-57.5 256,-0.5 174,-0.5"/>
<text text-anchor="middle" x="215" y="-45.5" font-family="Helvetica,sans-Serif" font-size="10.00">editor::Polygon</text>
<polyline fill="none" stroke="black" points="174,-38.5 256,-38.5 "/>
<text text-anchor="middle" x="215" y="-26.5" font-family="Helvetica,sans-Serif" font-size="10.00"> </text>
<polyline fill="none" stroke="black" points="174,-19.5 256,-19.5 "/>
<text text-anchor="middle" x="215" y="-7.5" font-family="Helvetica,sans-Serif" font-size="10.00"> </text>
</a>
</g>
</g>
<!-- Node1&#45;&gt;Node4 -->
<g id="edge3" class="edge"><title>Node1&#45;&gt;Node4</title>
<path fill="none" stroke="#8b1a1a" d="M194.858,-84.7348C198.371,-75.187 201.794,-65.8847 204.792,-57.7379"/>
<polygon fill="none" stroke="#8b1a1a" points="191.495,-83.7373 191.326,-94.3308 198.065,-86.1549 191.495,-83.7373"/>
</g>
<!-- Node5 -->
<g id="node5" class="node"><title>Node5</title>
<g id="a_node5"><a xlink:href="classeditor_1_1_rectangle.html" target="_top" xlink:title="{editor::Rectangle\n||}">
<polygon fill="none" stroke="black" points="274.5,-0.5 274.5,-57.5 365.5,-57.5 365.5,-0.5 274.5,-0.5"/>
<text text-anchor="middle" x="320" y="-45.5" font-family="Helvetica,sans-Serif" font-size="10.00">editor::Rectangle</text>
<polyline fill="none" stroke="black" points="274.5,-38.5 365.5,-38.5 "/>
<text text-anchor="middle" x="320" y="-26.5" font-family="Helvetica,sans-Serif" font-size="10.00"> </text>
<polyline fill="none" stroke="black" points="274.5,-19.5 365.5,-19.5 "/>
<text text-anchor="middle" x="320" y="-7.5" font-family="Helvetica,sans-Serif" font-size="10.00"> </text>
</a>
</g>
</g>
<!-- Node1&#45;&gt;Node5 -->
<g id="edge4" class="edge"><title>Node1&#45;&gt;Node5</title>
<path fill="none" stroke="#8b1a1a" d="M236.562,-99.071C253.834,-84.7733 271.666,-70.0117 286.389,-57.824"/>
<polygon fill="none" stroke="#8b1a1a" points="234.15,-96.5238 228.679,-105.597 238.614,-101.916 234.15,-96.5238"/>
</g>
</g>
</svg>
