<?xml version="1.0" encoding="UTF-8" standalone="no"?>
<!DOCTYPE svg PUBLIC "-//W3C//DTD SVG 1.1//EN"
 "http://www.w3.org/Graphics/SVG/1.1/DTD/svg11.dtd">
<!-- Generated by graphviz version 2.36.0 (20140111.2315)
 -->
<!-- Title: src/controller.cpp Pages: 1 -->
<svg width="286pt" height="308pt"
 viewBox="0.00 0.00 286.00 308.00" xmlns="http://www.w3.org/2000/svg" xmlns:xlink="http://www.w3.org/1999/xlink">
<g id="graph0" class="graph" transform="scale(1 1) rotate(0) translate(4 304)">
<title>src/controller.cpp</title>
<!-- Node1 -->
<g id="node1" class="node"><title>Node1</title>
<polygon fill="#bfbfbf" stroke="black" points="186,-280.5 186,-299.5 278,-299.5 278,-280.5 186,-280.5"/>
<text text-anchor="middle" x="232" y="-287.5" font-family="Helvetica,sans-Serif" font-size="10.00">src/controller.cpp</text>
</g>
<!-- Node2 -->
<g id="node2" class="node"><title>Node2</title>
<g id="a_node2"><a xlink:href="controller_8h.html" target="_top" xlink:title="controller.h">
<polygon fill="none" stroke="black" points="199.5,-224.5 199.5,-243.5 264.5,-243.5 264.5,-224.5 199.5,-224.5"/>
<text text-anchor="middle" x="232" y="-231.5" font-family="Helvetica,sans-Serif" font-size="10.00">controller.h</text>
</a>
</g>
</g>
<!-- Node1&#45;&gt;Node2 -->
<g id="edge1" class="edge"><title>Node1&#45;&gt;Node2</title>
<path fill="none" stroke="midnightblue" d="M232,-280.083C232,-273.006 232,-262.861 232,-253.986"/>
<polygon fill="midnightblue" stroke="midnightblue" points="235.5,-253.751 232,-243.751 228.5,-253.751 235.5,-253.751"/>
</g>
<!-- Node3 -->
<g id="node3" class="node"><title>Node3</title>
<polygon fill="none" stroke="#bfbfbf" points="224.5,-0.5 224.5,-19.5 265.5,-19.5 265.5,-0.5 224.5,-0.5"/>
<text text-anchor="middle" x="245" y="-7.5" font-family="Helvetica,sans-Serif" font-size="10.00">string</text>
</g>
<!-- Node2&#45;&gt;Node3 -->
<g id="edge2" class="edge"><title>Node2&#45;&gt;Node3</title>
<path fill="none" stroke="midnightblue" d="M240.483,-224.234C248.054,-215.75 258.604,-202.131 263,-188 280.394,-132.089 262.157,-61.9248 251.521,-29.2754"/>
<polygon fill="midnightblue" stroke="midnightblue" points="254.803,-28.0553 248.268,-19.716 248.176,-30.3105 254.803,-28.0553"/>
</g>
<!-- Node4 -->
<g id="node4" class="node"><title>Node4</title>
<g id="a_node4"><a xlink:href="model_8h.html" target="_top" xlink:title="model.h">
<polygon fill="none" stroke="black" points="160.5,-112.5 160.5,-131.5 211.5,-131.5 211.5,-112.5 160.5,-112.5"/>
<text text-anchor="middle" x="186" y="-119.5" font-family="Helvetica,sans-Serif" font-size="10.00">model.h</text>
</a>
</g>
</g>
<!-- Node2&#45;&gt;Node4 -->
<g id="edge3" class="edge"><title>Node2&#45;&gt;Node4</title>
<path fill="none" stroke="midnightblue" d="M224.208,-224.359C216.867,-215.753 206.109,-201.86 200,-188 193.518,-173.294 189.946,-155.36 188.036,-142.058"/>
<polygon fill="midnightblue" stroke="midnightblue" points="191.462,-141.249 186.753,-131.758 184.516,-142.113 191.462,-141.249"/>
</g>
<!-- Node9 -->
<g id="node9" class="node"><title>Node9</title>
<g id="a_node9"><a xlink:href="view_8h.html" target="_top" xlink:title="view.h">
<polygon fill="none" stroke="black" points="209.5,-168.5 209.5,-187.5 254.5,-187.5 254.5,-168.5 209.5,-168.5"/>
<text text-anchor="middle" x="232" y="-175.5" font-family="Helvetica,sans-Serif" font-size="10.00">view.h</text>
</a>
</g>
</g>
<!-- Node2&#45;&gt;Node9 -->
<g id="edge11" class="edge"><title>Node2&#45;&gt;Node9</title>
<path fill="none" stroke="midnightblue" d="M232,-224.083C232,-217.006 232,-206.861 232,-197.986"/>
<polygon fill="midnightblue" stroke="midnightblue" points="235.5,-197.751 232,-187.751 228.5,-197.751 235.5,-197.751"/>
</g>
<!-- Node4&#45;&gt;Node3 -->
<g id="edge4" class="edge"><title>Node4&#45;&gt;Node3</title>
<path fill="none" stroke="midnightblue" d="M195.927,-112.296C204.977,-103.856 218.104,-90.2668 226,-76 234.006,-61.5347 238.95,-43.3478 241.78,-29.8928"/>
<polygon fill="midnightblue" stroke="midnightblue" points="245.252,-30.3668 243.68,-19.8892 238.375,-29.0601 245.252,-30.3668"/>
</g>
<!-- Node5 -->
<g id="node5" class="node"><title>Node5</title>
<polygon fill="none" stroke="#bfbfbf" points="0,-0.5 0,-19.5 44,-19.5 44,-0.5 0,-0.5"/>
<text text-anchor="middle" x="22" y="-7.5" font-family="Helvetica,sans-Serif" font-size="10.00">vector</text>
</g>
<!-- Node4&#45;&gt;Node5 -->
<g id="edge5" class="edge"><title>Node4&#45;&gt;Node5</title>
<path fill="none" stroke="midnightblue" d="M160.239,-121.111C126.094,-119.772 66.4008,-112.005 34,-76 22.8551,-63.6155 20.4919,-44.3714 20.5342,-30.0319"/>
<polygon fill="midnightblue" stroke="midnightblue" points="24.0407,-29.9457 20.962,-19.8081 17.0469,-29.653 24.0407,-29.9457"/>
</g>
<!-- Node6 -->
<g id="node6" class="node"><title>Node6</title>
<polygon fill="none" stroke="#bfbfbf" points="165,-56.5 165,-75.5 217,-75.5 217,-56.5 165,-56.5"/>
<text text-anchor="middle" x="191" y="-63.5" font-family="Helvetica,sans-Serif" font-size="10.00">memory</text>
</g>
<!-- Node4&#45;&gt;Node6 -->
<g id="edge6" class="edge"><title>Node4&#45;&gt;Node6</title>
<path fill="none" stroke="midnightblue" d="M186.826,-112.083C187.481,-105.006 188.42,-94.8611 189.242,-85.9865"/>
<polygon fill="midnightblue" stroke="midnightblue" points="192.753,-86.0312 190.19,-75.7511 185.783,-85.3858 192.753,-86.0312"/>
</g>
<!-- Node7 -->
<g id="node7" class="node"><title>Node7</title>
<g id="a_node7"><a xlink:href="canvas__primitives_8h.html" target="_top" xlink:title="canvas_primitives.h">
<polygon fill="none" stroke="black" points="43,-56.5 43,-75.5 147,-75.5 147,-56.5 43,-56.5"/>
<text text-anchor="middle" x="95" y="-63.5" font-family="Helvetica,sans-Serif" font-size="10.00">canvas_primitives.h</text>
</a>
</g>
</g>
<!-- Node4&#45;&gt;Node7 -->
<g id="edge7" class="edge"><title>Node4&#45;&gt;Node7</title>
<path fill="none" stroke="midnightblue" d="M171.379,-112.324C157.051,-103.822 134.987,-90.7288 118.251,-80.7975"/>
<polygon fill="midnightblue" stroke="midnightblue" points="119.97,-77.7478 109.584,-75.6545 116.398,-83.7677 119.97,-77.7478"/>
</g>
<!-- Node7&#45;&gt;Node3 -->
<g id="edge9" class="edge"><title>Node7&#45;&gt;Node3</title>
<path fill="none" stroke="midnightblue" d="M118.768,-56.4435C144.666,-47.1203 186.176,-32.1768 214.469,-21.9911"/>
<polygon fill="midnightblue" stroke="midnightblue" points="216.018,-25.1534 224.242,-18.473 213.647,-18.5672 216.018,-25.1534"/>
</g>
<!-- Node7&#45;&gt;Node5 -->
<g id="edge10" class="edge"><title>Node7&#45;&gt;Node5</title>
<path fill="none" stroke="midnightblue" d="M83.2713,-56.324C72.1626,-48.1066 55.2578,-35.6017 42.0167,-25.8069"/>
<polygon fill="midnightblue" stroke="midnightblue" points="44.0631,-22.9671 33.9421,-19.8339 39.9001,-28.5948 44.0631,-22.9671"/>
</g>
<!-- Node8 -->
<g id="node8" class="node"><title>Node8</title>
<polygon fill="none" stroke="#bfbfbf" points="68,-0.5 68,-19.5 122,-19.5 122,-0.5 68,-0.5"/>
<text text-anchor="middle" x="95" y="-7.5" font-family="Helvetica,sans-Serif" font-size="10.00">iostream</text>
</g>
<!-- Node7&#45;&gt;Node8 -->
<g id="edge8" class="edge"><title>Node7&#45;&gt;Node8</title>
<path fill="none" stroke="midnightblue" d="M95,-56.083C95,-49.0059 95,-38.8611 95,-29.9865"/>
<polygon fill="midnightblue" stroke="midnightblue" points="98.5001,-29.751 95,-19.7511 91.5001,-29.7511 98.5001,-29.751"/>
</g>
<!-- Node9&#45;&gt;Node4 -->
<g id="edge12" class="edge"><title>Node9&#45;&gt;Node4</title>
<path fill="none" stroke="midnightblue" d="M224.404,-168.083C217.773,-160.298 207.979,-148.801 199.942,-139.367"/>
<polygon fill="midnightblue" stroke="midnightblue" points="202.604,-137.094 193.455,-131.751 197.275,-141.633 202.604,-137.094"/>
</g>
</g>
</svg>
