<?xml version="1.0" encoding="UTF-8" standalone="no"?>
<!DOCTYPE svg PUBLIC "-//W3C//DTD SVG 1.1//EN"
 "http://www.w3.org/Graphics/SVG/1.1/DTD/svg11.dtd">
<!-- Generated by graphviz version 2.36.0 (20140111.2315)
 -->
<!-- Title: src/controller.cpp Pages: 1 -->
<svg width="257pt" height="308pt"
 viewBox="0.00 0.00 257.10 308.00" xmlns="http://www.w3.org/2000/svg" xmlns:xlink="http://www.w3.org/1999/xlink">
<g id="graph0" class="graph" transform="scale(1 1) rotate(0) translate(4 304)">
<title>src/controller.cpp</title>
<!-- Node1 -->
<g id="node1" class="node"><title>Node1</title>
<polygon fill="#bfbfbf" stroke="black" points="157.099,-280.5 157.099,-299.5 249.099,-299.5 249.099,-280.5 157.099,-280.5"/>
<text text-anchor="middle" x="203.099" y="-287.5" font-family="Helvetica,sans-Serif" font-size="10.00">src/controller.cpp</text>
</g>
<!-- Node2 -->
<g id="node2" class="node"><title>Node2</title>
<g id="a_node2"><a xlink:href="controller_8h.html" target="_top" xlink:title="controller.h">
<polygon fill="none" stroke="black" points="170.599,-224.5 170.599,-243.5 235.599,-243.5 235.599,-224.5 170.599,-224.5"/>
<text text-anchor="middle" x="203.099" y="-231.5" font-family="Helvetica,sans-Serif" font-size="10.00">controller.h</text>
</a>
</g>
</g>
<!-- Node1&#45;&gt;Node2 -->
<g id="edge1" class="edge"><title>Node1&#45;&gt;Node2</title>
<path fill="none" stroke="midnightblue" d="M203.099,-280.083C203.099,-273.006 203.099,-262.861 203.099,-253.986"/>
<polygon fill="midnightblue" stroke="midnightblue" points="206.599,-253.751 203.099,-243.751 199.599,-253.751 206.599,-253.751"/>
</g>
<!-- Node3 -->
<g id="node3" class="node"><title>Node3</title>
<polygon fill="none" stroke="#bfbfbf" points="195.599,-0.5 195.599,-19.5 236.599,-19.5 236.599,-0.5 195.599,-0.5"/>
<text text-anchor="middle" x="216.099" y="-7.5" font-family="Helvetica,sans-Serif" font-size="10.00">string</text>
</g>
<!-- Node2&#45;&gt;Node3 -->
<g id="edge2" class="edge"><title>Node2&#45;&gt;Node3</title>
<path fill="none" stroke="midnightblue" d="M211.582,-224.234C219.153,-215.75 229.703,-202.131 234.099,-188 251.493,-132.089 233.256,-61.9248 222.62,-29.2754"/>
<polygon fill="midnightblue" stroke="midnightblue" points="225.902,-28.0553 219.367,-19.716 219.275,-30.3105 225.902,-28.0553"/>
</g>
<!-- Node4 -->
<g id="node4" class="node"><title>Node4</title>
<g id="a_node4"><a xlink:href="model_8h.html" target="_top" xlink:title="model.h">
<polygon fill="none" stroke="black" points="131.599,-112.5 131.599,-131.5 182.599,-131.5 182.599,-112.5 131.599,-112.5"/>
<text text-anchor="middle" x="157.099" y="-119.5" font-family="Helvetica,sans-Serif" font-size="10.00">model.h</text>
</a>
</g>
</g>
<!-- Node2&#45;&gt;Node4 -->
<g id="edge3" class="edge"><title>Node2&#45;&gt;Node4</title>
<path fill="none" stroke="midnightblue" d="M195.307,-224.359C187.966,-215.753 177.208,-201.86 171.099,-188 164.617,-173.294 161.045,-155.36 159.135,-142.058"/>
<polygon fill="midnightblue" stroke="midnightblue" points="162.561,-141.249 157.852,-131.758 155.615,-142.113 162.561,-141.249"/>
</g>
<!-- Node8 -->
<g id="node8" class="node"><title>Node8</title>
<g id="a_node8"><a xlink:href="view_8h.html" target="_top" xlink:title="view.h">
<polygon fill="none" stroke="black" points="180.599,-168.5 180.599,-187.5 225.599,-187.5 225.599,-168.5 180.599,-168.5"/>
<text text-anchor="middle" x="203.099" y="-175.5" font-family="Helvetica,sans-Serif" font-size="10.00">view.h</text>
</a>
</g>
</g>
<!-- Node2&#45;&gt;Node8 -->
<g id="edge10" class="edge"><title>Node2&#45;&gt;Node8</title>
<path fill="none" stroke="midnightblue" d="M203.099,-224.083C203.099,-217.006 203.099,-206.861 203.099,-197.986"/>
<polygon fill="midnightblue" stroke="midnightblue" points="206.599,-197.751 203.099,-187.751 199.599,-197.751 206.599,-197.751"/>
</g>
<!-- Node4&#45;&gt;Node3 -->
<g id="edge4" class="edge"><title>Node4&#45;&gt;Node3</title>
<path fill="none" stroke="midnightblue" d="M167.026,-112.296C176.076,-103.856 189.203,-90.2668 197.099,-76 205.105,-61.5347 210.049,-43.3478 212.879,-29.8928"/>
<polygon fill="midnightblue" stroke="midnightblue" points="216.351,-30.3668 214.779,-19.8892 209.474,-29.0601 216.351,-30.3668"/>
</g>
<!-- Node5 -->
<g id="node5" class="node"><title>Node5</title>
<polygon fill="none" stroke="#bfbfbf" points="4.09903,-0.5 4.09903,-19.5 48.099,-19.5 48.099,-0.5 4.09903,-0.5"/>
<text text-anchor="middle" x="26.099" y="-7.5" font-family="Helvetica,sans-Serif" font-size="10.00">vector</text>
</g>
<!-- Node4&#45;&gt;Node5 -->
<g id="edge5" class="edge"><title>Node4&#45;&gt;Node5</title>
<path fill="none" stroke="midnightblue" d="M131.529,-121.944C96.4477,-121.673 34.4123,-115.249 5.09903,-76 -5.49547,-61.8144 3.4096,-42.0674 12.6736,-28.0704"/>
<polygon fill="midnightblue" stroke="midnightblue" points="15.6114,-29.98 18.6119,-19.8189 9.92978,-25.8911 15.6114,-29.98"/>
</g>
<!-- Node6 -->
<g id="node6" class="node"><title>Node6</title>
<polygon fill="none" stroke="#bfbfbf" points="136.099,-56.5 136.099,-75.5 188.099,-75.5 188.099,-56.5 136.099,-56.5"/>
<text text-anchor="middle" x="162.099" y="-63.5" font-family="Helvetica,sans-Serif" font-size="10.00">memory</text>
</g>
<!-- Node4&#45;&gt;Node6 -->
<g id="edge6" class="edge"><title>Node4&#45;&gt;Node6</title>
<path fill="none" stroke="midnightblue" d="M157.925,-112.083C158.58,-105.006 159.519,-94.8611 160.341,-85.9865"/>
<polygon fill="midnightblue" stroke="midnightblue" points="163.852,-86.0312 161.289,-75.7511 156.882,-85.3858 163.852,-86.0312"/>
</g>
<!-- Node7 -->
<g id="node7" class="node"><title>Node7</title>
<g id="a_node7"><a xlink:href="canvas__primitives_8h.html" target="_top" xlink:title="canvas_primitives.h">
<polygon fill="none" stroke="black" points="14.099,-56.5 14.099,-75.5 118.099,-75.5 118.099,-56.5 14.099,-56.5"/>
<text text-anchor="middle" x="66.099" y="-63.5" font-family="Helvetica,sans-Serif" font-size="10.00">canvas_primitives.h</text>
</a>
</g>
</g>
<!-- Node4&#45;&gt;Node7 -->
<g id="edge7" class="edge"><title>Node4&#45;&gt;Node7</title>
<path fill="none" stroke="midnightblue" d="M142.478,-112.324C128.15,-103.822 106.087,-90.7288 89.3503,-80.7975"/>
<polygon fill="midnightblue" stroke="midnightblue" points="91.0695,-77.7478 80.6835,-75.6545 87.4972,-83.7677 91.0695,-77.7478"/>
</g>
<!-- Node7&#45;&gt;Node3 -->
<g id="edge8" class="edge"><title>Node7&#45;&gt;Node3</title>
<path fill="none" stroke="midnightblue" d="M89.867,-56.4435C115.765,-47.1203 157.275,-32.1768 185.568,-21.9911"/>
<polygon fill="midnightblue" stroke="midnightblue" points="187.117,-25.1534 195.341,-18.473 184.746,-18.5672 187.117,-25.1534"/>
</g>
<!-- Node7&#45;&gt;Node5 -->
<g id="edge9" class="edge"><title>Node7&#45;&gt;Node5</title>
<path fill="none" stroke="midnightblue" d="M59.4938,-56.083C53.8438,-48.4554 45.5542,-37.2645 38.6478,-27.9408"/>
<polygon fill="midnightblue" stroke="midnightblue" points="41.3461,-25.7034 32.5813,-19.7511 35.7212,-29.87 41.3461,-25.7034"/>
</g>
<!-- Node8&#45;&gt;Node4 -->
<g id="edge11" class="edge"><title>Node8&#45;&gt;Node4</title>
<path fill="none" stroke="midnightblue" d="M195.503,-168.083C188.872,-160.298 179.078,-148.801 171.041,-139.367"/>
<polygon fill="midnightblue" stroke="midnightblue" points="173.703,-137.094 164.554,-131.751 168.374,-141.633 173.703,-137.094"/>
</g>
</g>
</svg>
