<?xml version="1.0" encoding="UTF-8" standalone="no"?>
<!DOCTYPE svg PUBLIC "-//W3C//DTD SVG 1.1//EN"
 "http://www.w3.org/Graphics/SVG/1.1/DTD/svg11.dtd">
<!-- Generated by graphviz version 2.36.0 (20140111.2315)
 -->
<!-- Title: src/controller.cpp Pages: 1 -->
<svg width="313pt" height="308pt"
 viewBox="0.00 0.00 313.00 308.00" xmlns="http://www.w3.org/2000/svg" xmlns:xlink="http://www.w3.org/1999/xlink">
<g id="graph0" class="graph" transform="scale(1 1) rotate(0) translate(4 304)">
<title>src/controller.cpp</title>
<!-- Node1 -->
<g id="node1" class="node"><title>Node1</title>
<polygon fill="#bfbfbf" stroke="black" points="0,-280.5 0,-299.5 92,-299.5 92,-280.5 0,-280.5"/>
<text text-anchor="middle" x="46" y="-287.5" font-family="Helvetica,sans-Serif" font-size="10.00">src/controller.cpp</text>
</g>
<!-- Node2 -->
<g id="node2" class="node"><title>Node2</title>
<g id="a_node2"><a xlink:href="controller_8h.html" target="_top" xlink:title="controller.h">
<polygon fill="none" stroke="black" points="13.5,-224.5 13.5,-243.5 78.5,-243.5 78.5,-224.5 13.5,-224.5"/>
<text text-anchor="middle" x="46" y="-231.5" font-family="Helvetica,sans-Serif" font-size="10.00">controller.h</text>
</a>
</g>
</g>
<!-- Node1&#45;&gt;Node2 -->
<g id="edge1" class="edge"><title>Node1&#45;&gt;Node2</title>
<path fill="none" stroke="midnightblue" d="M46,-280.083C46,-273.006 46,-262.861 46,-253.986"/>
<polygon fill="midnightblue" stroke="midnightblue" points="49.5001,-253.751 46,-243.751 42.5001,-253.751 49.5001,-253.751"/>
</g>
<!-- Node3 -->
<g id="node3" class="node"><title>Node3</title>
<polygon fill="none" stroke="#bfbfbf" points="25.5,-0.5 25.5,-19.5 66.5,-19.5 66.5,-0.5 25.5,-0.5"/>
<text text-anchor="middle" x="46" y="-7.5" font-family="Helvetica,sans-Serif" font-size="10.00">string</text>
</g>
<!-- Node2&#45;&gt;Node3 -->
<g id="edge2" class="edge"><title>Node2&#45;&gt;Node3</title>
<path fill="none" stroke="midnightblue" d="M44.3228,-224.21C40.7132,-204.282 32.7128,-154.125 35,-112 36.5661,-83.1561 40.6302,-49.8825 43.3553,-29.6511"/>
<polygon fill="midnightblue" stroke="midnightblue" points="46.8394,-30.0059 44.7416,-19.6208 39.9053,-29.0474 46.8394,-30.0059"/>
</g>
<!-- Node4 -->
<g id="node4" class="node"><title>Node4</title>
<g id="a_node4"><a xlink:href="document__model_8h.html" target="_top" xlink:title="document_model.h">
<polygon fill="none" stroke="black" points="44.5,-112.5 44.5,-131.5 143.5,-131.5 143.5,-112.5 44.5,-112.5"/>
<text text-anchor="middle" x="94" y="-119.5" font-family="Helvetica,sans-Serif" font-size="10.00">document_model.h</text>
</a>
</g>
</g>
<!-- Node2&#45;&gt;Node4 -->
<g id="edge3" class="edge"><title>Node2&#45;&gt;Node4</title>
<path fill="none" stroke="midnightblue" d="M47.7049,-224.305C50.3866,-211.565 56.2083,-187.25 65,-168 69.4886,-158.172 75.8807,-147.99 81.5219,-139.803"/>
<polygon fill="midnightblue" stroke="midnightblue" points="84.4658,-141.703 87.4305,-131.532 78.7698,-137.634 84.4658,-141.703"/>
</g>
<!-- Node10 -->
<g id="node10" class="node"><title>Node10</title>
<g id="a_node10"><a xlink:href="view_8h.html" target="_top" xlink:title="view.h">
<polygon fill="none" stroke="black" points="74.5,-168.5 74.5,-187.5 119.5,-187.5 119.5,-168.5 74.5,-168.5"/>
<text text-anchor="middle" x="97" y="-175.5" font-family="Helvetica,sans-Serif" font-size="10.00">view.h</text>
</a>
</g>
</g>
<!-- Node2&#45;&gt;Node10 -->
<g id="edge11" class="edge"><title>Node2&#45;&gt;Node10</title>
<path fill="none" stroke="midnightblue" d="M54.4216,-224.083C61.8482,-216.22 72.8517,-204.569 81.8122,-195.081"/>
<polygon fill="midnightblue" stroke="midnightblue" points="84.4134,-197.424 88.7351,-187.751 79.3243,-192.618 84.4134,-197.424"/>
</g>
<!-- Node4&#45;&gt;Node3 -->
<g id="edge4" class="edge"><title>Node4&#45;&gt;Node3</title>
<path fill="none" stroke="midnightblue" d="M87.4305,-112.468C80.9615,-103.723 71.1779,-89.5269 65,-76 58.1315,-60.961 53.0757,-42.8307 49.9137,-29.5433"/>
<polygon fill="midnightblue" stroke="midnightblue" points="53.3086,-28.6866 47.7049,-19.6951 46.4783,-30.2187 53.3086,-28.6866"/>
</g>
<!-- Node5 -->
<g id="node5" class="node"><title>Node5</title>
<polygon fill="none" stroke="#bfbfbf" points="74.5,-56.5 74.5,-75.5 109.5,-75.5 109.5,-56.5 74.5,-56.5"/>
<text text-anchor="middle" x="92" y="-63.5" font-family="Helvetica,sans-Serif" font-size="10.00">map</text>
</g>
<!-- Node4&#45;&gt;Node5 -->
<g id="edge5" class="edge"><title>Node4&#45;&gt;Node5</title>
<path fill="none" stroke="midnightblue" d="M93.6697,-112.083C93.4076,-105.006 93.0319,-94.8611 92.7032,-85.9865"/>
<polygon fill="midnightblue" stroke="midnightblue" points="96.1919,-85.6147 92.3241,-75.7511 89.1967,-85.8738 96.1919,-85.6147"/>
</g>
<!-- Node6 -->
<g id="node6" class="node"><title>Node6</title>
<polygon fill="none" stroke="#bfbfbf" points="128,-56.5 128,-75.5 180,-75.5 180,-56.5 128,-56.5"/>
<text text-anchor="middle" x="154" y="-63.5" font-family="Helvetica,sans-Serif" font-size="10.00">memory</text>
</g>
<!-- Node4&#45;&gt;Node6 -->
<g id="edge6" class="edge"><title>Node4&#45;&gt;Node6</title>
<path fill="none" stroke="midnightblue" d="M103.64,-112.324C112.51,-104.341 125.875,-92.3128 136.608,-82.6529"/>
<polygon fill="midnightblue" stroke="midnightblue" points="139.093,-85.1251 144.185,-75.8339 134.41,-79.922 139.093,-85.1251"/>
</g>
<!-- Node7 -->
<g id="node7" class="node"><title>Node7</title>
<g id="a_node7"><a xlink:href="canvas__primitives_8h.html" target="_top" xlink:title="canvas_primitives.h">
<polygon fill="none" stroke="black" points="198,-56.5 198,-75.5 302,-75.5 302,-56.5 198,-56.5"/>
<text text-anchor="middle" x="250" y="-63.5" font-family="Helvetica,sans-Serif" font-size="10.00">canvas_primitives.h</text>
</a>
</g>
</g>
<!-- Node4&#45;&gt;Node7 -->
<g id="edge7" class="edge"><title>Node4&#45;&gt;Node7</title>
<path fill="none" stroke="midnightblue" d="M118.719,-112.444C144.848,-103.399 186.259,-89.064 215.576,-78.9158"/>
<polygon fill="midnightblue" stroke="midnightblue" points="217.092,-82.0951 225.397,-75.5164 214.802,-75.4801 217.092,-82.0951"/>
</g>
<!-- Node7&#45;&gt;Node3 -->
<g id="edge9" class="edge"><title>Node7&#45;&gt;Node3</title>
<path fill="none" stroke="midnightblue" d="M217.676,-56.4435C178.96,-46.1953 114.591,-29.1565 76.6388,-19.1103"/>
<polygon fill="midnightblue" stroke="midnightblue" points="77.2408,-15.6491 66.6781,-16.4736 75.4495,-22.4161 77.2408,-15.6491"/>
</g>
<!-- Node8 -->
<g id="node8" class="node"><title>Node8</title>
<polygon fill="none" stroke="#bfbfbf" points="189,-0.5 189,-19.5 243,-19.5 243,-0.5 189,-0.5"/>
<text text-anchor="middle" x="216" y="-7.5" font-family="Helvetica,sans-Serif" font-size="10.00">iostream</text>
</g>
<!-- Node7&#45;&gt;Node8 -->
<g id="edge8" class="edge"><title>Node7&#45;&gt;Node8</title>
<path fill="none" stroke="midnightblue" d="M244.386,-56.083C239.633,-48.5341 232.682,-37.4948 226.848,-28.2298"/>
<polygon fill="midnightblue" stroke="midnightblue" points="229.8,-26.3486 221.51,-19.7511 223.876,-30.0783 229.8,-26.3486"/>
</g>
<!-- Node9 -->
<g id="node9" class="node"><title>Node9</title>
<polygon fill="none" stroke="#bfbfbf" points="261,-0.5 261,-19.5 305,-19.5 305,-0.5 261,-0.5"/>
<text text-anchor="middle" x="283" y="-7.5" font-family="Helvetica,sans-Serif" font-size="10.00">vector</text>
</g>
<!-- Node7&#45;&gt;Node9 -->
<g id="edge10" class="edge"><title>Node7&#45;&gt;Node9</title>
<path fill="none" stroke="midnightblue" d="M255.449,-56.083C260.014,-48.6127 266.668,-37.7244 272.293,-28.5199"/>
<polygon fill="midnightblue" stroke="midnightblue" points="275.424,-30.109 277.652,-19.7511 269.451,-26.4588 275.424,-30.109"/>
</g>
<!-- Node10&#45;&gt;Node4 -->
<g id="edge12" class="edge"><title>Node10&#45;&gt;Node4</title>
<path fill="none" stroke="midnightblue" d="M96.5046,-168.083C96.1114,-161.006 95.5478,-150.861 95.0548,-141.986"/>
<polygon fill="midnightblue" stroke="midnightblue" points="98.5356,-141.542 94.4862,-131.751 91.5464,-141.93 98.5356,-141.542"/>
</g>
</g>
</svg>
