<?xml version="1.0" encoding="UTF-8" standalone="no"?>
<!DOCTYPE svg PUBLIC "-//W3C//DTD SVG 1.1//EN"
 "http://www.w3.org/Graphics/SVG/1.1/DTD/svg11.dtd">
<!-- Generated by graphviz version 2.36.0 (20140111.2315)
 -->
<!-- Title: include/controller.h Pages: 1 -->
<svg width="316pt" height="252pt"
 viewBox="0.00 0.00 316.00 252.00" xmlns="http://www.w3.org/2000/svg" xmlns:xlink="http://www.w3.org/1999/xlink">
<g id="graph0" class="graph" transform="scale(1 1) rotate(0) translate(4 248)">
<title>include/controller.h</title>
<!-- Node1 -->
<g id="node1" class="node"><title>Node1</title>
<polygon fill="#bfbfbf" stroke="black" points="0,-224.5 0,-243.5 98,-243.5 98,-224.5 0,-224.5"/>
<text text-anchor="middle" x="49" y="-231.5" font-family="Helvetica,sans-Serif" font-size="10.00">include/controller.h</text>
</g>
<!-- Node2 -->
<g id="node2" class="node"><title>Node2</title>
<polygon fill="none" stroke="#bfbfbf" points="28.5,-0.5 28.5,-19.5 69.5,-19.5 69.5,-0.5 28.5,-0.5"/>
<text text-anchor="middle" x="49" y="-7.5" font-family="Helvetica,sans-Serif" font-size="10.00">string</text>
</g>
<!-- Node1&#45;&gt;Node2 -->
<g id="edge1" class="edge"><title>Node1&#45;&gt;Node2</title>
<path fill="none" stroke="midnightblue" d="M47.3228,-224.21C43.7132,-204.282 35.7128,-154.125 38,-112 39.5661,-83.1561 43.6302,-49.8825 46.3553,-29.6511"/>
<polygon fill="midnightblue" stroke="midnightblue" points="49.8394,-30.0059 47.7416,-19.6208 42.9053,-29.0474 49.8394,-30.0059"/>
</g>
<!-- Node3 -->
<g id="node3" class="node"><title>Node3</title>
<g id="a_node3"><a xlink:href="document__model_8h.html" target="_top" xlink:title="document_model.h">
<polygon fill="none" stroke="black" points="47.5,-112.5 47.5,-131.5 146.5,-131.5 146.5,-112.5 47.5,-112.5"/>
<text text-anchor="middle" x="97" y="-119.5" font-family="Helvetica,sans-Serif" font-size="10.00">document_model.h</text>
</a>
</g>
</g>
<!-- Node1&#45;&gt;Node3 -->
<g id="edge2" class="edge"><title>Node1&#45;&gt;Node3</title>
<path fill="none" stroke="midnightblue" d="M50.7049,-224.305C53.3866,-211.565 59.2083,-187.25 68,-168 72.4886,-158.172 78.8807,-147.99 84.5219,-139.803"/>
<polygon fill="midnightblue" stroke="midnightblue" points="87.4658,-141.703 90.4305,-131.532 81.7698,-137.634 87.4658,-141.703"/>
</g>
<!-- Node9 -->
<g id="node9" class="node"><title>Node9</title>
<g id="a_node9"><a xlink:href="view_8h.html" target="_top" xlink:title="view.h">
<polygon fill="none" stroke="black" points="77.5,-168.5 77.5,-187.5 122.5,-187.5 122.5,-168.5 77.5,-168.5"/>
<text text-anchor="middle" x="100" y="-175.5" font-family="Helvetica,sans-Serif" font-size="10.00">view.h</text>
</a>
</g>
</g>
<!-- Node1&#45;&gt;Node9 -->
<g id="edge10" class="edge"><title>Node1&#45;&gt;Node9</title>
<path fill="none" stroke="midnightblue" d="M57.4216,-224.083C64.8482,-216.22 75.8517,-204.569 84.8122,-195.081"/>
<polygon fill="midnightblue" stroke="midnightblue" points="87.4134,-197.424 91.7351,-187.751 82.3243,-192.618 87.4134,-197.424"/>
</g>
<!-- Node3&#45;&gt;Node2 -->
<g id="edge3" class="edge"><title>Node3&#45;&gt;Node2</title>
<path fill="none" stroke="midnightblue" d="M90.4305,-112.468C83.9615,-103.723 74.1779,-89.5269 68,-76 61.1315,-60.961 56.0757,-42.8307 52.9137,-29.5433"/>
<polygon fill="midnightblue" stroke="midnightblue" points="56.3086,-28.6866 50.7049,-19.6951 49.4783,-30.2187 56.3086,-28.6866"/>
</g>
<!-- Node4 -->
<g id="node4" class="node"><title>Node4</title>
<polygon fill="none" stroke="#bfbfbf" points="77.5,-56.5 77.5,-75.5 112.5,-75.5 112.5,-56.5 77.5,-56.5"/>
<text text-anchor="middle" x="95" y="-63.5" font-family="Helvetica,sans-Serif" font-size="10.00">map</text>
</g>
<!-- Node3&#45;&gt;Node4 -->
<g id="edge4" class="edge"><title>Node3&#45;&gt;Node4</title>
<path fill="none" stroke="midnightblue" d="M96.6697,-112.083C96.4076,-105.006 96.0319,-94.8611 95.7032,-85.9865"/>
<polygon fill="midnightblue" stroke="midnightblue" points="99.1919,-85.6147 95.3241,-75.7511 92.1967,-85.8738 99.1919,-85.6147"/>
</g>
<!-- Node5 -->
<g id="node5" class="node"><title>Node5</title>
<polygon fill="none" stroke="#bfbfbf" points="131,-56.5 131,-75.5 183,-75.5 183,-56.5 131,-56.5"/>
<text text-anchor="middle" x="157" y="-63.5" font-family="Helvetica,sans-Serif" font-size="10.00">memory</text>
</g>
<!-- Node3&#45;&gt;Node5 -->
<g id="edge5" class="edge"><title>Node3&#45;&gt;Node5</title>
<path fill="none" stroke="midnightblue" d="M106.64,-112.324C115.51,-104.341 128.875,-92.3128 139.608,-82.6529"/>
<polygon fill="midnightblue" stroke="midnightblue" points="142.093,-85.1251 147.185,-75.8339 137.41,-79.922 142.093,-85.1251"/>
</g>
<!-- Node6 -->
<g id="node6" class="node"><title>Node6</title>
<g id="a_node6"><a xlink:href="canvas__primitives_8h.html" target="_top" xlink:title="canvas_primitives.h">
<polygon fill="none" stroke="black" points="201,-56.5 201,-75.5 305,-75.5 305,-56.5 201,-56.5"/>
<text text-anchor="middle" x="253" y="-63.5" font-family="Helvetica,sans-Serif" font-size="10.00">canvas_primitives.h</text>
</a>
</g>
</g>
<!-- Node3&#45;&gt;Node6 -->
<g id="edge6" class="edge"><title>Node3&#45;&gt;Node6</title>
<path fill="none" stroke="midnightblue" d="M121.719,-112.444C147.848,-103.399 189.259,-89.064 218.576,-78.9158"/>
<polygon fill="midnightblue" stroke="midnightblue" points="220.092,-82.0951 228.397,-75.5164 217.802,-75.4801 220.092,-82.0951"/>
</g>
<!-- Node6&#45;&gt;Node2 -->
<g id="edge8" class="edge"><title>Node6&#45;&gt;Node2</title>
<path fill="none" stroke="midnightblue" d="M220.676,-56.4435C181.96,-46.1953 117.591,-29.1565 79.6388,-19.1103"/>
<polygon fill="midnightblue" stroke="midnightblue" points="80.2408,-15.6491 69.6781,-16.4736 78.4495,-22.4161 80.2408,-15.6491"/>
</g>
<!-- Node7 -->
<g id="node7" class="node"><title>Node7</title>
<polygon fill="none" stroke="#bfbfbf" points="192,-0.5 192,-19.5 246,-19.5 246,-0.5 192,-0.5"/>
<text text-anchor="middle" x="219" y="-7.5" font-family="Helvetica,sans-Serif" font-size="10.00">iostream</text>
</g>
<!-- Node6&#45;&gt;Node7 -->
<g id="edge7" class="edge"><title>Node6&#45;&gt;Node7</title>
<path fill="none" stroke="midnightblue" d="M247.386,-56.083C242.633,-48.5341 235.682,-37.4948 229.848,-28.2298"/>
<polygon fill="midnightblue" stroke="midnightblue" points="232.8,-26.3486 224.51,-19.7511 226.876,-30.0783 232.8,-26.3486"/>
</g>
<!-- Node8 -->
<g id="node8" class="node"><title>Node8</title>
<polygon fill="none" stroke="#bfbfbf" points="264,-0.5 264,-19.5 308,-19.5 308,-0.5 264,-0.5"/>
<text text-anchor="middle" x="286" y="-7.5" font-family="Helvetica,sans-Serif" font-size="10.00">vector</text>
</g>
<!-- Node6&#45;&gt;Node8 -->
<g id="edge9" class="edge"><title>Node6&#45;&gt;Node8</title>
<path fill="none" stroke="midnightblue" d="M258.449,-56.083C263.014,-48.6127 269.668,-37.7244 275.293,-28.5199"/>
<polygon fill="midnightblue" stroke="midnightblue" points="278.424,-30.109 280.652,-19.7511 272.451,-26.4588 278.424,-30.109"/>
</g>
<!-- Node9&#45;&gt;Node3 -->
<g id="edge11" class="edge"><title>Node9&#45;&gt;Node3</title>
<path fill="none" stroke="midnightblue" d="M99.5046,-168.083C99.1114,-161.006 98.5478,-150.861 98.0548,-141.986"/>
<polygon fill="midnightblue" stroke="midnightblue" points="101.536,-141.542 97.4862,-131.751 94.5464,-141.93 101.536,-141.542"/>
</g>
</g>
</svg>
