<?xml version="1.0" encoding="UTF-8" standalone="no"?>
<!DOCTYPE svg PUBLIC "-//W3C//DTD SVG 1.1//EN"
 "http://www.w3.org/Graphics/SVG/1.1/DTD/svg11.dtd">
<!-- Generated by graphviz version 2.36.0 (20140111.2315)
 -->
<!-- Title: include/document_model.h Pages: 1 -->
<svg width="395pt" height="196pt"
 viewBox="0.00 0.00 395.00 196.00" xmlns="http://www.w3.org/2000/svg" xmlns:xlink="http://www.w3.org/1999/xlink">
<g id="graph0" class="graph" transform="scale(1 1) rotate(0) translate(4 192)">
<title>include/document_model.h</title>
<!-- Node1 -->
<g id="node1" class="node"><title>Node1</title>
<polygon fill="#bfbfbf" stroke="black" points="102.5,-168.5 102.5,-187.5 235.5,-187.5 235.5,-168.5 102.5,-168.5"/>
<text text-anchor="middle" x="169" y="-175.5" font-family="Helvetica,sans-Serif" font-size="10.00">include/document_model.h</text>
</g>
<!-- Node2 -->
<g id="node2" class="node"><title>Node2</title>
<g id="a_node2"><a xlink:href="controller_8h.html" target="_top" xlink:title="include/controller.h">
<polygon fill="none" stroke="black" points="9,-56.5 9,-75.5 107,-75.5 107,-56.5 9,-56.5"/>
<text text-anchor="middle" x="58" y="-63.5" font-family="Helvetica,sans-Serif" font-size="10.00">include/controller.h</text>
</a>
</g>
</g>
<!-- Node1&#45;&gt;Node2 -->
<g id="edge1" class="edge"><title>Node1&#45;&gt;Node2</title>
<path fill="none" stroke="midnightblue" d="M151.874,-161.316C142.629,-152.756 131.078,-141.912 121,-132 100.832,-112.164 77.879,-88.0877 66.0282,-75.5402"/>
<polygon fill="midnightblue" stroke="midnightblue" points="149.584,-163.965 159.31,-168.168 154.328,-158.818 149.584,-163.965"/>
</g>
<!-- Node4 -->
<g id="node4" class="node"><title>Node4</title>
<g id="a_node4"><a xlink:href="main_8cpp.html" target="_top" xlink:title="src/main.cpp">
<polygon fill="none" stroke="black" points="110.5,-0.5 110.5,-19.5 183.5,-19.5 183.5,-0.5 110.5,-0.5"/>
<text text-anchor="middle" x="147" y="-7.5" font-family="Helvetica,sans-Serif" font-size="10.00">src/main.cpp</text>
</a>
</g>
</g>
<!-- Node1&#45;&gt;Node4 -->
<g id="edge9" class="edge"><title>Node1&#45;&gt;Node4</title>
<path fill="none" stroke="midnightblue" d="M162.23,-158.692C159.525,-150.618 156.664,-140.949 155,-132 147.265,-90.3968 146.745,-39.5307 146.878,-19.5945"/>
<polygon fill="midnightblue" stroke="midnightblue" points="158.953,-159.925 165.58,-168.191 165.555,-157.597 158.953,-159.925"/>
</g>
<!-- Node5 -->
<g id="node5" class="node"><title>Node5</title>
<g id="a_node5"><a xlink:href="view_8h.html" target="_top" xlink:title="include/view.h">
<polygon fill="none" stroke="black" points="163.5,-112.5 163.5,-131.5 242.5,-131.5 242.5,-112.5 163.5,-112.5"/>
<text text-anchor="middle" x="203" y="-119.5" font-family="Helvetica,sans-Serif" font-size="10.00">include/view.h</text>
</a>
</g>
</g>
<!-- Node1&#45;&gt;Node5 -->
<g id="edge4" class="edge"><title>Node1&#45;&gt;Node5</title>
<path fill="none" stroke="midnightblue" d="M179.977,-159.566C185.827,-150.275 192.77,-139.248 197.49,-131.751"/>
<polygon fill="midnightblue" stroke="midnightblue" points="176.981,-157.756 174.614,-168.083 182.904,-161.486 176.981,-157.756"/>
</g>
<!-- Node7 -->
<g id="node7" class="node"><title>Node7</title>
<g id="a_node7"><a xlink:href="document__model_8cpp.html" target="_top" xlink:title="src/document_model.cpp">
<polygon fill="none" stroke="black" points="261,-112.5 261,-131.5 387,-131.5 387,-112.5 261,-112.5"/>
<text text-anchor="middle" x="324" y="-119.5" font-family="Helvetica,sans-Serif" font-size="10.00">src/document_model.cpp</text>
</a>
</g>
</g>
<!-- Node1&#45;&gt;Node7 -->
<g id="edge8" class="edge"><title>Node1&#45;&gt;Node7</title>
<path fill="none" stroke="midnightblue" d="M203.332,-165.039C232.497,-154.879 273.637,-140.546 299.555,-131.516"/>
<polygon fill="midnightblue" stroke="midnightblue" points="201.852,-161.848 193.56,-168.444 204.155,-168.459 201.852,-161.848"/>
</g>
<!-- Node3 -->
<g id="node3" class="node"><title>Node3</title>
<g id="a_node3"><a xlink:href="controller_8cpp.html" target="_top" xlink:title="src/controller.cpp">
<polygon fill="none" stroke="black" points="0,-0.5 0,-19.5 92,-19.5 92,-0.5 0,-0.5"/>
<text text-anchor="middle" x="46" y="-7.5" font-family="Helvetica,sans-Serif" font-size="10.00">src/controller.cpp</text>
</a>
</g>
</g>
<!-- Node2&#45;&gt;Node3 -->
<g id="edge2" class="edge"><title>Node2&#45;&gt;Node3</title>
<path fill="none" stroke="midnightblue" d="M53.8001,-46.1005C51.8079,-37.1357 49.524,-26.8579 47.9447,-19.7511"/>
<polygon fill="midnightblue" stroke="midnightblue" points="50.4324,-47.0804 56.0184,-56.083 57.2657,-45.5618 50.4324,-47.0804"/>
</g>
<!-- Node2&#45;&gt;Node4 -->
<g id="edge3" class="edge"><title>Node2&#45;&gt;Node4</title>
<path fill="none" stroke="midnightblue" d="M81.238,-50.9005C97.5578,-40.9986 118.865,-28.0705 132.736,-19.6545"/>
<polygon fill="midnightblue" stroke="midnightblue" points="79.0332,-48.1444 72.2994,-56.324 82.6644,-54.1289 79.0332,-48.1444"/>
</g>
<!-- Node5&#45;&gt;Node2 -->
<g id="edge5" class="edge"><title>Node5&#45;&gt;Node2</title>
<path fill="none" stroke="midnightblue" d="M170.525,-108.906C143.264,-98.7536 105.008,-84.5063 80.8682,-75.5164"/>
<polygon fill="midnightblue" stroke="midnightblue" points="169.432,-112.233 180.024,-112.444 171.875,-105.674 169.432,-112.233"/>
</g>
<!-- Node5&#45;&gt;Node4 -->
<g id="edge6" class="edge"><title>Node5&#45;&gt;Node4</title>
<path fill="none" stroke="midnightblue" d="M193.999,-103.32C181.806,-79.3697 160.516,-37.5484 151.374,-19.5914"/>
<polygon fill="midnightblue" stroke="midnightblue" points="190.95,-105.045 198.606,-112.368 197.188,-101.869 190.95,-105.045"/>
</g>
<!-- Node6 -->
<g id="node6" class="node"><title>Node6</title>
<g id="a_node6"><a xlink:href="view_8cpp.html" target="_top" xlink:title="src/view.cpp">
<polygon fill="none" stroke="black" points="201,-56.5 201,-75.5 273,-75.5 273,-56.5 201,-56.5"/>
<text text-anchor="middle" x="237" y="-63.5" font-family="Helvetica,sans-Serif" font-size="10.00">src/view.cpp</text>
</a>
</g>
</g>
<!-- Node5&#45;&gt;Node6 -->
<g id="edge7" class="edge"><title>Node5&#45;&gt;Node6</title>
<path fill="none" stroke="midnightblue" d="M213.977,-103.566C219.827,-94.2747 226.77,-83.2484 231.49,-75.7511"/>
<polygon fill="midnightblue" stroke="midnightblue" points="210.981,-101.756 208.614,-112.083 216.904,-105.486 210.981,-101.756"/>
</g>
</g>
</svg>
