<?xml version="1.0" encoding="UTF-8" standalone="no"?>
<!DOCTYPE svg PUBLIC "-//W3C//DTD SVG 1.1//EN"
 "http://www.w3.org/Graphics/SVG/1.1/DTD/svg11.dtd">
<!-- Generated by graphviz version 2.36.0 (20140111.2315)
 -->
<!-- Title: src/document_model.cpp Pages: 1 -->
<svg width="253pt" height="196pt"
 viewBox="0.00 0.00 253.00 196.00" xmlns="http://www.w3.org/2000/svg" xmlns:xlink="http://www.w3.org/1999/xlink">
<g id="graph0" class="graph" transform="scale(1 1) rotate(0) translate(4 192)">
<title>src/document_model.cpp</title>
<!-- Node1 -->
<g id="node1" class="node"><title>Node1</title>
<polygon fill="#bfbfbf" stroke="black" points="0,-168.5 0,-187.5 126,-187.5 126,-168.5 0,-168.5"/>
<text text-anchor="middle" x="63" y="-175.5" font-family="Helvetica,sans-Serif" font-size="10.00">src/document_model.cpp</text>
</g>
<!-- Node2 -->
<g id="node2" class="node"><title>Node2</title>
<g id="a_node2"><a xlink:href="document__model_8h.html" target="_top" xlink:title="document_model.h">
<polygon fill="none" stroke="black" points="13.5,-112.5 13.5,-131.5 112.5,-131.5 112.5,-112.5 13.5,-112.5"/>
<text text-anchor="middle" x="63" y="-119.5" font-family="Helvetica,sans-Serif" font-size="10.00">document_model.h</text>
</a>
</g>
</g>
<!-- Node1&#45;&gt;Node2 -->
<g id="edge1" class="edge"><title>Node1&#45;&gt;Node2</title>
<path fill="none" stroke="midnightblue" d="M63,-168.083C63,-161.006 63,-150.861 63,-141.986"/>
<polygon fill="midnightblue" stroke="midnightblue" points="66.5001,-141.751 63,-131.751 59.5001,-141.751 66.5001,-141.751"/>
</g>
<!-- Node3 -->
<g id="node3" class="node"><title>Node3</title>
<polygon fill="none" stroke="#bfbfbf" points="17.5,-0.5 17.5,-19.5 58.5,-19.5 58.5,-0.5 17.5,-0.5"/>
<text text-anchor="middle" x="38" y="-7.5" font-family="Helvetica,sans-Serif" font-size="10.00">string</text>
</g>
<!-- Node2&#45;&gt;Node3 -->
<g id="edge2" class="edge"><title>Node2&#45;&gt;Node3</title>
<path fill="none" stroke="midnightblue" d="M44.6106,-112.471C30.899,-104.997 13.1851,-92.7104 5,-76 -3.20628,-59.2465 8.97911,-40.2356 20.7937,-27.1217"/>
<polygon fill="midnightblue" stroke="midnightblue" points="23.4578,-29.4023 27.9164,-19.7913 18.4374,-24.5242 23.4578,-29.4023"/>
</g>
<!-- Node4 -->
<g id="node4" class="node"><title>Node4</title>
<polygon fill="none" stroke="#bfbfbf" points="14.5,-56.5 14.5,-75.5 49.5,-75.5 49.5,-56.5 14.5,-56.5"/>
<text text-anchor="middle" x="32" y="-63.5" font-family="Helvetica,sans-Serif" font-size="10.00">map</text>
</g>
<!-- Node2&#45;&gt;Node4 -->
<g id="edge3" class="edge"><title>Node2&#45;&gt;Node4</title>
<path fill="none" stroke="midnightblue" d="M57.881,-112.083C53.5925,-104.613 47.3418,-93.7244 42.0577,-84.5199"/>
<polygon fill="midnightblue" stroke="midnightblue" points="45.0379,-82.6811 37.0238,-75.7511 38.9671,-86.1662 45.0379,-82.6811"/>
</g>
<!-- Node5 -->
<g id="node5" class="node"><title>Node5</title>
<polygon fill="none" stroke="#bfbfbf" points="68,-56.5 68,-75.5 120,-75.5 120,-56.5 68,-56.5"/>
<text text-anchor="middle" x="94" y="-63.5" font-family="Helvetica,sans-Serif" font-size="10.00">memory</text>
</g>
<!-- Node2&#45;&gt;Node5 -->
<g id="edge4" class="edge"><title>Node2&#45;&gt;Node5</title>
<path fill="none" stroke="midnightblue" d="M68.119,-112.083C72.4075,-104.613 78.6582,-93.7244 83.9423,-84.5199"/>
<polygon fill="midnightblue" stroke="midnightblue" points="87.0329,-86.1662 88.9762,-75.7511 80.9621,-82.6811 87.0329,-86.1662"/>
</g>
<!-- Node6 -->
<g id="node6" class="node"><title>Node6</title>
<g id="a_node6"><a xlink:href="canvas__primitives_8h.html" target="_top" xlink:title="canvas_primitives.h">
<polygon fill="none" stroke="black" points="138,-56.5 138,-75.5 242,-75.5 242,-56.5 138,-56.5"/>
<text text-anchor="middle" x="190" y="-63.5" font-family="Helvetica,sans-Serif" font-size="10.00">canvas_primitives.h</text>
</a>
</g>
</g>
<!-- Node2&#45;&gt;Node6 -->
<g id="edge5" class="edge"><title>Node2&#45;&gt;Node6</title>
<path fill="none" stroke="midnightblue" d="M83.1235,-112.444C104.024,-103.557 136.935,-89.5632 160.716,-79.4514"/>
<polygon fill="midnightblue" stroke="midnightblue" points="162.138,-82.6504 169.971,-75.5164 159.398,-76.2085 162.138,-82.6504"/>
</g>
<!-- Node6&#45;&gt;Node3 -->
<g id="edge7" class="edge"><title>Node6&#45;&gt;Node3</title>
<path fill="none" stroke="midnightblue" d="M165.915,-56.4435C139.407,-47.0262 96.7581,-31.8746 68.074,-21.6842"/>
<polygon fill="midnightblue" stroke="midnightblue" points="69.1546,-18.3538 58.5599,-18.3042 66.8112,-24.9499 69.1546,-18.3538"/>
</g>
<!-- Node7 -->
<g id="node7" class="node"><title>Node7</title>
<polygon fill="none" stroke="#bfbfbf" points="129,-0.5 129,-19.5 183,-19.5 183,-0.5 129,-0.5"/>
<text text-anchor="middle" x="156" y="-7.5" font-family="Helvetica,sans-Serif" font-size="10.00">iostream</text>
</g>
<!-- Node6&#45;&gt;Node7 -->
<g id="edge6" class="edge"><title>Node6&#45;&gt;Node7</title>
<path fill="none" stroke="midnightblue" d="M184.386,-56.083C179.633,-48.5341 172.682,-37.4948 166.848,-28.2298"/>
<polygon fill="midnightblue" stroke="midnightblue" points="169.8,-26.3486 161.51,-19.7511 163.876,-30.0783 169.8,-26.3486"/>
</g>
<!-- Node8 -->
<g id="node8" class="node"><title>Node8</title>
<polygon fill="none" stroke="#bfbfbf" points="201,-0.5 201,-19.5 245,-19.5 245,-0.5 201,-0.5"/>
<text text-anchor="middle" x="223" y="-7.5" font-family="Helvetica,sans-Serif" font-size="10.00">vector</text>
</g>
<!-- Node6&#45;&gt;Node8 -->
<g id="edge8" class="edge"><title>Node6&#45;&gt;Node8</title>
<path fill="none" stroke="midnightblue" d="M195.449,-56.083C200.014,-48.6127 206.668,-37.7244 212.293,-28.5199"/>
<polygon fill="midnightblue" stroke="midnightblue" points="215.424,-30.109 217.652,-19.7511 209.451,-26.4588 215.424,-30.109"/>
</g>
</g>
</svg>
