<?xml version="1.0" encoding="UTF-8" standalone="no"?>
<!DOCTYPE svg PUBLIC "-//W3C//DTD SVG 1.1//EN"
 "http://www.w3.org/Graphics/SVG/1.1/DTD/svg11.dtd">
<!-- Generated by graphviz version 2.36.0 (20140111.2315)
 -->
<!-- Title: include/document_model.h Pages: 1 -->
<svg width="256pt" height="140pt"
 viewBox="0.00 0.00 256.00 140.00" xmlns="http://www.w3.org/2000/svg" xmlns:xlink="http://www.w3.org/1999/xlink">
<g id="graph0" class="graph" transform="scale(1 1) rotate(0) translate(4 136)">
<title>include/document_model.h</title>
<!-- Node1 -->
<g id="node1" class="node"><title>Node1</title>
<polygon fill="#bfbfbf" stroke="black" points="-0.5,-112.5 -0.5,-131.5 132.5,-131.5 132.5,-112.5 -0.5,-112.5"/>
<text text-anchor="middle" x="66" y="-119.5" font-family="Helvetica,sans-Serif" font-size="10.00">include/document_model.h</text>
</g>
<!-- Node2 -->
<g id="node2" class="node"><title>Node2</title>
<polygon fill="none" stroke="#bfbfbf" points="20.5,-0.5 20.5,-19.5 61.5,-19.5 61.5,-0.5 20.5,-0.5"/>
<text text-anchor="middle" x="41" y="-7.5" font-family="Helvetica,sans-Serif" font-size="10.00">string</text>
</g>
<!-- Node1&#45;&gt;Node2 -->
<g id="edge1" class="edge"><title>Node1&#45;&gt;Node2</title>
<path fill="none" stroke="midnightblue" d="M47.6106,-112.471C33.899,-104.997 16.1851,-92.7104 8,-76 -0.206279,-59.2465 11.9791,-40.2356 23.7937,-27.1217"/>
<polygon fill="midnightblue" stroke="midnightblue" points="26.4578,-29.4023 30.9164,-19.7913 21.4374,-24.5242 26.4578,-29.4023"/>
</g>
<!-- Node3 -->
<g id="node3" class="node"><title>Node3</title>
<polygon fill="none" stroke="#bfbfbf" points="17.5,-56.5 17.5,-75.5 52.5,-75.5 52.5,-56.5 17.5,-56.5"/>
<text text-anchor="middle" x="35" y="-63.5" font-family="Helvetica,sans-Serif" font-size="10.00">map</text>
</g>
<!-- Node1&#45;&gt;Node3 -->
<g id="edge2" class="edge"><title>Node1&#45;&gt;Node3</title>
<path fill="none" stroke="midnightblue" d="M60.881,-112.083C56.5925,-104.613 50.3418,-93.7244 45.0577,-84.5199"/>
<polygon fill="midnightblue" stroke="midnightblue" points="48.0379,-82.6811 40.0238,-75.7511 41.9671,-86.1662 48.0379,-82.6811"/>
</g>
<!-- Node4 -->
<g id="node4" class="node"><title>Node4</title>
<polygon fill="none" stroke="#bfbfbf" points="71,-56.5 71,-75.5 123,-75.5 123,-56.5 71,-56.5"/>
<text text-anchor="middle" x="97" y="-63.5" font-family="Helvetica,sans-Serif" font-size="10.00">memory</text>
</g>
<!-- Node1&#45;&gt;Node4 -->
<g id="edge3" class="edge"><title>Node1&#45;&gt;Node4</title>
<path fill="none" stroke="midnightblue" d="M71.119,-112.083C75.4075,-104.613 81.6582,-93.7244 86.9423,-84.5199"/>
<polygon fill="midnightblue" stroke="midnightblue" points="90.0329,-86.1662 91.9762,-75.7511 83.9621,-82.6811 90.0329,-86.1662"/>
</g>
<!-- Node5 -->
<g id="node5" class="node"><title>Node5</title>
<g id="a_node5"><a xlink:href="canvas__primitives_8h.html" target="_top" xlink:title="canvas_primitives.h">
<polygon fill="none" stroke="black" points="141,-56.5 141,-75.5 245,-75.5 245,-56.5 141,-56.5"/>
<text text-anchor="middle" x="193" y="-63.5" font-family="Helvetica,sans-Serif" font-size="10.00">canvas_primitives.h</text>
</a>
</g>
</g>
<!-- Node1&#45;&gt;Node5 -->
<g id="edge4" class="edge"><title>Node1&#45;&gt;Node5</title>
<path fill="none" stroke="midnightblue" d="M86.1235,-112.444C107.024,-103.557 139.935,-89.5632 163.716,-79.4514"/>
<polygon fill="midnightblue" stroke="midnightblue" points="165.138,-82.6504 172.971,-75.5164 162.398,-76.2085 165.138,-82.6504"/>
</g>
<!-- Node5&#45;&gt;Node2 -->
<g id="edge6" class="edge"><title>Node5&#45;&gt;Node2</title>
<path fill="none" stroke="midnightblue" d="M168.915,-56.4435C142.407,-47.0262 99.7581,-31.8746 71.074,-21.6842"/>
<polygon fill="midnightblue" stroke="midnightblue" points="72.1546,-18.3538 61.5599,-18.3042 69.8112,-24.9499 72.1546,-18.3538"/>
</g>
<!-- Node6 -->
<g id="node6" class="node"><title>Node6</title>
<polygon fill="none" stroke="#bfbfbf" points="132,-0.5 132,-19.5 186,-19.5 186,-0.5 132,-0.5"/>
<text text-anchor="middle" x="159" y="-7.5" font-family="Helvetica,sans-Serif" font-size="10.00">iostream</text>
</g>
<!-- Node5&#45;&gt;Node6 -->
<g id="edge5" class="edge"><title>Node5&#45;&gt;Node6</title>
<path fill="none" stroke="midnightblue" d="M187.386,-56.083C182.633,-48.5341 175.682,-37.4948 169.848,-28.2298"/>
<polygon fill="midnightblue" stroke="midnightblue" points="172.8,-26.3486 164.51,-19.7511 166.876,-30.0783 172.8,-26.3486"/>
</g>
<!-- Node7 -->
<g id="node7" class="node"><title>Node7</title>
<polygon fill="none" stroke="#bfbfbf" points="204,-0.5 204,-19.5 248,-19.5 248,-0.5 204,-0.5"/>
<text text-anchor="middle" x="226" y="-7.5" font-family="Helvetica,sans-Serif" font-size="10.00">vector</text>
</g>
<!-- Node5&#45;&gt;Node7 -->
<g id="edge7" class="edge"><title>Node5&#45;&gt;Node7</title>
<path fill="none" stroke="midnightblue" d="M198.449,-56.083C203.014,-48.6127 209.668,-37.7244 215.293,-28.5199"/>
<polygon fill="midnightblue" stroke="midnightblue" points="218.424,-30.109 220.652,-19.7511 212.451,-26.4588 218.424,-30.109"/>
</g>
</g>
</svg>
