<?xml version="1.0" encoding="UTF-8" standalone="no"?>
<!DOCTYPE svg PUBLIC "-//W3C//DTD SVG 1.1//EN"
 "http://www.w3.org/Graphics/SVG/1.1/DTD/svg11.dtd">
<!-- Generated by graphviz version 2.36.0 (20140111.2315)
 -->
<!-- Title: include/document_model.h Pages: 1 -->
<svg width="393pt" height="196pt"
 viewBox="0.00 0.00 393.00 196.00" xmlns="http://www.w3.org/2000/svg" xmlns:xlink="http://www.w3.org/1999/xlink">
<g id="graph0" class="graph" transform="scale(1 1) rotate(0) translate(4 192)">
<title>include/document_model.h</title>
<!-- Node1 -->
<g id="node1" class="node"><title>Node1</title>
<polygon fill="#bfbfbf" stroke="black" points="100.5,-168.5 100.5,-187.5 233.5,-187.5 233.5,-168.5 100.5,-168.5"/>
<text text-anchor="middle" x="167" y="-175.5" font-family="Helvetica,sans-Serif" font-size="10.00">include/document_model.h</text>
</g>
<!-- Node2 -->
<g id="node2" class="node"><title>Node2</title>
<g id="a_node2"><a xlink:href="controller_8h.html" target="_top" xlink:title="include/controller.h">
<polygon fill="none" stroke="black" points="7,-56.5 7,-75.5 105,-75.5 105,-56.5 7,-56.5"/>
<text text-anchor="middle" x="56" y="-63.5" font-family="Helvetica,sans-Serif" font-size="10.00">include/controller.h</text>
</a>
</g>
</g>
<!-- Node1&#45;&gt;Node2 -->
<g id="edge1" class="edge"><title>Node1&#45;&gt;Node2</title>
<path fill="none" stroke="midnightblue" d="M149.874,-161.316C140.629,-152.756 129.078,-141.912 119,-132 98.832,-112.164 75.879,-88.0877 64.0282,-75.5402"/>
<polygon fill="midnightblue" stroke="midnightblue" points="147.584,-163.965 157.31,-168.168 152.328,-158.818 147.584,-163.965"/>
</g>
<!-- Node4 -->
<g id="node4" class="node"><title>Node4</title>
<g id="a_node4"><a xlink:href="gui_8cpp.html" target="_top" xlink:title="src/gui.cpp">
<polygon fill="none" stroke="black" points="110.5,-0.5 110.5,-19.5 175.5,-19.5 175.5,-0.5 110.5,-0.5"/>
<text text-anchor="middle" x="143" y="-7.5" font-family="Helvetica,sans-Serif" font-size="10.00">src/gui.cpp</text>
</a>
</g>
</g>
<!-- Node1&#45;&gt;Node4 -->
<g id="edge9" class="edge"><title>Node1&#45;&gt;Node4</title>
<path fill="none" stroke="midnightblue" d="M160.3,-158.679C157.609,-150.603 154.737,-140.935 153,-132 144.914,-90.4109 143.361,-39.5368 143.067,-19.5965"/>
<polygon fill="midnightblue" stroke="midnightblue" points="157.019,-159.899 163.624,-168.183 163.627,-157.588 157.019,-159.899"/>
</g>
<!-- Node5 -->
<g id="node5" class="node"><title>Node5</title>
<g id="a_node5"><a xlink:href="view_8h.html" target="_top" xlink:title="include/view.h">
<polygon fill="none" stroke="black" points="161.5,-112.5 161.5,-131.5 240.5,-131.5 240.5,-112.5 161.5,-112.5"/>
<text text-anchor="middle" x="201" y="-119.5" font-family="Helvetica,sans-Serif" font-size="10.00">include/view.h</text>
</a>
</g>
</g>
<!-- Node1&#45;&gt;Node5 -->
<g id="edge4" class="edge"><title>Node1&#45;&gt;Node5</title>
<path fill="none" stroke="midnightblue" d="M177.977,-159.566C183.827,-150.275 190.77,-139.248 195.49,-131.751"/>
<polygon fill="midnightblue" stroke="midnightblue" points="174.981,-157.756 172.614,-168.083 180.904,-161.486 174.981,-157.756"/>
</g>
<!-- Node7 -->
<g id="node7" class="node"><title>Node7</title>
<g id="a_node7"><a xlink:href="document__model_8cpp.html" target="_top" xlink:title="src/document_model.cpp">
<polygon fill="none" stroke="black" points="259,-112.5 259,-131.5 385,-131.5 385,-112.5 259,-112.5"/>
<text text-anchor="middle" x="322" y="-119.5" font-family="Helvetica,sans-Serif" font-size="10.00">src/document_model.cpp</text>
</a>
</g>
</g>
<!-- Node1&#45;&gt;Node7 -->
<g id="edge8" class="edge"><title>Node1&#45;&gt;Node7</title>
<path fill="none" stroke="midnightblue" d="M201.332,-165.039C230.497,-154.879 271.637,-140.546 297.555,-131.516"/>
<polygon fill="midnightblue" stroke="midnightblue" points="199.852,-161.848 191.56,-168.444 202.155,-168.459 199.852,-161.848"/>
</g>
<!-- Node3 -->
<g id="node3" class="node"><title>Node3</title>
<g id="a_node3"><a xlink:href="controller_8cpp.html" target="_top" xlink:title="src/controller.cpp">
<polygon fill="none" stroke="black" points="0,-0.5 0,-19.5 92,-19.5 92,-0.5 0,-0.5"/>
<text text-anchor="middle" x="46" y="-7.5" font-family="Helvetica,sans-Serif" font-size="10.00">src/controller.cpp</text>
</a>
</g>
</g>
<!-- Node2&#45;&gt;Node3 -->
<g id="edge2" class="edge"><title>Node2&#45;&gt;Node3</title>
<path fill="none" stroke="midnightblue" d="M52.5001,-46.1005C50.84,-37.1357 48.9367,-26.8579 47.6206,-19.7511"/>
<polygon fill="midnightblue" stroke="midnightblue" points="49.0862,-46.8875 54.3487,-56.083 55.9692,-45.6128 49.0862,-46.8875"/>
</g>
<!-- Node2&#45;&gt;Node4 -->
<g id="edge3" class="edge"><title>Node2&#45;&gt;Node4</title>
<path fill="none" stroke="midnightblue" d="M78.7158,-50.9005C94.6689,-40.9986 115.497,-28.0705 129.057,-19.6545"/>
<polygon fill="midnightblue" stroke="midnightblue" points="76.6287,-48.0765 69.9781,-56.324 80.3203,-54.024 76.6287,-48.0765"/>
</g>
<!-- Node5&#45;&gt;Node2 -->
<g id="edge5" class="edge"><title>Node5&#45;&gt;Node2</title>
<path fill="none" stroke="midnightblue" d="M168.525,-108.906C141.264,-98.7536 103.008,-84.5063 78.8682,-75.5164"/>
<polygon fill="midnightblue" stroke="midnightblue" points="167.432,-112.233 178.024,-112.444 169.875,-105.674 167.432,-112.233"/>
</g>
<!-- Node5&#45;&gt;Node4 -->
<g id="edge6" class="edge"><title>Node5&#45;&gt;Node4</title>
<path fill="none" stroke="midnightblue" d="M191.678,-103.32C179.049,-79.3697 156.998,-37.5484 147.53,-19.5914"/>
<polygon fill="midnightblue" stroke="midnightblue" points="188.689,-105.155 196.449,-112.368 194.881,-101.89 188.689,-105.155"/>
</g>
<!-- Node6 -->
<g id="node6" class="node"><title>Node6</title>
<g id="a_node6"><a xlink:href="view_8cpp.html" target="_top" xlink:title="src/view.cpp">
<polygon fill="none" stroke="black" points="199,-56.5 199,-75.5 271,-75.5 271,-56.5 199,-56.5"/>
<text text-anchor="middle" x="235" y="-63.5" font-family="Helvetica,sans-Serif" font-size="10.00">src/view.cpp</text>
</a>
</g>
</g>
<!-- Node5&#45;&gt;Node6 -->
<g id="edge7" class="edge"><title>Node5&#45;&gt;Node6</title>
<path fill="none" stroke="midnightblue" d="M211.977,-103.566C217.827,-94.2747 224.77,-83.2484 229.49,-75.7511"/>
<polygon fill="midnightblue" stroke="midnightblue" points="208.981,-101.756 206.614,-112.083 214.904,-105.486 208.981,-101.756"/>
</g>
</g>
</svg>
