<?xml version="1.0" encoding="UTF-8" standalone="no"?>
<!DOCTYPE svg PUBLIC "-//W3C//DTD SVG 1.1//EN"
 "http://www.w3.org/Graphics/SVG/1.1/DTD/svg11.dtd">
<!-- Generated by graphviz version 2.36.0 (20140111.2315)
 -->
<!-- Title: Graphical Class Hierarchy Pages: 1 -->
<svg width="256pt" height="142pt"
 viewBox="0.00 0.00 256.00 142.00" xmlns="http://www.w3.org/2000/svg" xmlns:xlink="http://www.w3.org/1999/xlink">
<g id="graph0" class="graph" transform="scale(1 1) rotate(0) translate(4 138)">
<title>Graphical Class Hierarchy</title>
<!-- Node1 -->
<g id="node1" class="node"><title>Node1</title>
<g id="a_node1"><a xlink:href="classeditor_1_1_canvas_primitive.html" target="_top" xlink:title="editor::CanvasPrimitive">
<polygon fill="none" stroke="black" points="0.5,-57.5 0.5,-76.5 119.5,-76.5 119.5,-57.5 0.5,-57.5"/>
<text text-anchor="middle" x="60" y="-64.5" font-family="Helvetica,sans-Serif" font-size="10.00">editor::CanvasPrimitive</text>
</a>
</g>
</g>
<!-- Node2 -->
<g id="node2" class="node"><title>Node2</title>
<g id="a_node2"><a xlink:href="classeditor_1_1_circle.html" target="_top" xlink:title="editor::Circle">
<polygon fill="none" stroke="black" points="166,-114.5 166,-133.5 238,-133.5 238,-114.5 166,-114.5"/>
<text text-anchor="middle" x="202" y="-121.5" font-family="Helvetica,sans-Serif" font-size="10.00">editor::Circle</text>
</a>
</g>
</g>
<!-- Node1&#45;&gt;Node2 -->
<g id="edge1" class="edge"><title>Node1&#45;&gt;Node2</title>
<path fill="none" stroke="#8b1a1a" d="M93.7671,-80.3409C119.444,-90.795 154.548,-105.087 177.491,-114.428"/>
<polygon fill="#8b1a1a" stroke="#8b1a1a" points="95.0145,-77.0698 84.4329,-76.5405 92.3748,-83.5531 95.0145,-77.0698"/>
</g>
<!-- Node3 -->
<g id="node3" class="node"><title>Node3</title>
<g id="a_node3"><a xlink:href="classeditor_1_1_line.html" target="_top" xlink:title="editor::Line">
<polygon fill="none" stroke="black" points="169.5,-76.5 169.5,-95.5 234.5,-95.5 234.5,-76.5 169.5,-76.5"/>
<text text-anchor="middle" x="202" y="-83.5" font-family="Helvetica,sans-Serif" font-size="10.00">editor::Line</text>
</a>
</g>
</g>
<!-- Node1&#45;&gt;Node3 -->
<g id="edge2" class="edge"><title>Node1&#45;&gt;Node3</title>
<path fill="none" stroke="#8b1a1a" d="M129.647,-76.3164C143.558,-78.2043 157.541,-80.102 169.396,-81.7109"/>
<polygon fill="#8b1a1a" stroke="#8b1a1a" points="129.941,-72.8243 119.561,-74.9476 129,-79.7607 129.941,-72.8243"/>
</g>
<!-- Node4 -->
<g id="node4" class="node"><title>Node4</title>
<g id="a_node4"><a xlink:href="classeditor_1_1_polygon.html" target="_top" xlink:title="editor::Polygon">
<polygon fill="none" stroke="black" points="161,-38.5 161,-57.5 243,-57.5 243,-38.5 161,-38.5"/>
<text text-anchor="middle" x="202" y="-45.5" font-family="Helvetica,sans-Serif" font-size="10.00">editor::Polygon</text>
</a>
</g>
</g>
<!-- Node1&#45;&gt;Node4 -->
<g id="edge3" class="edge"><title>Node1&#45;&gt;Node4</title>
<path fill="none" stroke="#8b1a1a" d="M129.764,-57.6677C140.452,-56.2172 151.178,-54.7615 160.946,-53.4359"/>
<polygon fill="#8b1a1a" stroke="#8b1a1a" points="129,-54.2393 119.561,-59.0524 129.941,-61.1757 129,-54.2393"/>
</g>
<!-- Node5 -->
<g id="node5" class="node"><title>Node5</title>
<g id="a_node5"><a xlink:href="classeditor_1_1_rectangle.html" target="_top" xlink:title="editor::Rectangle">
<polygon fill="none" stroke="black" points="156.5,-0.5 156.5,-19.5 247.5,-19.5 247.5,-0.5 156.5,-0.5"/>
<text text-anchor="middle" x="202" y="-7.5" font-family="Helvetica,sans-Serif" font-size="10.00">editor::Rectangle</text>
</a>
</g>
</g>
<!-- Node1&#45;&gt;Node5 -->
<g id="edge4" class="edge"><title>Node1&#45;&gt;Node5</title>
<path fill="none" stroke="#8b1a1a" d="M93.7671,-53.6591C119.444,-43.205 154.548,-28.9126 177.491,-19.5716"/>
<polygon fill="#8b1a1a" stroke="#8b1a1a" points="92.3748,-50.4469 84.4329,-57.4595 95.0145,-56.9302 92.3748,-50.4469"/>
</g>
</g>
</svg>
