<?xml version="1.0" encoding="UTF-8" standalone="no"?>
<!DOCTYPE svg PUBLIC "-//W3C//DTD SVG 1.1//EN"
 "http://www.w3.org/Graphics/SVG/1.1/DTD/svg11.dtd">
<!-- Generated by graphviz version 2.36.0 (20140111.2315)
 -->
<!-- Title: Graphical Class Hierarchy Pages: 1 -->
<svg width="324pt" height="142pt"
 viewBox="0.00 0.00 324.00 142.00" xmlns="http://www.w3.org/2000/svg" xmlns:xlink="http://www.w3.org/1999/xlink">
<g id="graph0" class="graph" transform="scale(1 1) rotate(0) translate(4 138)">
<title>Graphical Class Hierarchy</title>
<!-- Node1 -->
<g id="node1" class="node"><title>Node1</title>
<g id="a_node1"><a xlink:href="classeditor_1_1figures_1_1_canvas_primitive.html" target="_top" xlink:title="editor::figures::CanvasPrimitive">
<polygon fill="none" stroke="black" points="0,-57.5 0,-76.5 154,-76.5 154,-57.5 0,-57.5"/>
<text text-anchor="middle" x="77" y="-64.5" font-family="Helvetica,sans-Serif" font-size="10.00">editor::figures::CanvasPrimitive</text>
</a>
</g>
</g>
<!-- Node2 -->
<g id="node2" class="node"><title>Node2</title>
<g id="a_node2"><a xlink:href="classeditor_1_1figures_1_1_circle.html" target="_top" xlink:title="editor::figures::Circle">
<polygon fill="none" stroke="black" points="199.5,-114.5 199.5,-133.5 306.5,-133.5 306.5,-114.5 199.5,-114.5"/>
<text text-anchor="middle" x="253" y="-121.5" font-family="Helvetica,sans-Serif" font-size="10.00">editor::figures::Circle</text>
</a>
</g>
</g>
<!-- Node1&#45;&gt;Node2 -->
<g id="edge1" class="edge"><title>Node1&#45;&gt;Node2</title>
<path fill="none" stroke="midnightblue" d="M115.066,-79.8846C136.838,-87.3754 164.921,-96.9048 190,-105 199.749,-108.147 210.402,-111.458 220.083,-114.418"/>
<polygon fill="midnightblue" stroke="midnightblue" points="116.135,-76.5511 105.541,-76.5988 113.853,-83.1685 116.135,-76.5511"/>
</g>
<!-- Node3 -->
<g id="node3" class="node"><title>Node3</title>
<g id="a_node3"><a xlink:href="classeditor_1_1figures_1_1_line.html" target="_top" xlink:title="editor::figures::Line">
<polygon fill="none" stroke="black" points="203,-76.5 203,-95.5 303,-95.5 303,-76.5 203,-76.5"/>
<text text-anchor="middle" x="253" y="-83.5" font-family="Helvetica,sans-Serif" font-size="10.00">editor::figures::Line</text>
</a>
</g>
</g>
<!-- Node1&#45;&gt;Node3 -->
<g id="edge2" class="edge"><title>Node1&#45;&gt;Node3</title>
<path fill="none" stroke="midnightblue" d="M164.198,-76.4124C177.481,-77.8629 190.789,-79.316 202.883,-80.6366"/>
<polygon fill="midnightblue" stroke="midnightblue" points="164.387,-72.9123 154.066,-75.306 163.627,-79.8709 164.387,-72.9123"/>
</g>
<!-- Node4 -->
<g id="node4" class="node"><title>Node4</title>
<g id="a_node4"><a xlink:href="classeditor_1_1figures_1_1_polygon.html" target="_top" xlink:title="editor::figures::Polygon">
<polygon fill="none" stroke="black" points="194.5,-38.5 194.5,-57.5 311.5,-57.5 311.5,-38.5 194.5,-38.5"/>
<text text-anchor="middle" x="253" y="-45.5" font-family="Helvetica,sans-Serif" font-size="10.00">editor::figures::Polygon</text>
</a>
</g>
</g>
<!-- Node1&#45;&gt;Node4 -->
<g id="edge3" class="edge"><title>Node1&#45;&gt;Node4</title>
<path fill="none" stroke="midnightblue" d="M164.263,-57.5805C174.485,-56.4643 184.721,-55.3466 194.406,-54.289"/>
<polygon fill="midnightblue" stroke="midnightblue" points="163.627,-54.1291 154.066,-58.694 164.387,-61.0877 163.627,-54.1291"/>
</g>
<!-- Node5 -->
<g id="node5" class="node"><title>Node5</title>
<g id="a_node5"><a xlink:href="classeditor_1_1figures_1_1_rectangle.html" target="_top" xlink:title="editor::figures::Rectangle">
<polygon fill="none" stroke="black" points="190,-0.5 190,-19.5 316,-19.5 316,-0.5 190,-0.5"/>
<text text-anchor="middle" x="253" y="-7.5" font-family="Helvetica,sans-Serif" font-size="10.00">editor::figures::Rectangle</text>
</a>
</g>
</g>
<!-- Node1&#45;&gt;Node5 -->
<g id="edge4" class="edge"><title>Node1&#45;&gt;Node5</title>
<path fill="none" stroke="midnightblue" d="M115.066,-54.1154C136.838,-46.6246 164.921,-37.0952 190,-29 199.749,-25.853 210.402,-22.5425 220.083,-19.5824"/>
<polygon fill="midnightblue" stroke="midnightblue" points="113.853,-50.8315 105.541,-57.4012 116.135,-57.4489 113.853,-50.8315"/>
</g>
</g>
</svg>
