<?xml version="1.0" encoding="UTF-8" standalone="no"?>
<!DOCTYPE svg PUBLIC "-//W3C//DTD SVG 1.1//EN"
 "http://www.w3.org/Graphics/SVG/1.1/DTD/svg11.dtd">
<!-- Generated by graphviz version 2.36.0 (20140111.2315)
 -->
<!-- Title: src/main.cpp Pages: 1 -->
<svg width="305pt" height="308pt"
 viewBox="0.00 0.00 305.00 308.00" xmlns="http://www.w3.org/2000/svg" xmlns:xlink="http://www.w3.org/1999/xlink">
<g id="graph0" class="graph" transform="scale(1 1) rotate(0) translate(4 304)">
<title>src/main.cpp</title>
<!-- Node1 -->
<g id="node1" class="node"><title>Node1</title>
<polygon fill="#bfbfbf" stroke="black" points="81.5,-280.5 81.5,-299.5 154.5,-299.5 154.5,-280.5 81.5,-280.5"/>
<text text-anchor="middle" x="118" y="-287.5" font-family="Helvetica,sans-Serif" font-size="10.00">src/main.cpp</text>
</g>
<!-- Node2 -->
<g id="node2" class="node"><title>Node2</title>
<g id="a_node2"><a xlink:href="model_8h.html" target="_top" xlink:title="model.h">
<polygon fill="none" stroke="black" points="106.5,-112.5 106.5,-131.5 157.5,-131.5 157.5,-112.5 106.5,-112.5"/>
<text text-anchor="middle" x="132" y="-119.5" font-family="Helvetica,sans-Serif" font-size="10.00">model.h</text>
</a>
</g>
</g>
<!-- Node1&#45;&gt;Node2 -->
<g id="edge1" class="edge"><title>Node1&#45;&gt;Node2</title>
<path fill="none" stroke="midnightblue" d="M113.423,-280.252C103.458,-259.994 81.7944,-208.497 96,-168 99.7852,-157.209 107.367,-147.084 114.6,-139.181"/>
<polygon fill="midnightblue" stroke="midnightblue" points="117.326,-141.4 121.838,-131.815 112.333,-136.494 117.326,-141.4"/>
</g>
<!-- Node5 -->
<g id="node5" class="node"><title>Node5</title>
<polygon fill="none" stroke="#bfbfbf" points="245,-56.5 245,-75.5 297,-75.5 297,-56.5 245,-56.5"/>
<text text-anchor="middle" x="271" y="-63.5" font-family="Helvetica,sans-Serif" font-size="10.00">memory</text>
</g>
<!-- Node1&#45;&gt;Node5 -->
<g id="edge16" class="edge"><title>Node1&#45;&gt;Node5</title>
<path fill="none" stroke="midnightblue" d="M154.781,-281.098C176.6,-274.605 203.194,-263.243 220,-244 260.446,-197.691 268.906,-121.103 270.612,-85.8389"/>
<polygon fill="midnightblue" stroke="midnightblue" points="274.119,-85.6825 270.967,-75.5672 267.123,-85.44 274.119,-85.6825"/>
</g>
<!-- Node6 -->
<g id="node6" class="node"><title>Node6</title>
<g id="a_node6"><a xlink:href="canvas__primitives_8h.html" target="_top" xlink:title="canvas_primitives.h">
<polygon fill="none" stroke="black" points="0,-56.5 0,-75.5 104,-75.5 104,-56.5 0,-56.5"/>
<text text-anchor="middle" x="52" y="-63.5" font-family="Helvetica,sans-Serif" font-size="10.00">canvas_primitives.h</text>
</a>
</g>
</g>
<!-- Node1&#45;&gt;Node6 -->
<g id="edge15" class="edge"><title>Node1&#45;&gt;Node6</title>
<path fill="none" stroke="midnightblue" d="M111.73,-280.476C105.588,-271.737 96.3887,-257.545 91,-244 69.0452,-188.816 58.2643,-118.789 54.115,-85.8034"/>
<polygon fill="midnightblue" stroke="midnightblue" points="57.5775,-85.2805 52.9164,-75.7661 50.6269,-86.1106 57.5775,-85.2805"/>
</g>
<!-- Node8 -->
<g id="node8" class="node"><title>Node8</title>
<g id="a_node8"><a xlink:href="view_8h.html" target="_top" xlink:title="view.h">
<polygon fill="none" stroke="black" points="105.5,-168.5 105.5,-187.5 150.5,-187.5 150.5,-168.5 105.5,-168.5"/>
<text text-anchor="middle" x="128" y="-175.5" font-family="Helvetica,sans-Serif" font-size="10.00">view.h</text>
</a>
</g>
</g>
<!-- Node1&#45;&gt;Node8 -->
<g id="edge9" class="edge"><title>Node1&#45;&gt;Node8</title>
<path fill="none" stroke="midnightblue" d="M118.785,-280.368C120.398,-262.617 124.121,-221.666 126.309,-197.597"/>
<polygon fill="midnightblue" stroke="midnightblue" points="129.799,-197.867 127.219,-187.591 122.828,-197.233 129.799,-197.867"/>
</g>
<!-- Node9 -->
<g id="node9" class="node"><title>Node9</title>
<g id="a_node9"><a xlink:href="controller_8h.html" target="_top" xlink:title="controller.h">
<polygon fill="none" stroke="black" points="146.5,-224.5 146.5,-243.5 211.5,-243.5 211.5,-224.5 146.5,-224.5"/>
<text text-anchor="middle" x="179" y="-231.5" font-family="Helvetica,sans-Serif" font-size="10.00">controller.h</text>
</a>
</g>
</g>
<!-- Node1&#45;&gt;Node9 -->
<g id="edge11" class="edge"><title>Node1&#45;&gt;Node9</title>
<path fill="none" stroke="midnightblue" d="M127.801,-280.324C136.818,-272.341 150.406,-260.313 161.318,-250.653"/>
<polygon fill="midnightblue" stroke="midnightblue" points="163.853,-253.083 169.021,-243.834 159.213,-247.842 163.853,-253.083"/>
</g>
<!-- Node3 -->
<g id="node3" class="node"><title>Node3</title>
<polygon fill="none" stroke="#bfbfbf" points="157.5,-0.5 157.5,-19.5 198.5,-19.5 198.5,-0.5 157.5,-0.5"/>
<text text-anchor="middle" x="178" y="-7.5" font-family="Helvetica,sans-Serif" font-size="10.00">string</text>
</g>
<!-- Node2&#45;&gt;Node3 -->
<g id="edge2" class="edge"><title>Node2&#45;&gt;Node3</title>
<path fill="none" stroke="midnightblue" d="M135.61,-112.368C143.1,-94.4563 160.468,-52.9233 170.494,-28.9482"/>
<polygon fill="midnightblue" stroke="midnightblue" points="173.778,-30.1676 174.407,-19.5914 167.32,-27.4669 173.778,-30.1676"/>
</g>
<!-- Node4 -->
<g id="node4" class="node"><title>Node4</title>
<polygon fill="none" stroke="#bfbfbf" points="95,-0.5 95,-19.5 139,-19.5 139,-0.5 95,-0.5"/>
<text text-anchor="middle" x="117" y="-7.5" font-family="Helvetica,sans-Serif" font-size="10.00">vector</text>
</g>
<!-- Node2&#45;&gt;Node4 -->
<g id="edge3" class="edge"><title>Node2&#45;&gt;Node4</title>
<path fill="none" stroke="midnightblue" d="M130.823,-112.368C128.402,-94.617 122.818,-53.6664 119.536,-29.5974"/>
<polygon fill="midnightblue" stroke="midnightblue" points="122.991,-29.0268 118.172,-19.5914 116.055,-29.9726 122.991,-29.0268"/>
</g>
<!-- Node2&#45;&gt;Node5 -->
<g id="edge4" class="edge"><title>Node2&#45;&gt;Node5</title>
<path fill="none" stroke="midnightblue" d="M154.025,-112.444C177.104,-103.478 213.562,-89.314 239.641,-79.1827"/>
<polygon fill="midnightblue" stroke="midnightblue" points="241.024,-82.4002 249.078,-75.5164 238.489,-75.8753 241.024,-82.4002"/>
</g>
<!-- Node2&#45;&gt;Node6 -->
<g id="edge5" class="edge"><title>Node2&#45;&gt;Node6</title>
<path fill="none" stroke="midnightblue" d="M119.147,-112.324C106.784,-103.979 87.8699,-91.2122 73.2628,-81.3524"/>
<polygon fill="midnightblue" stroke="midnightblue" points="75.0682,-78.3483 64.8215,-75.6545 71.1518,-84.1503 75.0682,-78.3483"/>
</g>
<!-- Node6&#45;&gt;Node3 -->
<g id="edge7" class="edge"><title>Node6&#45;&gt;Node3</title>
<path fill="none" stroke="midnightblue" d="M71.9651,-56.4435C92.6091,-47.5961 125.063,-33.6875 148.632,-23.5865"/>
<polygon fill="midnightblue" stroke="midnightblue" points="150.316,-26.6727 158.128,-19.5164 147.558,-20.2387 150.316,-26.6727"/>
</g>
<!-- Node6&#45;&gt;Node4 -->
<g id="edge8" class="edge"><title>Node6&#45;&gt;Node4</title>
<path fill="none" stroke="midnightblue" d="M62.4434,-56.324C72.1462,-48.2631 86.8153,-36.0765 98.4997,-26.3695"/>
<polygon fill="midnightblue" stroke="midnightblue" points="100.911,-28.9163 106.367,-19.8339 96.4381,-23.532 100.911,-28.9163"/>
</g>
<!-- Node7 -->
<g id="node7" class="node"><title>Node7</title>
<polygon fill="none" stroke="#bfbfbf" points="23,-0.5 23,-19.5 77,-19.5 77,-0.5 23,-0.5"/>
<text text-anchor="middle" x="50" y="-7.5" font-family="Helvetica,sans-Serif" font-size="10.00">iostream</text>
</g>
<!-- Node6&#45;&gt;Node7 -->
<g id="edge6" class="edge"><title>Node6&#45;&gt;Node7</title>
<path fill="none" stroke="midnightblue" d="M51.6697,-56.083C51.4076,-49.0059 51.0319,-38.8611 50.7032,-29.9865"/>
<polygon fill="midnightblue" stroke="midnightblue" points="54.1919,-29.6147 50.3241,-19.7511 47.1967,-29.8738 54.1919,-29.6147"/>
</g>
<!-- Node8&#45;&gt;Node2 -->
<g id="edge10" class="edge"><title>Node8&#45;&gt;Node2</title>
<path fill="none" stroke="midnightblue" d="M128.661,-168.083C129.185,-161.006 129.936,-150.861 130.594,-141.986"/>
<polygon fill="midnightblue" stroke="midnightblue" points="134.103,-141.982 131.352,-131.751 127.123,-141.465 134.103,-141.982"/>
</g>
<!-- Node9&#45;&gt;Node2 -->
<g id="edge13" class="edge"><title>Node9&#45;&gt;Node2</title>
<path fill="none" stroke="midnightblue" d="M177.047,-224.347C174.027,-211.66 167.655,-187.41 159,-168 154.733,-158.431 148.851,-148.378 143.666,-140.207"/>
<polygon fill="midnightblue" stroke="midnightblue" points="146.448,-138.066 138.038,-131.622 140.593,-141.904 146.448,-138.066"/>
</g>
<!-- Node9&#45;&gt;Node3 -->
<g id="edge12" class="edge"><title>Node9&#45;&gt;Node3</title>
<path fill="none" stroke="midnightblue" d="M178.961,-224.297C178.814,-191.633 178.292,-75.8661 178.085,-29.9573"/>
<polygon fill="midnightblue" stroke="midnightblue" points="181.585,-29.8678 178.04,-19.8837 174.585,-29.8994 181.585,-29.8678"/>
</g>
<!-- Node9&#45;&gt;Node8 -->
<g id="edge14" class="edge"><title>Node9&#45;&gt;Node8</title>
<path fill="none" stroke="midnightblue" d="M170.578,-224.083C163.152,-216.22 152.148,-204.569 143.188,-195.081"/>
<polygon fill="midnightblue" stroke="midnightblue" points="145.676,-192.618 136.265,-187.751 140.587,-197.424 145.676,-192.618"/>
</g>
</g>
</svg>
