<?xml version="1.0" encoding="UTF-8" standalone="no"?>
<!DOCTYPE svg PUBLIC "-//W3C//DTD SVG 1.1//EN"
 "http://www.w3.org/Graphics/SVG/1.1/DTD/svg11.dtd">
<!-- Generated by graphviz version 2.36.0 (20140111.2315)
 -->
<!-- Title: src/main.cpp Pages: 1 -->
<svg width="299pt" height="308pt"
 viewBox="0.00 0.00 299.00 308.00" xmlns="http://www.w3.org/2000/svg" xmlns:xlink="http://www.w3.org/1999/xlink">
<g id="graph0" class="graph" transform="scale(1 1) rotate(0) translate(4 304)">
<title>src/main.cpp</title>
<!-- Node1 -->
<g id="node1" class="node"><title>Node1</title>
<polygon fill="#bfbfbf" stroke="black" points="56.5,-280.5 56.5,-299.5 129.5,-299.5 129.5,-280.5 56.5,-280.5"/>
<text text-anchor="middle" x="93" y="-287.5" font-family="Helvetica,sans-Serif" font-size="10.00">src/main.cpp</text>
</g>
<!-- Node2 -->
<g id="node2" class="node"><title>Node2</title>
<g id="a_node2"><a xlink:href="document__model_8h.html" target="_top" xlink:title="document_model.h">
<polygon fill="none" stroke="black" points="33.5,-112.5 33.5,-131.5 132.5,-131.5 132.5,-112.5 33.5,-112.5"/>
<text text-anchor="middle" x="83" y="-119.5" font-family="Helvetica,sans-Serif" font-size="10.00">document_model.h</text>
</a>
</g>
</g>
<!-- Node1&#45;&gt;Node2 -->
<g id="edge1" class="edge"><title>Node1&#45;&gt;Node2</title>
<path fill="none" stroke="midnightblue" d="M97.2543,-280.311C106.524,-260.176 126.731,-208.921 114,-168 110.771,-157.622 104.224,-147.521 97.9753,-139.527"/>
<polygon fill="midnightblue" stroke="midnightblue" points="100.584,-137.19 91.4827,-131.766 95.2149,-141.682 100.584,-137.19"/>
</g>
<!-- Node9 -->
<g id="node9" class="node"><title>Node9</title>
<g id="a_node9"><a xlink:href="view_8h.html" target="_top" xlink:title="view.h">
<polygon fill="none" stroke="black" points="60.5,-168.5 60.5,-187.5 105.5,-187.5 105.5,-168.5 60.5,-168.5"/>
<text text-anchor="middle" x="83" y="-175.5" font-family="Helvetica,sans-Serif" font-size="10.00">view.h</text>
</a>
</g>
</g>
<!-- Node1&#45;&gt;Node9 -->
<g id="edge9" class="edge"><title>Node1&#45;&gt;Node9</title>
<path fill="none" stroke="midnightblue" d="M92.2153,-280.368C90.6015,-262.617 86.8788,-221.666 84.6907,-197.597"/>
<polygon fill="midnightblue" stroke="midnightblue" points="88.1721,-197.233 83.781,-187.591 81.2009,-197.867 88.1721,-197.233"/>
</g>
<!-- Node10 -->
<g id="node10" class="node"><title>Node10</title>
<g id="a_node10"><a xlink:href="controller_8h.html" target="_top" xlink:title="controller.h">
<polygon fill="none" stroke="black" points="-0.5,-224.5 -0.5,-243.5 64.5,-243.5 64.5,-224.5 -0.5,-224.5"/>
<text text-anchor="middle" x="32" y="-231.5" font-family="Helvetica,sans-Serif" font-size="10.00">controller.h</text>
</a>
</g>
</g>
<!-- Node1&#45;&gt;Node10 -->
<g id="edge11" class="edge"><title>Node1&#45;&gt;Node10</title>
<path fill="none" stroke="midnightblue" d="M83.1993,-280.324C74.1819,-272.341 60.594,-260.313 49.682,-250.653"/>
<polygon fill="midnightblue" stroke="midnightblue" points="51.7866,-247.842 41.979,-243.834 47.1467,-253.083 51.7866,-247.842"/>
</g>
<!-- Node3 -->
<g id="node3" class="node"><title>Node3</title>
<polygon fill="none" stroke="#bfbfbf" points="11.5,-0.5 11.5,-19.5 52.5,-19.5 52.5,-0.5 11.5,-0.5"/>
<text text-anchor="middle" x="32" y="-7.5" font-family="Helvetica,sans-Serif" font-size="10.00">string</text>
</g>
<!-- Node2&#45;&gt;Node3 -->
<g id="edge2" class="edge"><title>Node2&#45;&gt;Node3</title>
<path fill="none" stroke="midnightblue" d="M75.426,-112.258C68.2468,-103.577 57.6055,-89.6303 51,-76 43.7898,-61.1218 38.7677,-42.9757 35.7055,-29.6413"/>
<polygon fill="midnightblue" stroke="midnightblue" points="39.104,-28.7959 33.5892,-19.7495 32.2589,-30.2605 39.104,-28.7959"/>
</g>
<!-- Node4 -->
<g id="node4" class="node"><title>Node4</title>
<polygon fill="none" stroke="#bfbfbf" points="60.5,-56.5 60.5,-75.5 95.5,-75.5 95.5,-56.5 60.5,-56.5"/>
<text text-anchor="middle" x="78" y="-63.5" font-family="Helvetica,sans-Serif" font-size="10.00">map</text>
</g>
<!-- Node2&#45;&gt;Node4 -->
<g id="edge3" class="edge"><title>Node2&#45;&gt;Node4</title>
<path fill="none" stroke="midnightblue" d="M82.1744,-112.083C81.5191,-105.006 80.5797,-94.8611 79.758,-85.9865"/>
<polygon fill="midnightblue" stroke="midnightblue" points="83.2174,-85.3858 78.8103,-75.7511 76.2473,-86.0312 83.2174,-85.3858"/>
</g>
<!-- Node5 -->
<g id="node5" class="node"><title>Node5</title>
<polygon fill="none" stroke="#bfbfbf" points="114,-56.5 114,-75.5 166,-75.5 166,-56.5 114,-56.5"/>
<text text-anchor="middle" x="140" y="-63.5" font-family="Helvetica,sans-Serif" font-size="10.00">memory</text>
</g>
<!-- Node2&#45;&gt;Node5 -->
<g id="edge4" class="edge"><title>Node2&#45;&gt;Node5</title>
<path fill="none" stroke="midnightblue" d="M92.158,-112.324C100.501,-104.42 113.032,-92.5482 123.177,-82.9377"/>
<polygon fill="midnightblue" stroke="midnightblue" points="125.823,-85.2522 130.675,-75.8339 121.009,-80.1705 125.823,-85.2522"/>
</g>
<!-- Node6 -->
<g id="node6" class="node"><title>Node6</title>
<g id="a_node6"><a xlink:href="canvas__primitives_8h.html" target="_top" xlink:title="canvas_primitives.h">
<polygon fill="none" stroke="black" points="184,-56.5 184,-75.5 288,-75.5 288,-56.5 184,-56.5"/>
<text text-anchor="middle" x="236" y="-63.5" font-family="Helvetica,sans-Serif" font-size="10.00">canvas_primitives.h</text>
</a>
</g>
</g>
<!-- Node2&#45;&gt;Node6 -->
<g id="edge5" class="edge"><title>Node2&#45;&gt;Node6</title>
<path fill="none" stroke="midnightblue" d="M107.243,-112.444C132.871,-103.399 173.485,-89.064 202.238,-78.9158"/>
<polygon fill="midnightblue" stroke="midnightblue" points="203.605,-82.1452 211.87,-75.5164 201.275,-75.5442 203.605,-82.1452"/>
</g>
<!-- Node6&#45;&gt;Node3 -->
<g id="edge7" class="edge"><title>Node6&#45;&gt;Node3</title>
<path fill="none" stroke="midnightblue" d="M203.676,-56.4435C164.96,-46.1953 100.591,-29.1565 62.6388,-19.1103"/>
<polygon fill="midnightblue" stroke="midnightblue" points="63.2408,-15.6491 52.6781,-16.4736 61.4495,-22.4161 63.2408,-15.6491"/>
</g>
<!-- Node7 -->
<g id="node7" class="node"><title>Node7</title>
<polygon fill="none" stroke="#bfbfbf" points="175,-0.5 175,-19.5 229,-19.5 229,-0.5 175,-0.5"/>
<text text-anchor="middle" x="202" y="-7.5" font-family="Helvetica,sans-Serif" font-size="10.00">iostream</text>
</g>
<!-- Node6&#45;&gt;Node7 -->
<g id="edge6" class="edge"><title>Node6&#45;&gt;Node7</title>
<path fill="none" stroke="midnightblue" d="M230.386,-56.083C225.633,-48.5341 218.682,-37.4948 212.848,-28.2298"/>
<polygon fill="midnightblue" stroke="midnightblue" points="215.8,-26.3486 207.51,-19.7511 209.876,-30.0783 215.8,-26.3486"/>
</g>
<!-- Node8 -->
<g id="node8" class="node"><title>Node8</title>
<polygon fill="none" stroke="#bfbfbf" points="247,-0.5 247,-19.5 291,-19.5 291,-0.5 247,-0.5"/>
<text text-anchor="middle" x="269" y="-7.5" font-family="Helvetica,sans-Serif" font-size="10.00">vector</text>
</g>
<!-- Node6&#45;&gt;Node8 -->
<g id="edge8" class="edge"><title>Node6&#45;&gt;Node8</title>
<path fill="none" stroke="midnightblue" d="M241.449,-56.083C246.014,-48.6127 252.668,-37.7244 258.293,-28.5199"/>
<polygon fill="midnightblue" stroke="midnightblue" points="261.424,-30.109 263.652,-19.7511 255.451,-26.4588 261.424,-30.109"/>
</g>
<!-- Node9&#45;&gt;Node2 -->
<g id="edge10" class="edge"><title>Node9&#45;&gt;Node2</title>
<path fill="none" stroke="midnightblue" d="M83,-168.083C83,-161.006 83,-150.861 83,-141.986"/>
<polygon fill="midnightblue" stroke="midnightblue" points="86.5001,-141.751 83,-131.751 79.5001,-141.751 86.5001,-141.751"/>
</g>
<!-- Node10&#45;&gt;Node2 -->
<g id="edge13" class="edge"><title>Node10&#45;&gt;Node2</title>
<path fill="none" stroke="midnightblue" d="M33.5892,-224.251C36.1269,-211.442 41.771,-187.044 51,-168 55.8509,-157.99 62.8783,-147.81 69.1128,-139.67"/>
<polygon fill="midnightblue" stroke="midnightblue" points="71.9342,-141.745 75.426,-131.742 66.4584,-137.384 71.9342,-141.745"/>
</g>
<!-- Node10&#45;&gt;Node3 -->
<g id="edge12" class="edge"><title>Node10&#45;&gt;Node3</title>
<path fill="none" stroke="midnightblue" d="M31.0846,-224.367C29.2876,-206.935 25.3552,-166.273 24,-132 22.5632,-95.663 26.7075,-53.2735 29.5555,-29.5428"/>
<polygon fill="midnightblue" stroke="midnightblue" points="33.0432,-29.8592 30.8194,-19.5004 26.098,-28.985 33.0432,-29.8592"/>
</g>
<!-- Node10&#45;&gt;Node9 -->
<g id="edge14" class="edge"><title>Node10&#45;&gt;Node9</title>
<path fill="none" stroke="midnightblue" d="M40.4216,-224.083C47.8482,-216.22 58.8517,-204.569 67.8122,-195.081"/>
<polygon fill="midnightblue" stroke="midnightblue" points="70.4134,-197.424 74.7351,-187.751 65.3243,-192.618 70.4134,-197.424"/>
</g>
</g>
</svg>
