<?xml version="1.0" encoding="UTF-8" standalone="no"?>
<!DOCTYPE svg PUBLIC "-//W3C//DTD SVG 1.1//EN"
 "http://www.w3.org/Graphics/SVG/1.1/DTD/svg11.dtd">
<!-- Generated by graphviz version 2.36.0 (20140111.2315)
 -->
<!-- Title: src/main.cpp Pages: 1 -->
<svg width="342pt" height="308pt"
 viewBox="0.00 0.00 342.00 308.00" xmlns="http://www.w3.org/2000/svg" xmlns:xlink="http://www.w3.org/1999/xlink">
<g id="graph0" class="graph" transform="scale(1 1) rotate(0) translate(4 304)">
<title>src/main.cpp</title>
<!-- Node1 -->
<g id="node1" class="node"><title>Node1</title>
<polygon fill="#bfbfbf" stroke="black" points="113.5,-280.5 113.5,-299.5 186.5,-299.5 186.5,-280.5 113.5,-280.5"/>
<text text-anchor="middle" x="150" y="-287.5" font-family="Helvetica,sans-Serif" font-size="10.00">src/main.cpp</text>
</g>
<!-- Node2 -->
<g id="node2" class="node"><title>Node2</title>
<g id="a_node2"><a xlink:href="model_8h.html" target="_top" xlink:title="model.h">
<polygon fill="none" stroke="black" points="106.5,-112.5 106.5,-131.5 157.5,-131.5 157.5,-112.5 106.5,-112.5"/>
<text text-anchor="middle" x="132" y="-119.5" font-family="Helvetica,sans-Serif" font-size="10.00">model.h</text>
</a>
</g>
</g>
<!-- Node1&#45;&gt;Node2 -->
<g id="edge1" class="edge"><title>Node1&#45;&gt;Node2</title>
<path fill="none" stroke="midnightblue" d="M143.137,-280.489C130.257,-263.904 102.874,-225.584 93,-188 90.7415,-179.403 89.8933,-176.328 93,-168 97.1734,-156.812 105.52,-146.56 113.424,-138.676"/>
<polygon fill="midnightblue" stroke="midnightblue" points="116.062,-141.003 121.01,-131.635 111.299,-135.872 116.062,-141.003"/>
</g>
<!-- Node5 -->
<g id="node5" class="node"><title>Node5</title>
<polygon fill="none" stroke="#bfbfbf" points="242,-56.5 242,-75.5 294,-75.5 294,-56.5 242,-56.5"/>
<text text-anchor="middle" x="268" y="-63.5" font-family="Helvetica,sans-Serif" font-size="10.00">memory</text>
</g>
<!-- Node1&#45;&gt;Node5 -->
<g id="edge15" class="edge"><title>Node1&#45;&gt;Node5</title>
<path fill="none" stroke="midnightblue" d="M172.41,-280.369C188.522,-273.042 209.526,-260.992 222,-244 257.954,-195.021 265.86,-120.361 267.56,-85.784"/>
<polygon fill="midnightblue" stroke="midnightblue" points="271.061,-85.8111 267.93,-75.6895 264.066,-85.5545 271.061,-85.8111"/>
</g>
<!-- Node6 -->
<g id="node6" class="node"><title>Node6</title>
<g id="a_node6"><a xlink:href="canvas__primitives_8h.html" target="_top" xlink:title="canvas_primitives.h">
<polygon fill="none" stroke="black" points="0,-56.5 0,-75.5 104,-75.5 104,-56.5 0,-56.5"/>
<text text-anchor="middle" x="52" y="-63.5" font-family="Helvetica,sans-Serif" font-size="10.00">canvas_primitives.h</text>
</a>
</g>
</g>
<!-- Node1&#45;&gt;Node6 -->
<g id="edge14" class="edge"><title>Node1&#45;&gt;Node6</title>
<path fill="none" stroke="midnightblue" d="M138.163,-280.266C127.76,-272.004 112.928,-258.707 104,-244 72.4834,-192.079 59.1252,-119.952 54.3176,-86.0475"/>
<polygon fill="midnightblue" stroke="midnightblue" points="57.7363,-85.201 52.9579,-75.745 50.7965,-86.117 57.7363,-85.201"/>
</g>
<!-- Node7 -->
<g id="node7" class="node"><title>Node7</title>
<g id="a_node7"><a xlink:href="view_8h.html" target="_top" xlink:title="view.h">
<polygon fill="none" stroke="black" points="102.5,-168.5 102.5,-187.5 147.5,-187.5 147.5,-168.5 102.5,-168.5"/>
<text text-anchor="middle" x="125" y="-175.5" font-family="Helvetica,sans-Serif" font-size="10.00">view.h</text>
</a>
</g>
</g>
<!-- Node1&#45;&gt;Node7 -->
<g id="edge8" class="edge"><title>Node1&#45;&gt;Node7</title>
<path fill="none" stroke="midnightblue" d="M147.82,-280.39C145.548,-271.345 141.919,-256.698 139,-244 135.44,-228.512 131.66,-210.884 128.926,-197.896"/>
<polygon fill="midnightblue" stroke="midnightblue" points="132.298,-196.92 126.825,-187.849 125.446,-198.353 132.298,-196.92"/>
</g>
<!-- Node8 -->
<g id="node8" class="node"><title>Node8</title>
<g id="a_node8"><a xlink:href="controller_8h.html" target="_top" xlink:title="controller.h">
<polygon fill="none" stroke="black" points="148.5,-224.5 148.5,-243.5 213.5,-243.5 213.5,-224.5 148.5,-224.5"/>
<text text-anchor="middle" x="181" y="-231.5" font-family="Helvetica,sans-Serif" font-size="10.00">controller.h</text>
</a>
</g>
</g>
<!-- Node1&#45;&gt;Node8 -->
<g id="edge10" class="edge"><title>Node1&#45;&gt;Node8</title>
<path fill="none" stroke="midnightblue" d="M155.119,-280.083C159.408,-272.613 165.658,-261.724 170.942,-252.52"/>
<polygon fill="midnightblue" stroke="midnightblue" points="174.033,-254.166 175.976,-243.751 167.962,-250.681 174.033,-254.166"/>
</g>
<!-- Node9 -->
<g id="node9" class="node"><title>Node9</title>
<polygon fill="none" stroke="#bfbfbf" points="280,-224.5 280,-243.5 334,-243.5 334,-224.5 280,-224.5"/>
<text text-anchor="middle" x="307" y="-231.5" font-family="Helvetica,sans-Serif" font-size="10.00">iostream</text>
</g>
<!-- Node1&#45;&gt;Node9 -->
<g id="edge16" class="edge"><title>Node1&#45;&gt;Node9</title>
<path fill="none" stroke="midnightblue" d="M174.877,-280.444C201.289,-271.359 243.215,-256.939 272.742,-246.783"/>
<polygon fill="midnightblue" stroke="midnightblue" points="273.921,-250.079 282.239,-243.516 271.645,-243.459 273.921,-250.079"/>
</g>
<!-- Node3 -->
<g id="node3" class="node"><title>Node3</title>
<polygon fill="none" stroke="#bfbfbf" points="149.5,-0.5 149.5,-19.5 190.5,-19.5 190.5,-0.5 149.5,-0.5"/>
<text text-anchor="middle" x="170" y="-7.5" font-family="Helvetica,sans-Serif" font-size="10.00">string</text>
</g>
<!-- Node2&#45;&gt;Node3 -->
<g id="edge2" class="edge"><title>Node2&#45;&gt;Node3</title>
<path fill="none" stroke="midnightblue" d="M134.982,-112.368C141.142,-94.5366 155.389,-53.2953 163.688,-29.2717"/>
<polygon fill="midnightblue" stroke="midnightblue" points="167.075,-30.1862 167.032,-19.5914 160.459,-27.9005 167.075,-30.1862"/>
</g>
<!-- Node4 -->
<g id="node4" class="node"><title>Node4</title>
<polygon fill="none" stroke="#bfbfbf" points="59,-0.5 59,-19.5 103,-19.5 103,-0.5 59,-0.5"/>
<text text-anchor="middle" x="81" y="-7.5" font-family="Helvetica,sans-Serif" font-size="10.00">vector</text>
</g>
<!-- Node2&#45;&gt;Node4 -->
<g id="edge3" class="edge"><title>Node2&#45;&gt;Node4</title>
<path fill="none" stroke="midnightblue" d="M130.411,-112.251C127.873,-99.4424 122.229,-75.0441 113,-56 108.149,-45.9902 101.122,-35.8098 94.8872,-27.6697"/>
<polygon fill="midnightblue" stroke="midnightblue" points="97.5416,-25.3844 88.574,-19.7423 92.0658,-29.7452 97.5416,-25.3844"/>
</g>
<!-- Node2&#45;&gt;Node5 -->
<g id="edge4" class="edge"><title>Node2&#45;&gt;Node5</title>
<path fill="none" stroke="midnightblue" d="M153.55,-112.444C176.031,-103.517 211.488,-89.4387 236.98,-79.3168"/>
<polygon fill="midnightblue" stroke="midnightblue" points="238.549,-82.4598 246.551,-75.5164 235.965,-75.9539 238.549,-82.4598"/>
</g>
<!-- Node2&#45;&gt;Node6 -->
<g id="edge5" class="edge"><title>Node2&#45;&gt;Node6</title>
<path fill="none" stroke="midnightblue" d="M119.147,-112.324C106.784,-103.979 87.8699,-91.2122 73.2628,-81.3524"/>
<polygon fill="midnightblue" stroke="midnightblue" points="75.0682,-78.3483 64.8215,-75.6545 71.1518,-84.1503 75.0682,-78.3483"/>
</g>
<!-- Node6&#45;&gt;Node3 -->
<g id="edge6" class="edge"><title>Node6&#45;&gt;Node3</title>
<path fill="none" stroke="midnightblue" d="M70.6975,-56.4435C89.9445,-47.6356 120.152,-33.8116 142.2,-23.722"/>
<polygon fill="midnightblue" stroke="midnightblue" points="143.753,-26.8603 151.39,-19.5164 140.84,-20.4951 143.753,-26.8603"/>
</g>
<!-- Node6&#45;&gt;Node4 -->
<g id="edge7" class="edge"><title>Node6&#45;&gt;Node4</title>
<path fill="none" stroke="midnightblue" d="M56.7888,-56.083C60.7584,-48.6913 66.5251,-37.9533 71.4348,-28.8111"/>
<polygon fill="midnightblue" stroke="midnightblue" points="74.6525,-30.217 76.3003,-19.7511 68.4855,-26.9051 74.6525,-30.217"/>
</g>
<!-- Node7&#45;&gt;Node2 -->
<g id="edge9" class="edge"><title>Node7&#45;&gt;Node2</title>
<path fill="none" stroke="midnightblue" d="M126.156,-168.083C127.084,-160.927 128.418,-150.635 129.577,-141.691"/>
<polygon fill="midnightblue" stroke="midnightblue" points="133.051,-142.118 130.866,-131.751 126.109,-141.218 133.051,-142.118"/>
</g>
<!-- Node8&#45;&gt;Node2 -->
<g id="edge12" class="edge"><title>Node8&#45;&gt;Node2</title>
<path fill="none" stroke="midnightblue" d="M178.089,-224.449C173.73,-211.888 165.044,-187.795 156,-168 151.815,-158.839 146.61,-148.935 142.119,-140.756"/>
<polygon fill="midnightblue" stroke="midnightblue" points="145.047,-138.821 137.11,-131.802 138.937,-142.238 145.047,-138.821"/>
</g>
<!-- Node8&#45;&gt;Node3 -->
<g id="edge11" class="edge"><title>Node8&#45;&gt;Node3</title>
<path fill="none" stroke="midnightblue" d="M180.569,-224.297C178.95,-191.633 173.214,-75.8661 170.939,-29.9573"/>
<polygon fill="midnightblue" stroke="midnightblue" points="174.431,-29.6982 170.44,-19.8837 167.439,-30.0447 174.431,-29.6982"/>
</g>
<!-- Node8&#45;&gt;Node7 -->
<g id="edge13" class="edge"><title>Node8&#45;&gt;Node7</title>
<path fill="none" stroke="midnightblue" d="M172.003,-224.324C163.806,-216.42 151.494,-204.548 141.528,-194.938"/>
<polygon fill="midnightblue" stroke="midnightblue" points="143.789,-192.256 134.161,-187.834 138.93,-197.295 143.789,-192.256"/>
</g>
</g>
</svg>
