<?xml version="1.0" encoding="UTF-8" standalone="no"?>
<!DOCTYPE svg PUBLIC "-//W3C//DTD SVG 1.1//EN"
 "http://www.w3.org/Graphics/SVG/1.1/DTD/svg11.dtd">
<!-- Generated by graphviz version 2.36.0 (20140111.2315)
 -->
<!-- Title: src/model.cpp Pages: 1 -->
<svg width="261pt" height="196pt"
 viewBox="0.00 0.00 261.00 196.00" xmlns="http://www.w3.org/2000/svg" xmlns:xlink="http://www.w3.org/1999/xlink">
<g id="graph0" class="graph" transform="scale(1 1) rotate(0) translate(4 192)">
<title>src/model.cpp</title>
<!-- Node1 -->
<g id="node1" class="node"><title>Node1</title>
<polygon fill="#bfbfbf" stroke="black" points="58,-168.5 58,-187.5 136,-187.5 136,-168.5 58,-168.5"/>
<text text-anchor="middle" x="97" y="-175.5" font-family="Helvetica,sans-Serif" font-size="10.00">src/model.cpp</text>
</g>
<!-- Node2 -->
<g id="node2" class="node"><title>Node2</title>
<polygon fill="none" stroke="#bfbfbf" points="33,-112.5 33,-131.5 89,-131.5 89,-112.5 33,-112.5"/>
<text text-anchor="middle" x="61" y="-119.5" font-family="Helvetica,sans-Serif" font-size="10.00">algorithm</text>
</g>
<!-- Node1&#45;&gt;Node2 -->
<g id="edge1" class="edge"><title>Node1&#45;&gt;Node2</title>
<path fill="none" stroke="midnightblue" d="M91.0553,-168.083C86.0227,-160.534 78.6632,-149.495 72.4865,-140.23"/>
<polygon fill="midnightblue" stroke="midnightblue" points="75.2933,-138.13 66.8341,-131.751 69.4689,-142.013 75.2933,-138.13"/>
</g>
<!-- Node3 -->
<g id="node3" class="node"><title>Node3</title>
<g id="a_node3"><a xlink:href="model_8h.html" target="_top" xlink:title="model.h">
<polygon fill="none" stroke="black" points="107.5,-112.5 107.5,-131.5 158.5,-131.5 158.5,-112.5 107.5,-112.5"/>
<text text-anchor="middle" x="133" y="-119.5" font-family="Helvetica,sans-Serif" font-size="10.00">model.h</text>
</a>
</g>
</g>
<!-- Node1&#45;&gt;Node3 -->
<g id="edge2" class="edge"><title>Node1&#45;&gt;Node3</title>
<path fill="none" stroke="midnightblue" d="M102.945,-168.083C107.977,-160.534 115.337,-149.495 121.513,-140.23"/>
<polygon fill="midnightblue" stroke="midnightblue" points="124.531,-142.013 127.166,-131.751 118.707,-138.13 124.531,-142.013"/>
</g>
<!-- Node4 -->
<g id="node4" class="node"><title>Node4</title>
<polygon fill="none" stroke="#bfbfbf" points="-0.5,-0.5 -0.5,-19.5 40.5,-19.5 40.5,-0.5 -0.5,-0.5"/>
<text text-anchor="middle" x="20" y="-7.5" font-family="Helvetica,sans-Serif" font-size="10.00">string</text>
</g>
<!-- Node3&#45;&gt;Node4 -->
<g id="edge3" class="edge"><title>Node3&#45;&gt;Node4</title>
<path fill="none" stroke="midnightblue" d="M107.016,-112.533C80.4505,-103.356 41.7392,-88.3664 32,-76 21.6917,-62.911 19.2161,-43.7615 19.0044,-29.6359"/>
<polygon fill="midnightblue" stroke="midnightblue" points="22.5044,-29.667 19.2136,-19.5962 15.5059,-29.5211 22.5044,-29.667"/>
</g>
<!-- Node5 -->
<g id="node5" class="node"><title>Node5</title>
<polygon fill="none" stroke="#bfbfbf" points="144,-0.5 144,-19.5 188,-19.5 188,-0.5 144,-0.5"/>
<text text-anchor="middle" x="166" y="-7.5" font-family="Helvetica,sans-Serif" font-size="10.00">vector</text>
</g>
<!-- Node3&#45;&gt;Node5 -->
<g id="edge4" class="edge"><title>Node3&#45;&gt;Node5</title>
<path fill="none" stroke="midnightblue" d="M137.872,-112.304C142.645,-103.432 149.797,-89.1383 154,-76 158.867,-60.7836 161.99,-42.8939 163.825,-29.7387"/>
<polygon fill="midnightblue" stroke="midnightblue" points="167.327,-29.9451 165.119,-19.583 160.383,-29.0606 167.327,-29.9451"/>
</g>
<!-- Node6 -->
<g id="node6" class="node"><title>Node6</title>
<polygon fill="none" stroke="#bfbfbf" points="201,-56.5 201,-75.5 253,-75.5 253,-56.5 201,-56.5"/>
<text text-anchor="middle" x="227" y="-63.5" font-family="Helvetica,sans-Serif" font-size="10.00">memory</text>
</g>
<!-- Node3&#45;&gt;Node6 -->
<g id="edge5" class="edge"><title>Node3&#45;&gt;Node6</title>
<path fill="none" stroke="midnightblue" d="M148.103,-112.324C162.903,-103.822 185.694,-90.7288 202.982,-80.7975"/>
<polygon fill="midnightblue" stroke="midnightblue" points="205.007,-83.6707 211.935,-75.6545 201.52,-77.6009 205.007,-83.6707"/>
</g>
<!-- Node7 -->
<g id="node7" class="node"><title>Node7</title>
<g id="a_node7"><a xlink:href="canvas__primitives_8h.html" target="_top" xlink:title="canvas_primitives.h">
<polygon fill="none" stroke="black" points="41,-56.5 41,-75.5 145,-75.5 145,-56.5 41,-56.5"/>
<text text-anchor="middle" x="93" y="-63.5" font-family="Helvetica,sans-Serif" font-size="10.00">canvas_primitives.h</text>
</a>
</g>
</g>
<!-- Node3&#45;&gt;Node7 -->
<g id="edge6" class="edge"><title>Node3&#45;&gt;Node7</title>
<path fill="none" stroke="midnightblue" d="M126.395,-112.083C120.745,-104.455 112.455,-93.2645 105.549,-83.9408"/>
<polygon fill="midnightblue" stroke="midnightblue" points="108.247,-81.7034 99.4823,-75.7511 102.622,-85.87 108.247,-81.7034"/>
</g>
<!-- Node7&#45;&gt;Node4 -->
<g id="edge8" class="edge"><title>Node7&#45;&gt;Node4</title>
<path fill="none" stroke="midnightblue" d="M81.2713,-56.324C70.1626,-48.1066 53.2578,-35.6017 40.0167,-25.8069"/>
<polygon fill="midnightblue" stroke="midnightblue" points="42.0631,-22.9671 31.9421,-19.8339 37.9001,-28.5948 42.0631,-22.9671"/>
</g>
<!-- Node7&#45;&gt;Node5 -->
<g id="edge9" class="edge"><title>Node7&#45;&gt;Node5</title>
<path fill="none" stroke="midnightblue" d="M104.729,-56.324C115.837,-48.1066 132.742,-35.6017 145.983,-25.8069"/>
<polygon fill="midnightblue" stroke="midnightblue" points="148.1,-28.5948 154.058,-19.8339 143.937,-22.9671 148.1,-28.5948"/>
</g>
<!-- Node8 -->
<g id="node8" class="node"><title>Node8</title>
<polygon fill="none" stroke="#bfbfbf" points="66,-0.5 66,-19.5 120,-19.5 120,-0.5 66,-0.5"/>
<text text-anchor="middle" x="93" y="-7.5" font-family="Helvetica,sans-Serif" font-size="10.00">iostream</text>
</g>
<!-- Node7&#45;&gt;Node8 -->
<g id="edge7" class="edge"><title>Node7&#45;&gt;Node8</title>
<path fill="none" stroke="midnightblue" d="M93,-56.083C93,-49.0059 93,-38.8611 93,-29.9865"/>
<polygon fill="midnightblue" stroke="midnightblue" points="96.5001,-29.751 93,-19.7511 89.5001,-29.7511 96.5001,-29.751"/>
</g>
</g>
</svg>
