<?xml version="1.0" encoding="UTF-8" standalone="no"?>
<!DOCTYPE svg PUBLIC "-//W3C//DTD SVG 1.1//EN"
 "http://www.w3.org/Graphics/SVG/1.1/DTD/svg11.dtd">
<!-- Generated by graphviz version 2.36.0 (20140111.2315)
 -->
<!-- Title: src/model.cpp Pages: 1 -->
<svg width="267pt" height="196pt"
 viewBox="0.00 0.00 266.69 196.00" xmlns="http://www.w3.org/2000/svg" xmlns:xlink="http://www.w3.org/1999/xlink">
<g id="graph0" class="graph" transform="scale(1 1) rotate(0) translate(4 192)">
<title>src/model.cpp</title>
<!-- Node1 -->
<g id="node1" class="node"><title>Node1</title>
<polygon fill="#bfbfbf" stroke="black" points="62,-168.5 62,-187.5 140,-187.5 140,-168.5 62,-168.5"/>
<text text-anchor="middle" x="101" y="-175.5" font-family="Helvetica,sans-Serif" font-size="10.00">src/model.cpp</text>
</g>
<!-- Node2 -->
<g id="node2" class="node"><title>Node2</title>
<polygon fill="none" stroke="#bfbfbf" points="0,-112.5 0,-131.5 56,-131.5 56,-112.5 0,-112.5"/>
<text text-anchor="middle" x="28" y="-119.5" font-family="Helvetica,sans-Serif" font-size="10.00">algorithm</text>
</g>
<!-- Node1&#45;&gt;Node2 -->
<g id="edge1" class="edge"><title>Node1&#45;&gt;Node2</title>
<path fill="none" stroke="midnightblue" d="M89.2713,-168.324C78.1626,-160.107 61.2578,-147.602 48.0167,-137.807"/>
<polygon fill="midnightblue" stroke="midnightblue" points="50.0631,-134.967 39.9421,-131.834 45.9001,-140.595 50.0631,-134.967"/>
</g>
<!-- Node3 -->
<g id="node3" class="node"><title>Node3</title>
<polygon fill="none" stroke="#bfbfbf" points="74,-112.5 74,-131.5 128,-131.5 128,-112.5 74,-112.5"/>
<text text-anchor="middle" x="101" y="-119.5" font-family="Helvetica,sans-Serif" font-size="10.00">iostream</text>
</g>
<!-- Node1&#45;&gt;Node3 -->
<g id="edge2" class="edge"><title>Node1&#45;&gt;Node3</title>
<path fill="none" stroke="midnightblue" d="M101,-168.083C101,-161.006 101,-150.861 101,-141.986"/>
<polygon fill="midnightblue" stroke="midnightblue" points="104.5,-141.751 101,-131.751 97.5001,-141.751 104.5,-141.751"/>
</g>
<!-- Node4 -->
<g id="node4" class="node"><title>Node4</title>
<g id="a_node4"><a xlink:href="model_8h.html" target="_top" xlink:title="model.h">
<polygon fill="none" stroke="black" points="146.5,-112.5 146.5,-131.5 197.5,-131.5 197.5,-112.5 146.5,-112.5"/>
<text text-anchor="middle" x="172" y="-119.5" font-family="Helvetica,sans-Serif" font-size="10.00">model.h</text>
</a>
</g>
</g>
<!-- Node1&#45;&gt;Node4 -->
<g id="edge3" class="edge"><title>Node1&#45;&gt;Node4</title>
<path fill="none" stroke="midnightblue" d="M112.407,-168.324C123.109,-160.185 139.341,-147.839 152.163,-138.087"/>
<polygon fill="midnightblue" stroke="midnightblue" points="154.544,-140.673 160.385,-131.834 150.307,-135.102 154.544,-140.673"/>
</g>
<!-- Node5 -->
<g id="node5" class="node"><title>Node5</title>
<polygon fill="none" stroke="#bfbfbf" points="32.5,-0.5 32.5,-19.5 73.5,-19.5 73.5,-0.5 32.5,-0.5"/>
<text text-anchor="middle" x="53" y="-7.5" font-family="Helvetica,sans-Serif" font-size="10.00">string</text>
</g>
<!-- Node4&#45;&gt;Node5 -->
<g id="edge4" class="edge"><title>Node4&#45;&gt;Node5</title>
<path fill="none" stroke="midnightblue" d="M146.493,-113.654C117.767,-104.857 73.6879,-89.6031 63,-76 52.7587,-62.9653 50.9174,-43.8085 51.2422,-29.6664"/>
<polygon fill="midnightblue" stroke="midnightblue" points="54.7402,-29.805 51.8481,-19.6126 47.7528,-29.3839 54.7402,-29.805"/>
</g>
<!-- Node6 -->
<g id="node6" class="node"><title>Node6</title>
<polygon fill="none" stroke="#bfbfbf" points="177,-0.5 177,-19.5 221,-19.5 221,-0.5 177,-0.5"/>
<text text-anchor="middle" x="199" y="-7.5" font-family="Helvetica,sans-Serif" font-size="10.00">vector</text>
</g>
<!-- Node4&#45;&gt;Node6 -->
<g id="edge5" class="edge"><title>Node4&#45;&gt;Node6</title>
<path fill="none" stroke="midnightblue" d="M197.624,-114.733C217.136,-108.468 242.674,-96.7039 255,-76 266.563,-56.577 244.738,-37.34 225.046,-24.894"/>
<polygon fill="midnightblue" stroke="midnightblue" points="226.66,-21.7816 216.276,-19.6772 223.081,-27.7977 226.66,-21.7816"/>
</g>
<!-- Node7 -->
<g id="node7" class="node"><title>Node7</title>
<polygon fill="none" stroke="#bfbfbf" points="194,-56.5 194,-75.5 246,-75.5 246,-56.5 194,-56.5"/>
<text text-anchor="middle" x="220" y="-63.5" font-family="Helvetica,sans-Serif" font-size="10.00">memory</text>
</g>
<!-- Node4&#45;&gt;Node7 -->
<g id="edge6" class="edge"><title>Node4&#45;&gt;Node7</title>
<path fill="none" stroke="midnightblue" d="M179.926,-112.083C186.846,-104.298 197.065,-92.8015 205.452,-83.3665"/>
<polygon fill="midnightblue" stroke="midnightblue" points="208.194,-85.5505 212.221,-75.7511 202.962,-80.8999 208.194,-85.5505"/>
</g>
<!-- Node8 -->
<g id="node8" class="node"><title>Node8</title>
<g id="a_node8"><a xlink:href="canvas__primitives_8h.html" target="_top" xlink:title="canvas_primitives.h">
<polygon fill="none" stroke="black" points="72,-56.5 72,-75.5 176,-75.5 176,-56.5 72,-56.5"/>
<text text-anchor="middle" x="124" y="-63.5" font-family="Helvetica,sans-Serif" font-size="10.00">canvas_primitives.h</text>
</a>
</g>
</g>
<!-- Node4&#45;&gt;Node8 -->
<g id="edge7" class="edge"><title>Node4&#45;&gt;Node8</title>
<path fill="none" stroke="midnightblue" d="M164.074,-112.083C157.154,-104.298 146.935,-92.8015 138.548,-83.3665"/>
<polygon fill="midnightblue" stroke="midnightblue" points="141.038,-80.8999 131.779,-75.7511 135.806,-85.5505 141.038,-80.8999"/>
</g>
<!-- Node8&#45;&gt;Node5 -->
<g id="edge8" class="edge"><title>Node8&#45;&gt;Node5</title>
<path fill="none" stroke="midnightblue" d="M112.593,-56.324C101.891,-48.1849 85.6593,-35.8395 72.8372,-26.0874"/>
<polygon fill="midnightblue" stroke="midnightblue" points="74.6932,-23.1018 64.6149,-19.8339 70.4556,-28.6734 74.6932,-23.1018"/>
</g>
<!-- Node8&#45;&gt;Node6 -->
<g id="edge9" class="edge"><title>Node8&#45;&gt;Node6</title>
<path fill="none" stroke="midnightblue" d="M136.05,-56.324C147.463,-48.1066 164.831,-35.6017 178.435,-25.8069"/>
<polygon fill="midnightblue" stroke="midnightblue" points="180.66,-28.5174 186.731,-19.8339 176.57,-22.8366 180.66,-28.5174"/>
</g>
</g>
</svg>
