<?xml version="1.0" encoding="UTF-8" standalone="no"?>
<!DOCTYPE svg PUBLIC "-//W3C//DTD SVG 1.1//EN"
 "http://www.w3.org/Graphics/SVG/1.1/DTD/svg11.dtd">
<!-- Generated by graphviz version 2.36.0 (20140111.2315)
 -->
<!-- Title: include/model.h Pages: 1 -->
<svg width="234pt" height="140pt"
 viewBox="0.00 0.00 233.69 140.00" xmlns="http://www.w3.org/2000/svg" xmlns:xlink="http://www.w3.org/1999/xlink">
<g id="graph0" class="graph" transform="scale(1 1) rotate(0) translate(4 136)">
<title>include/model.h</title>
<!-- Node1 -->
<g id="node1" class="node"><title>Node1</title>
<polygon fill="#bfbfbf" stroke="black" points="96.5,-112.5 96.5,-131.5 181.5,-131.5 181.5,-112.5 96.5,-112.5"/>
<text text-anchor="middle" x="139" y="-119.5" font-family="Helvetica,sans-Serif" font-size="10.00">include/model.h</text>
</g>
<!-- Node2 -->
<g id="node2" class="node"><title>Node2</title>
<polygon fill="none" stroke="#bfbfbf" points="-0.5,-0.5 -0.5,-19.5 40.5,-19.5 40.5,-0.5 -0.5,-0.5"/>
<text text-anchor="middle" x="20" y="-7.5" font-family="Helvetica,sans-Serif" font-size="10.00">string</text>
</g>
<!-- Node1&#45;&gt;Node2 -->
<g id="edge1" class="edge"><title>Node1&#45;&gt;Node2</title>
<path fill="none" stroke="midnightblue" d="M96.3704,-113.883C73.2272,-107.768 46.1267,-96.5254 30,-76 19.7587,-62.9653 17.9174,-43.8085 18.2422,-29.6664"/>
<polygon fill="midnightblue" stroke="midnightblue" points="21.7402,-29.805 18.8481,-19.6126 14.7528,-29.3839 21.7402,-29.805"/>
</g>
<!-- Node3 -->
<g id="node3" class="node"><title>Node3</title>
<polygon fill="none" stroke="#bfbfbf" points="144,-0.5 144,-19.5 188,-19.5 188,-0.5 144,-0.5"/>
<text text-anchor="middle" x="166" y="-7.5" font-family="Helvetica,sans-Serif" font-size="10.00">vector</text>
</g>
<!-- Node1&#45;&gt;Node3 -->
<g id="edge2" class="edge"><title>Node1&#45;&gt;Node3</title>
<path fill="none" stroke="midnightblue" d="M171.185,-112.488C189.539,-105.801 211.016,-94.4504 222,-76 233.563,-56.577 211.738,-37.34 192.046,-24.894"/>
<polygon fill="midnightblue" stroke="midnightblue" points="193.66,-21.7816 183.276,-19.6772 190.081,-27.7977 193.66,-21.7816"/>
</g>
<!-- Node4 -->
<g id="node4" class="node"><title>Node4</title>
<polygon fill="none" stroke="#bfbfbf" points="161,-56.5 161,-75.5 213,-75.5 213,-56.5 161,-56.5"/>
<text text-anchor="middle" x="187" y="-63.5" font-family="Helvetica,sans-Serif" font-size="10.00">memory</text>
</g>
<!-- Node1&#45;&gt;Node4 -->
<g id="edge3" class="edge"><title>Node1&#45;&gt;Node4</title>
<path fill="none" stroke="midnightblue" d="M146.926,-112.083C153.846,-104.298 164.065,-92.8015 172.452,-83.3665"/>
<polygon fill="midnightblue" stroke="midnightblue" points="175.194,-85.5505 179.221,-75.7511 169.962,-80.8999 175.194,-85.5505"/>
</g>
<!-- Node5 -->
<g id="node5" class="node"><title>Node5</title>
<g id="a_node5"><a xlink:href="canvas__primitives_8h.html" target="_top" xlink:title="canvas_primitives.h">
<polygon fill="none" stroke="black" points="39,-56.5 39,-75.5 143,-75.5 143,-56.5 39,-56.5"/>
<text text-anchor="middle" x="91" y="-63.5" font-family="Helvetica,sans-Serif" font-size="10.00">canvas_primitives.h</text>
</a>
</g>
</g>
<!-- Node1&#45;&gt;Node5 -->
<g id="edge4" class="edge"><title>Node1&#45;&gt;Node5</title>
<path fill="none" stroke="midnightblue" d="M131.074,-112.083C124.154,-104.298 113.935,-92.8015 105.548,-83.3665"/>
<polygon fill="midnightblue" stroke="midnightblue" points="108.038,-80.8999 98.7787,-75.7511 102.806,-85.5505 108.038,-80.8999"/>
</g>
<!-- Node5&#45;&gt;Node2 -->
<g id="edge5" class="edge"><title>Node5&#45;&gt;Node2</title>
<path fill="none" stroke="midnightblue" d="M79.5926,-56.324C68.8912,-48.1849 52.6593,-35.8395 39.8372,-26.0874"/>
<polygon fill="midnightblue" stroke="midnightblue" points="41.6932,-23.1018 31.6149,-19.8339 37.4556,-28.6734 41.6932,-23.1018"/>
</g>
<!-- Node5&#45;&gt;Node3 -->
<g id="edge6" class="edge"><title>Node5&#45;&gt;Node3</title>
<path fill="none" stroke="midnightblue" d="M103.05,-56.324C114.463,-48.1066 131.831,-35.6017 145.435,-25.8069"/>
<polygon fill="midnightblue" stroke="midnightblue" points="147.66,-28.5174 153.731,-19.8339 143.57,-22.8366 147.66,-28.5174"/>
</g>
</g>
</svg>
