<?xml version="1.0" encoding="UTF-8" standalone="no"?>
<!DOCTYPE svg PUBLIC "-//W3C//DTD SVG 1.1//EN"
 "http://www.w3.org/Graphics/SVG/1.1/DTD/svg11.dtd">
<!-- Generated by graphviz version 2.36.0 (20140111.2315)
 -->
<!-- Title: src/view.cpp Pages: 1 -->
<svg width="298pt" height="252pt"
 viewBox="0.00 0.00 298.00 252.00" xmlns="http://www.w3.org/2000/svg" xmlns:xlink="http://www.w3.org/1999/xlink">
<g id="graph0" class="graph" transform="scale(1 1) rotate(0) translate(4 248)">
<title>src/view.cpp</title>
<!-- Node1 -->
<g id="node1" class="node"><title>Node1</title>
<polygon fill="#bfbfbf" stroke="black" points="202,-224.5 202,-243.5 274,-243.5 274,-224.5 202,-224.5"/>
<text text-anchor="middle" x="238" y="-231.5" font-family="Helvetica,sans-Serif" font-size="10.00">src/view.cpp</text>
</g>
<!-- Node2 -->
<g id="node2" class="node"><title>Node2</title>
<g id="a_node2"><a xlink:href="view_8h.html" target="_top" xlink:title="view.h">
<polygon fill="none" stroke="black" points="135.5,-168.5 135.5,-187.5 180.5,-187.5 180.5,-168.5 135.5,-168.5"/>
<text text-anchor="middle" x="158" y="-175.5" font-family="Helvetica,sans-Serif" font-size="10.00">view.h</text>
</a>
</g>
</g>
<!-- Node1&#45;&gt;Node2 -->
<g id="edge1" class="edge"><title>Node1&#45;&gt;Node2</title>
<path fill="none" stroke="midnightblue" d="M225.147,-224.324C212.784,-215.979 193.87,-203.212 179.263,-193.352"/>
<polygon fill="midnightblue" stroke="midnightblue" points="181.068,-190.348 170.821,-187.655 177.152,-196.15 181.068,-190.348"/>
</g>
<!-- Node8 -->
<g id="node8" class="node"><title>Node8</title>
<polygon fill="none" stroke="#bfbfbf" points="236,-0.5 236,-19.5 290,-19.5 290,-0.5 236,-0.5"/>
<text text-anchor="middle" x="263" y="-7.5" font-family="Helvetica,sans-Serif" font-size="10.00">iostream</text>
</g>
<!-- Node1&#45;&gt;Node8 -->
<g id="edge10" class="edge"><title>Node1&#45;&gt;Node8</title>
<path fill="none" stroke="midnightblue" d="M239.406,-224.173C243.155,-200.339 253.475,-132.656 259,-76 260.511,-60.5082 261.553,-42.8803 262.195,-29.8941"/>
<polygon fill="midnightblue" stroke="midnightblue" points="265.693,-29.9974 262.656,-19.8472 258.701,-29.676 265.693,-29.9974"/>
</g>
<!-- Node3 -->
<g id="node3" class="node"><title>Node3</title>
<g id="a_node3"><a xlink:href="model_8h.html" target="_top" xlink:title="model.h">
<polygon fill="none" stroke="black" points="92.5,-112.5 92.5,-131.5 143.5,-131.5 143.5,-112.5 92.5,-112.5"/>
<text text-anchor="middle" x="118" y="-119.5" font-family="Helvetica,sans-Serif" font-size="10.00">model.h</text>
</a>
</g>
</g>
<!-- Node2&#45;&gt;Node3 -->
<g id="edge2" class="edge"><title>Node2&#45;&gt;Node3</title>
<path fill="none" stroke="midnightblue" d="M151.395,-168.083C145.745,-160.455 137.455,-149.264 130.549,-139.941"/>
<polygon fill="midnightblue" stroke="midnightblue" points="133.247,-137.703 124.482,-131.751 127.622,-141.87 133.247,-137.703"/>
</g>
<!-- Node4 -->
<g id="node4" class="node"><title>Node4</title>
<polygon fill="none" stroke="#bfbfbf" points="162.5,-0.5 162.5,-19.5 203.5,-19.5 203.5,-0.5 162.5,-0.5"/>
<text text-anchor="middle" x="183" y="-7.5" font-family="Helvetica,sans-Serif" font-size="10.00">string</text>
</g>
<!-- Node3&#45;&gt;Node4 -->
<g id="edge3" class="edge"><title>Node3&#45;&gt;Node4</title>
<path fill="none" stroke="midnightblue" d="M119.085,-112.446C121.033,-99.4609 125.992,-74.3487 137,-56 143.777,-44.7045 154.069,-34.2681 163.201,-26.2955"/>
<polygon fill="midnightblue" stroke="midnightblue" points="165.67,-28.7942 171.127,-19.7124 161.198,-23.4092 165.67,-28.7942"/>
</g>
<!-- Node5 -->
<g id="node5" class="node"><title>Node5</title>
<polygon fill="none" stroke="#bfbfbf" points="86,-0.5 86,-19.5 130,-19.5 130,-0.5 86,-0.5"/>
<text text-anchor="middle" x="108" y="-7.5" font-family="Helvetica,sans-Serif" font-size="10.00">vector</text>
</g>
<!-- Node3&#45;&gt;Node5 -->
<g id="edge4" class="edge"><title>Node3&#45;&gt;Node5</title>
<path fill="none" stroke="midnightblue" d="M114.4,-112.222C110.944,-103.285 105.967,-88.9424 104,-76 101.661,-60.6114 102.995,-42.9756 104.727,-29.9602"/>
<polygon fill="midnightblue" stroke="midnightblue" points="108.216,-30.299 106.27,-19.8844 101.297,-29.2394 108.216,-30.299"/>
</g>
<!-- Node6 -->
<g id="node6" class="node"><title>Node6</title>
<polygon fill="none" stroke="#bfbfbf" points="0,-56.5 0,-75.5 52,-75.5 52,-56.5 0,-56.5"/>
<text text-anchor="middle" x="26" y="-63.5" font-family="Helvetica,sans-Serif" font-size="10.00">memory</text>
</g>
<!-- Node3&#45;&gt;Node6 -->
<g id="edge5" class="edge"><title>Node3&#45;&gt;Node6</title>
<path fill="none" stroke="midnightblue" d="M103.219,-112.324C88.7329,-103.822 66.4269,-90.7288 49.5068,-80.7975"/>
<polygon fill="midnightblue" stroke="midnightblue" points="51.1406,-77.6981 40.7447,-75.6545 47.5972,-83.735 51.1406,-77.6981"/>
</g>
<!-- Node7 -->
<g id="node7" class="node"><title>Node7</title>
<g id="a_node7"><a xlink:href="canvas__primitives_8h.html" target="_top" xlink:title="canvas_primitives.h">
<polygon fill="none" stroke="black" points="146,-56.5 146,-75.5 250,-75.5 250,-56.5 146,-56.5"/>
<text text-anchor="middle" x="198" y="-63.5" font-family="Helvetica,sans-Serif" font-size="10.00">canvas_primitives.h</text>
</a>
</g>
</g>
<!-- Node3&#45;&gt;Node7 -->
<g id="edge6" class="edge"><title>Node3&#45;&gt;Node7</title>
<path fill="none" stroke="midnightblue" d="M130.853,-112.324C143.216,-103.979 162.13,-91.2122 176.737,-81.3524"/>
<polygon fill="midnightblue" stroke="midnightblue" points="178.848,-84.1503 185.179,-75.6545 174.932,-78.3483 178.848,-84.1503"/>
</g>
<!-- Node7&#45;&gt;Node4 -->
<g id="edge8" class="edge"><title>Node7&#45;&gt;Node4</title>
<path fill="none" stroke="midnightblue" d="M195.523,-56.083C193.514,-48.8486 190.614,-38.4087 188.11,-29.3968"/>
<polygon fill="midnightblue" stroke="midnightblue" points="191.48,-28.4495 185.431,-19.7511 184.735,-30.323 191.48,-28.4495"/>
</g>
<!-- Node7&#45;&gt;Node5 -->
<g id="edge9" class="edge"><title>Node7&#45;&gt;Node5</title>
<path fill="none" stroke="midnightblue" d="M183.54,-56.324C169.5,-47.9002 147.952,-34.9709 131.457,-25.0741"/>
<polygon fill="midnightblue" stroke="midnightblue" points="132.8,-21.7983 122.424,-19.6545 129.198,-27.8007 132.8,-21.7983"/>
</g>
<!-- Node7&#45;&gt;Node8 -->
<g id="edge7" class="edge"><title>Node7&#45;&gt;Node8</title>
<path fill="none" stroke="midnightblue" d="M208.443,-56.324C218.146,-48.2631 232.815,-36.0765 244.5,-26.3695"/>
<polygon fill="midnightblue" stroke="midnightblue" points="246.911,-28.9163 252.367,-19.8339 242.438,-23.532 246.911,-28.9163"/>
</g>
</g>
</svg>
