<?xml version="1.0" encoding="UTF-8" standalone="no"?>
<!DOCTYPE svg PUBLIC "-//W3C//DTD SVG 1.1//EN"
 "http://www.w3.org/Graphics/SVG/1.1/DTD/svg11.dtd">
<!-- Generated by graphviz version 2.36.0 (20140111.2315)
 -->
<!-- Title: include/view.h Pages: 1 -->
<svg width="255pt" height="140pt"
 viewBox="0.00 0.00 255.00 140.00" xmlns="http://www.w3.org/2000/svg" xmlns:xlink="http://www.w3.org/1999/xlink">
<g id="graph0" class="graph" transform="scale(1 1) rotate(0) translate(4 136)">
<title>include/view.h</title>
<!-- Node1 -->
<g id="node1" class="node"><title>Node1</title>
<polygon fill="#bfbfbf" stroke="black" points="107.5,-112.5 107.5,-131.5 186.5,-131.5 186.5,-112.5 107.5,-112.5"/>
<text text-anchor="middle" x="147" y="-119.5" font-family="Helvetica,sans-Serif" font-size="10.00">include/view.h</text>
</g>
<!-- Node2 -->
<g id="node2" class="node"><title>Node2</title>
<g id="a_node2"><a xlink:href="controller_8h.html" target="_top" xlink:title="include/controller.h">
<polygon fill="none" stroke="black" points="21,-56.5 21,-75.5 119,-75.5 119,-56.5 21,-56.5"/>
<text text-anchor="middle" x="70" y="-63.5" font-family="Helvetica,sans-Serif" font-size="10.00">include/controller.h</text>
</a>
</g>
</g>
<!-- Node1&#45;&gt;Node2 -->
<g id="edge1" class="edge"><title>Node1&#45;&gt;Node2</title>
<path fill="none" stroke="midnightblue" d="M126.099,-106.342C112.089,-96.5169 94.117,-83.9132 82.3407,-75.6545"/>
<polygon fill="midnightblue" stroke="midnightblue" points="124.432,-109.448 134.629,-112.324 128.451,-103.717 124.432,-109.448"/>
</g>
<!-- Node4 -->
<g id="node4" class="node"><title>Node4</title>
<g id="a_node4"><a xlink:href="main_8cpp.html" target="_top" xlink:title="src/main.cpp">
<polygon fill="none" stroke="black" points="110.5,-0.5 110.5,-19.5 183.5,-19.5 183.5,-0.5 110.5,-0.5"/>
<text text-anchor="middle" x="147" y="-7.5" font-family="Helvetica,sans-Serif" font-size="10.00">src/main.cpp</text>
</a>
</g>
</g>
<!-- Node1&#45;&gt;Node4 -->
<g id="edge4" class="edge"><title>Node1&#45;&gt;Node4</title>
<path fill="none" stroke="midnightblue" d="M147,-102.348C147,-78.2538 147,-37.3079 147,-19.5914"/>
<polygon fill="midnightblue" stroke="midnightblue" points="143.5,-102.368 147,-112.368 150.5,-102.369 143.5,-102.368"/>
</g>
<!-- Node5 -->
<g id="node5" class="node"><title>Node5</title>
<g id="a_node5"><a xlink:href="view_8cpp.html" target="_top" xlink:title="src/view.cpp">
<polygon fill="none" stroke="black" points="175,-56.5 175,-75.5 247,-75.5 247,-56.5 175,-56.5"/>
<text text-anchor="middle" x="211" y="-63.5" font-family="Helvetica,sans-Serif" font-size="10.00">src/view.cpp</text>
</a>
</g>
</g>
<!-- Node1&#45;&gt;Node5 -->
<g id="edge5" class="edge"><title>Node1&#45;&gt;Node5</title>
<path fill="none" stroke="midnightblue" d="M164.991,-105.82C176.458,-96.1452 190.913,-83.9481 200.53,-75.8339"/>
<polygon fill="midnightblue" stroke="midnightblue" points="162.669,-103.2 157.283,-112.324 167.183,-108.55 162.669,-103.2"/>
</g>
<!-- Node3 -->
<g id="node3" class="node"><title>Node3</title>
<g id="a_node3"><a xlink:href="controller_8cpp.html" target="_top" xlink:title="src/controller.cpp">
<polygon fill="none" stroke="black" points="0,-0.5 0,-19.5 92,-19.5 92,-0.5 0,-0.5"/>
<text text-anchor="middle" x="46" y="-7.5" font-family="Helvetica,sans-Serif" font-size="10.00">src/controller.cpp</text>
</a>
</g>
</g>
<!-- Node2&#45;&gt;Node3 -->
<g id="edge2" class="edge"><title>Node2&#45;&gt;Node3</title>
<path fill="none" stroke="midnightblue" d="M61.8621,-46.6897C57.8174,-37.589 53.1174,-27.0141 49.8894,-19.7511"/>
<polygon fill="midnightblue" stroke="midnightblue" points="58.7771,-48.3664 66.0369,-56.083 65.1738,-45.5234 58.7771,-48.3664"/>
</g>
<!-- Node2&#45;&gt;Node4 -->
<g id="edge3" class="edge"><title>Node2&#45;&gt;Node4</title>
<path fill="none" stroke="midnightblue" d="M90.901,-50.3422C104.911,-40.5169 122.883,-27.9132 134.659,-19.6545"/>
<polygon fill="midnightblue" stroke="midnightblue" points="88.5491,-47.7166 82.3714,-56.324 92.5683,-53.4477 88.5491,-47.7166"/>
</g>
</g>
</svg>
