<?xml version="1.0" encoding="UTF-8" standalone="no"?>
<!DOCTYPE svg PUBLIC "-//W3C//DTD SVG 1.1//EN"
 "http://www.w3.org/Graphics/SVG/1.1/DTD/svg11.dtd">
<!-- Generated by graphviz version 2.36.0 (20140111.2315)
 -->
<!-- Title: src/view.cpp Pages: 1 -->
<svg width="251pt" height="252pt"
 viewBox="0.00 0.00 250.83 252.00" xmlns="http://www.w3.org/2000/svg" xmlns:xlink="http://www.w3.org/1999/xlink">
<g id="graph0" class="graph" transform="scale(1 1) rotate(0) translate(4 248)">
<title>src/view.cpp</title>
<!-- Node1 -->
<g id="node1" class="node"><title>Node1</title>
<polygon fill="#bfbfbf" stroke="black" points="24.8287,-224.5 24.8287,-243.5 96.8287,-243.5 96.8287,-224.5 24.8287,-224.5"/>
<text text-anchor="middle" x="60.8287" y="-231.5" font-family="Helvetica,sans-Serif" font-size="10.00">src/view.cpp</text>
</g>
<!-- Node2 -->
<g id="node2" class="node"><title>Node2</title>
<g id="a_node2"><a xlink:href="view_8h.html" target="_top" xlink:title="view.h">
<polygon fill="none" stroke="black" points="38.3287,-168.5 38.3287,-187.5 83.3287,-187.5 83.3287,-168.5 38.3287,-168.5"/>
<text text-anchor="middle" x="60.8287" y="-175.5" font-family="Helvetica,sans-Serif" font-size="10.00">view.h</text>
</a>
</g>
</g>
<!-- Node1&#45;&gt;Node2 -->
<g id="edge1" class="edge"><title>Node1&#45;&gt;Node2</title>
<path fill="none" stroke="midnightblue" d="M60.8287,-224.083C60.8287,-217.006 60.8287,-206.861 60.8287,-197.986"/>
<polygon fill="midnightblue" stroke="midnightblue" points="64.3288,-197.751 60.8287,-187.751 57.3288,-197.751 64.3288,-197.751"/>
</g>
<!-- Node3 -->
<g id="node3" class="node"><title>Node3</title>
<g id="a_node3"><a xlink:href="document__model_8h.html" target="_top" xlink:title="document_model.h">
<polygon fill="none" stroke="black" points="11.3287,-112.5 11.3287,-131.5 110.329,-131.5 110.329,-112.5 11.3287,-112.5"/>
<text text-anchor="middle" x="60.8287" y="-119.5" font-family="Helvetica,sans-Serif" font-size="10.00">document_model.h</text>
</a>
</g>
</g>
<!-- Node2&#45;&gt;Node3 -->
<g id="edge2" class="edge"><title>Node2&#45;&gt;Node3</title>
<path fill="none" stroke="midnightblue" d="M60.8287,-168.083C60.8287,-161.006 60.8287,-150.861 60.8287,-141.986"/>
<polygon fill="midnightblue" stroke="midnightblue" points="64.3288,-141.751 60.8287,-131.751 57.3288,-141.751 64.3288,-141.751"/>
</g>
<!-- Node4 -->
<g id="node4" class="node"><title>Node4</title>
<polygon fill="none" stroke="#bfbfbf" points="15.3287,-0.5 15.3287,-19.5 56.3287,-19.5 56.3287,-0.5 15.3287,-0.5"/>
<text text-anchor="middle" x="35.8287" y="-7.5" font-family="Helvetica,sans-Serif" font-size="10.00">string</text>
</g>
<!-- Node3&#45;&gt;Node4 -->
<g id="edge3" class="edge"><title>Node3&#45;&gt;Node4</title>
<path fill="none" stroke="midnightblue" d="M42.4392,-112.471C28.7276,-104.997 11.0138,-92.7104 2.82866,-76 -5.37762,-59.2465 6.80777,-40.2356 18.6224,-27.1217"/>
<polygon fill="midnightblue" stroke="midnightblue" points="21.2865,-29.4023 25.7451,-19.7913 16.2661,-24.5242 21.2865,-29.4023"/>
</g>
<!-- Node5 -->
<g id="node5" class="node"><title>Node5</title>
<polygon fill="none" stroke="#bfbfbf" points="12.3287,-56.5 12.3287,-75.5 47.3287,-75.5 47.3287,-56.5 12.3287,-56.5"/>
<text text-anchor="middle" x="29.8287" y="-63.5" font-family="Helvetica,sans-Serif" font-size="10.00">map</text>
</g>
<!-- Node3&#45;&gt;Node5 -->
<g id="edge4" class="edge"><title>Node3&#45;&gt;Node5</title>
<path fill="none" stroke="midnightblue" d="M55.7096,-112.083C51.4211,-104.613 45.1705,-93.7244 39.8864,-84.5199"/>
<polygon fill="midnightblue" stroke="midnightblue" points="42.8665,-82.6811 34.8524,-75.7511 36.7958,-86.1662 42.8665,-82.6811"/>
</g>
<!-- Node6 -->
<g id="node6" class="node"><title>Node6</title>
<polygon fill="none" stroke="#bfbfbf" points="65.8287,-56.5 65.8287,-75.5 117.829,-75.5 117.829,-56.5 65.8287,-56.5"/>
<text text-anchor="middle" x="91.8287" y="-63.5" font-family="Helvetica,sans-Serif" font-size="10.00">memory</text>
</g>
<!-- Node3&#45;&gt;Node6 -->
<g id="edge5" class="edge"><title>Node3&#45;&gt;Node6</title>
<path fill="none" stroke="midnightblue" d="M65.9477,-112.083C70.2362,-104.613 76.4869,-93.7244 81.771,-84.5199"/>
<polygon fill="midnightblue" stroke="midnightblue" points="84.8616,-86.1662 86.8049,-75.7511 78.7908,-82.6811 84.8616,-86.1662"/>
</g>
<!-- Node7 -->
<g id="node7" class="node"><title>Node7</title>
<g id="a_node7"><a xlink:href="canvas__primitives_8h.html" target="_top" xlink:title="canvas_primitives.h">
<polygon fill="none" stroke="black" points="135.829,-56.5 135.829,-75.5 239.829,-75.5 239.829,-56.5 135.829,-56.5"/>
<text text-anchor="middle" x="187.829" y="-63.5" font-family="Helvetica,sans-Serif" font-size="10.00">canvas_primitives.h</text>
</a>
</g>
</g>
<!-- Node3&#45;&gt;Node7 -->
<g id="edge6" class="edge"><title>Node3&#45;&gt;Node7</title>
<path fill="none" stroke="midnightblue" d="M80.9522,-112.444C101.853,-103.557 134.763,-89.5632 158.545,-79.4514"/>
<polygon fill="midnightblue" stroke="midnightblue" points="159.966,-82.6504 167.799,-75.5164 157.227,-76.2085 159.966,-82.6504"/>
</g>
<!-- Node7&#45;&gt;Node4 -->
<g id="edge8" class="edge"><title>Node7&#45;&gt;Node4</title>
<path fill="none" stroke="midnightblue" d="M163.744,-56.4435C137.236,-47.0262 94.5868,-31.8746 65.9027,-21.6842"/>
<polygon fill="midnightblue" stroke="midnightblue" points="66.9833,-18.3538 56.3886,-18.3042 64.6399,-24.9499 66.9833,-18.3538"/>
</g>
<!-- Node8 -->
<g id="node8" class="node"><title>Node8</title>
<polygon fill="none" stroke="#bfbfbf" points="126.829,-0.5 126.829,-19.5 180.829,-19.5 180.829,-0.5 126.829,-0.5"/>
<text text-anchor="middle" x="153.829" y="-7.5" font-family="Helvetica,sans-Serif" font-size="10.00">iostream</text>
</g>
<!-- Node7&#45;&gt;Node8 -->
<g id="edge7" class="edge"><title>Node7&#45;&gt;Node8</title>
<path fill="none" stroke="midnightblue" d="M182.214,-56.083C177.461,-48.5341 170.511,-37.4948 164.677,-28.2298"/>
<polygon fill="midnightblue" stroke="midnightblue" points="167.629,-26.3486 159.339,-19.7511 161.705,-30.0783 167.629,-26.3486"/>
</g>
<!-- Node9 -->
<g id="node9" class="node"><title>Node9</title>
<polygon fill="none" stroke="#bfbfbf" points="198.829,-0.5 198.829,-19.5 242.829,-19.5 242.829,-0.5 198.829,-0.5"/>
<text text-anchor="middle" x="220.829" y="-7.5" font-family="Helvetica,sans-Serif" font-size="10.00">vector</text>
</g>
<!-- Node7&#45;&gt;Node9 -->
<g id="edge9" class="edge"><title>Node7&#45;&gt;Node9</title>
<path fill="none" stroke="midnightblue" d="M193.278,-56.083C197.843,-48.6127 204.497,-37.7244 210.122,-28.5199"/>
<polygon fill="midnightblue" stroke="midnightblue" points="213.253,-30.109 215.481,-19.7511 207.28,-26.4588 213.253,-30.109"/>
</g>
</g>
</svg>
