<?xml version="1.0" encoding="UTF-8" standalone="no"?>
<!DOCTYPE svg PUBLIC "-//W3C//DTD SVG 1.1//EN"
 "http://www.w3.org/Graphics/SVG/1.1/DTD/svg11.dtd">
<!-- Generated by graphviz version 2.36.0 (20140111.2315)
 -->
<!-- Title: include/view.h Pages: 1 -->
<svg width="251pt" height="140pt"
 viewBox="0.00 0.00 251.00 140.00" xmlns="http://www.w3.org/2000/svg" xmlns:xlink="http://www.w3.org/1999/xlink">
<g id="graph0" class="graph" transform="scale(1 1) rotate(0) translate(4 136)">
<title>include/view.h</title>
<!-- Node1 -->
<g id="node1" class="node"><title>Node1</title>
<polygon fill="#bfbfbf" stroke="black" points="103.5,-112.5 103.5,-131.5 182.5,-131.5 182.5,-112.5 103.5,-112.5"/>
<text text-anchor="middle" x="143" y="-119.5" font-family="Helvetica,sans-Serif" font-size="10.00">include/view.h</text>
</g>
<!-- Node2 -->
<g id="node2" class="node"><title>Node2</title>
<g id="a_node2"><a xlink:href="controller_8h.html" target="_top" xlink:title="include/controller.h">
<polygon fill="none" stroke="black" points="17,-56.5 17,-75.5 115,-75.5 115,-56.5 17,-56.5"/>
<text text-anchor="middle" x="66" y="-63.5" font-family="Helvetica,sans-Serif" font-size="10.00">include/controller.h</text>
</a>
</g>
</g>
<!-- Node1&#45;&gt;Node2 -->
<g id="edge1" class="edge"><title>Node1&#45;&gt;Node2</title>
<path fill="none" stroke="midnightblue" d="M122.099,-106.342C108.089,-96.5169 90.117,-83.9132 78.3407,-75.6545"/>
<polygon fill="midnightblue" stroke="midnightblue" points="120.432,-109.448 130.629,-112.324 124.451,-103.717 120.432,-109.448"/>
</g>
<!-- Node4 -->
<g id="node4" class="node"><title>Node4</title>
<g id="a_node4"><a xlink:href="gui_8cpp.html" target="_top" xlink:title="src/gui.cpp">
<polygon fill="none" stroke="black" points="110.5,-0.5 110.5,-19.5 175.5,-19.5 175.5,-0.5 110.5,-0.5"/>
<text text-anchor="middle" x="143" y="-7.5" font-family="Helvetica,sans-Serif" font-size="10.00">src/gui.cpp</text>
</a>
</g>
</g>
<!-- Node1&#45;&gt;Node4 -->
<g id="edge4" class="edge"><title>Node1&#45;&gt;Node4</title>
<path fill="none" stroke="midnightblue" d="M143,-102.348C143,-78.2538 143,-37.3079 143,-19.5914"/>
<polygon fill="midnightblue" stroke="midnightblue" points="139.5,-102.368 143,-112.368 146.5,-102.369 139.5,-102.368"/>
</g>
<!-- Node5 -->
<g id="node5" class="node"><title>Node5</title>
<g id="a_node5"><a xlink:href="view_8cpp.html" target="_top" xlink:title="src/view.cpp">
<polygon fill="none" stroke="black" points="171,-56.5 171,-75.5 243,-75.5 243,-56.5 171,-56.5"/>
<text text-anchor="middle" x="207" y="-63.5" font-family="Helvetica,sans-Serif" font-size="10.00">src/view.cpp</text>
</a>
</g>
</g>
<!-- Node1&#45;&gt;Node5 -->
<g id="edge5" class="edge"><title>Node1&#45;&gt;Node5</title>
<path fill="none" stroke="midnightblue" d="M160.991,-105.82C172.458,-96.1452 186.913,-83.9481 196.53,-75.8339"/>
<polygon fill="midnightblue" stroke="midnightblue" points="158.669,-103.2 153.283,-112.324 163.183,-108.55 158.669,-103.2"/>
</g>
<!-- Node3 -->
<g id="node3" class="node"><title>Node3</title>
<g id="a_node3"><a xlink:href="controller_8cpp.html" target="_top" xlink:title="src/controller.cpp">
<polygon fill="none" stroke="black" points="0,-0.5 0,-19.5 92,-19.5 92,-0.5 0,-0.5"/>
<text text-anchor="middle" x="46" y="-7.5" font-family="Helvetica,sans-Serif" font-size="10.00">src/controller.cpp</text>
</a>
</g>
</g>
<!-- Node2&#45;&gt;Node3 -->
<g id="edge2" class="edge"><title>Node2&#45;&gt;Node3</title>
<path fill="none" stroke="midnightblue" d="M59.2184,-46.6897C55.8478,-37.589 51.9312,-27.0141 49.2411,-19.7511"/>
<polygon fill="midnightblue" stroke="midnightblue" points="55.9421,-47.9211 62.6974,-56.083 62.5063,-45.4899 55.9421,-47.9211"/>
</g>
<!-- Node2&#45;&gt;Node4 -->
<g id="edge3" class="edge"><title>Node2&#45;&gt;Node4</title>
<path fill="none" stroke="midnightblue" d="M86.901,-50.3422C100.911,-40.5169 118.883,-27.9132 130.659,-19.6545"/>
<polygon fill="midnightblue" stroke="midnightblue" points="84.5491,-47.7166 78.3714,-56.324 88.5683,-53.4477 84.5491,-47.7166"/>
</g>
</g>
</svg>
